<?xml version="1.0" encoding="UTF-8" standalone="no"?>
<!-- Generator: Adobe Illustrator 16.0.0, SVG Export Plug-In . SVG Version: 6.00 Build 0)  -->

<svg
   xmlns:dc="http://purl.org/dc/elements/1.1/"
   xmlns:cc="http://creativecommons.org/ns#"
   xmlns:rdf="http://www.w3.org/1999/02/22-rdf-syntax-ns#"
   xmlns:svg="http://www.w3.org/2000/svg"
   xmlns="http://www.w3.org/2000/svg"
   xmlns:sodipodi="http://sodipodi.sourceforge.net/DTD/sodipodi-0.dtd"
   xmlns:inkscape="http://www.inkscape.org/namespaces/inkscape"
   version="1.1"
   id="svg868"
   sodipodi:docname="blockchain_logo_header.svg"
   inkscape:version="0.92.2 (5c3e80d, 2017-08-06)"
   x="0px"
   y="0px"
   width="328.427"
   height="48.230999"
   viewBox="-5.675 -365.073 328.427 48.230999"
   xml:space="preserve"><metadata
     id="metadata34"><rdf:RDF><cc:Work
         rdf:about=""><dc:format>image/svg+xml</dc:format><dc:type
           rdf:resource="http://purl.org/dc/dcmitype/StillImage" /><dc:title></dc:title></cc:Work></rdf:RDF></metadata><defs
     id="defs32" /><sodipodi:namedview
     inkscape:cy="-446.4533"
     objecttolerance="10"
     inkscape:zoom="0.52946422"
     inkscape:cx="-44.724925"
     bordercolor="#666666"
     gridtolerance="10"
     pagecolor="#ffffff"
     fit-margin-top="0"
     guidetolerance="10"
     fit-margin-left="0"
     borderopacity="1"
     showgrid="false"
     id="namedview870"
     inkscape:pageshadow="2"
     inkscape:pageopacity="0"
     inkscape:window-height="705"
     inkscape:window-width="1366"
     fit-margin-bottom="0"
     fit-margin-right="0"
     inkscape:current-layer="svg868"
     inkscape:window-x="1592"
     inkscape:window-y="-8"
     inkscape:window-maximized="1" /><g
     id="g29"
     transform="translate(-135.249,-238.446)"><g
       id="g15"><path
         id="B_1_"
         inkscape:connector-curvature="0"
         style="fill:#ffffff"
         d="m 203.234,-117.461 c 1.852,0.023 3.491,0.091 4.891,1.496 1.666,1.662 2.012,6.872 1.16,8.979 -0.389,0.967 -0.768,1.191 -1.488,1.844 0.647,0.661 1.048,0.979 1.441,1.866 1.396,3.161 1.331,9.809 -2.363,11.297 -1.798,0.729 -5.261,0.523 -7.291,0.523 H 185.44 v -26.006 h 17.794 z m -1.825,10.494 c 2.034,-0.042 3.6,-0.247 3.6,-2.738 0,-0.552 -0.105,-1.213 -0.415,-1.684 -0.84,-1.259 -2.771,-1.049 -4.098,-1.054 h -10.037 v 5.476 z m -0.913,10.494 c 0.921,0 2.72,0.064 3.518,-0.338 1.364,-0.688 1.451,-4.229 0.315,-5.127 -0.611,-0.484 -1.725,-0.452 -2.463,-0.466 h -11.407 v 5.931 z" /><path
         id="L_1_"
         inkscape:connector-curvature="0"
         style="fill:#ffffff"
         d="m 217.872,-117.461 0.114,14.764 c 0.023,1.711 0.071,3.545 1.384,4.886 0.8,0.969 1.679,0.877 3.047,0.924 l 10.474,-0.042 v 5.474 h -12.774 c -1.991,-0.026 -4.202,-0.269 -5.754,-1.665 -1.685,-1.515 -1.977,-3.96 -2.004,-6.091 v -18.25 z" /><path
         id="O_1_"
         inkscape:connector-curvature="0"
         style="fill:#ffffff"
         d="m 250.685,-117.461 c 2.117,0.027 4.225,0.229 5.734,1.926 1.575,1.771 1.56,4.517 1.564,6.743 0.005,3.814 0.922,13.14 -1.979,15.672 -1.861,1.624 -4.371,1.661 -6.688,1.665 -3.532,0.004 -10.559,0.739 -13.056,-1.925 -1.668,-1.788 -1.975,-5.726 -2.001,-8.111 -0.037,-3.263 -0.09,-12.46 1.181,-13.83 1.539,-2.11 3.426,-1.965 4.676,-2.14 z m -10.614,6.187 c -1.229,1.341 -0.803,7.761 -0.794,9.782 0.006,1.172 -0.1,2.879 0.794,3.768 1.195,1.2 6.529,0.798 8.331,0.794 1.187,-0.005 2.931,0.15 3.843,-0.73 0.684,-0.662 0.921,-2.008 1.044,-2.92 0.302,-2.194 0.453,-9.116 -1.044,-10.717 -1.538,-1.642 -7.571,-1.231 -9.773,-1.008 -0.891,0.206 -1.74,0.31 -2.401,1.031 z" /><path
         id="C_1_"
         inkscape:connector-curvature="0"
         style="fill:#ffffff"
         d="m 268.934,-91.455 c -2.19,-0.026 -4.616,-0.228 -6.209,-1.925 -1.669,-1.788 -1.976,-5.726 -2.003,-8.111 -0.051,-4.408 -1.014,-12.99 3.649,-15.253 1.602,-0.776 3.294,-0.711 5.019,-0.716 h 13.688 v 5.019 h -11.405 c -1.553,0.019 -3.587,0.096 -4.787,1.232 -1.141,1.081 -1.128,2.787 -1.146,4.243 -0.031,2.65 -0.72,8.112 1.876,9.572 0.983,0.552 2.486,0.466 3.599,0.466 h 11.863 v 5.474 h -14.144 z" /><path
         id="K_1_"
         inkscape:connector-curvature="0"
         style="fill:#ffffff"
         d="m 290.377,-117.461 v 11.862 l 7.343,-8.212 3.485,-3.65 h 6.511 l -11.407,12.775 c 2.347,2.182 9.915,10.636 11.863,13.23 h -6.377 l -3.675,-3.649 -7.743,-8.669 v 12.318 h -4.562 v -26.006 h 4.562 z" /><path
         id="C__x23_1_1_"
         inkscape:connector-curvature="0"
         style="fill:#ffffff"
         d="m 316.84,-91.455 c -2.14,-0.026 -5.027,-0.305 -6.546,-2.002 -1.499,-1.675 -1.657,-4.532 -1.667,-6.666 -0.018,-4.253 -1.121,-13.926 2.783,-16.386 1.616,-1.017 3.6,-0.948 5.43,-0.953 h 14.144 v 5.019 h -11.862 c -1.51,0.019 -3.245,0.045 -4.421,1.145 -1.629,1.52 -1.095,7.953 -1.054,10.261 0.022,1.059 0.006,2.19 0.729,3.053 1.036,1.228 2.839,1.049 4.289,1.054 h 12.318 v 5.474 H 316.84 Z" /><path
         id="H_1_"
         inkscape:connector-curvature="0"
         style="fill:#ffffff"
         d="m 338.283,-117.461 v 10.494 h 14.601 v -10.494 h 5.019 v 26.006 h -5.019 v -10.494 h -14.601 v 10.494 h -5.018 v -26.006 z" /><path
         id="A_1_"
         sodipodi:nodetypes="ccccccccccccccc"
         inkscape:connector-curvature="0"
         style="fill:#ffffff"
         d="m 369.651,-112.898 c 0.992,-1.925 1.993,-4.388 4.331,-4.931 2.063,-0.464 3.891,1.062 4.759,2.807 1.152,2.249 2.118,4.589 3.288,6.832 2.756,5.579 5.511,11.158 8.268,16.736 h -5.929 c -1.193,-1.671 -2.101,-3.529 -3.292,-5.201 -6.575,-0.026 -6.548,-0.027 -13.301,0 -0.957,1.583 -1.331,3.618 -2.289,5.201 h -6.215 c 3.461,-7.148 6.921,-14.296 10.38,-21.444 z m 0.57,10.95 h 9.126 c -1.521,-3.193 -3.041,-6.387 -4.562,-9.581 -1.523,3.194 -3.044,6.388 -4.564,9.581 z" /><path
         id="I_1_"
         inkscape:connector-curvature="0"
         style="fill:#ffffff"
         d="m 396.684,-117.461 v 26.006 h -5.019 v -26.006 z" /><path
         id="N_1_"
         inkscape:connector-curvature="0"
         style="fill:#ffffff"
         d="m 399.877,-114.266 c 0.042,-2.117 0.507,-4.062 3.193,-3.5 2.045,0.429 4.062,3.294 5.362,4.869 l 11.063,13.231 v -17.793 h 4.563 v 22.356 c -0.032,2.122 -0.335,4.558 -3.194,3.955 -2.025,-0.428 -4.078,-3.316 -5.416,-4.868 l -11.009,-13.231 v 17.794 h -4.563 v -22.813 z" /><polygon
         style="fill:#ffffff"
         points="431.784,-107.259 431.784,-101.557 441.825,-101.573 441.825,-91.24 447.799,-91.24 447.799,-101.58 458.001,-101.573 458.001,-107.221 447.796,-107.221 447.79,-117.427 441.825,-117.406 441.825,-107.24 "
         id="polygon13" /></g><g
       id="g21"><path
         style="fill:#ffffff"
         d="m 129.574,-78.396 v -8.97 h 6.002 v -30.36 h -6.002 v -8.901 h 25.738 c 5.75,0 10.004,1.024 12.766,3.071 2.76,2.047 4.139,4.957 4.139,8.729 0,1.473 -0.115,2.749 -0.344,3.829 -0.23,1.081 -0.6,2.048 -1.105,2.898 -0.506,0.852 -1.195,1.599 -2.068,2.242 -0.875,0.645 -2.957,1.22 -4.244,1.725 1.242,0.369 3.416,0.863 4.52,1.483 1.104,0.621 2.07,1.415 2.898,2.381 0.828,0.966 1.482,2.104 1.965,3.416 0.484,1.311 0.725,2.794 0.725,4.45 0,4.876 -1.461,8.43 -4.381,10.66 -2.922,2.231 -7.717,3.347 -14.387,3.347 z m 18.285,-39.123 v 10.35 h 4.211 c 1.838,0 3.08,-0.471 3.725,-1.414 0.645,-0.942 0.967,-2.242 0.967,-3.898 0,-1.609 -0.426,-2.852 -1.277,-3.726 -0.851,-0.874 -1.943,-1.312 -3.277,-1.312 z m 5.522,30.153 c 1.471,0 2.77,-0.518 3.898,-1.553 1.127,-1.035 1.689,-2.495 1.689,-4.382 0,-1.747 -0.482,-3.196 -1.449,-4.347 -0.965,-1.149 -2.414,-1.725 -4.346,-1.725 h -5.314 v 12.006 h 5.522 z"
         id="path17"
         inkscape:connector-curvature="0" /><rect
         x="142.623"
         y="-122.191"
         style="fill:#ffffff;stroke:#ffffff;stroke-width:0.5;stroke-miterlimit:10"
         width="20"
         height="38.794998"
         id="rect19" /></g><g
       id="g27"><rect
         x="139.92"
         y="-106.908"
         style="fill:#40b3ce;stroke:#40b3ce;stroke-miterlimit:10"
         width="22.851999"
         height="7.0840001"
         id="rect23" /><rect
         x="139.87399"
         y="-106.893"
         transform="matrix(0.0022,1,-1,0.0022,47.613,-254.4186)"
         style="fill:#40b3ce;stroke:#40b3ce;stroke-miterlimit:10"
         width="22.851"
         height="7.086"
         id="rect25" /></g></g></svg>