<?xml version="1.0" encoding="UTF-8" standalone="no"?>
<!-- Generator: Adobe Illustrator 16.0.0, SVG Export Plug-In . SVG Version: 6.00 Build 0)  -->

<svg
   xmlns:dc="http://purl.org/dc/elements/1.1/"
   xmlns:cc="http://creativecommons.org/ns#"
   xmlns:rdf="http://www.w3.org/1999/02/22-rdf-syntax-ns#"
   xmlns:svg="http://www.w3.org/2000/svg"
   xmlns="http://www.w3.org/2000/svg"
   xmlns:sodipodi="http://sodipodi.sourceforge.net/DTD/sodipodi-0.dtd"
   xmlns:inkscape="http://www.inkscape.org/namespaces/inkscape"
   version="1.1"
   id="flames_1_"
   x="0px"
   y="0px"
   width="139.43718"
   height="154.64293"
   viewBox="0 0 139.43718 154.64293"
   xml:space="preserve"
   sodipodi:docname="Blazing_Icon_svg.svg"
   inkscape:version="0.92.2 (5c3e80d, 2017-08-06)"><metadata
     id="metadata75"><rdf:RDF><cc:Work
         rdf:about=""><dc:format>image/svg+xml</dc:format><dc:type
           rdf:resource="http://purl.org/dc/dcmitype/StillImage" /><dc:title></dc:title></cc:Work></rdf:RDF></metadata><defs
     id="defs73" /><sodipodi:namedview
     pagecolor="#ffffff"
     bordercolor="#666666"
     borderopacity="1"
     objecttolerance="10"
     gridtolerance="10"
     guidetolerance="10"
     inkscape:pageopacity="0"
     inkscape:pageshadow="2"
     inkscape:window-width="1600"
     inkscape:window-height="837"
     id="namedview71"
     showgrid="false"
     fit-margin-top="0"
     fit-margin-left="0"
     fit-margin-right="0"
     fit-margin-bottom="0"
     inkscape:zoom="0.2979798"
     inkscape:cx="34.194172"
     inkscape:cy="40.509292"
     inkscape:window-x="-8"
     inkscape:window-y="-8"
     inkscape:window-maximized="1"
     inkscape:current-layer="flames_1_" /><path
     style="fill:#20566b"
     d="m 12.958172,149.19164 c -7.0139997,-4.791 -6.0799997,-11.065 -7.4399997,-19.187 2.04,1.339 4.075,2.709 6.5079997,3.229 -4.8919997,-3.984 -9.3979997,-8.286 -11.16899974,-14.551 -1.92699996,-6.815 -0.434,-14.049 2.77300004,-20.226004 1.887,-3.633 4.336,-6.926 6.7879997,-10.19 0.081,2.45 -0.038,4.944 0.534,7.345 0.559,2.35 1.619,4.560004 2.268,6.887004 0.993,3.562 1.248,7.564 4.446,9.946 0.32,-3.409 -1.887,-5.627 -2.318,-8.835 -0.508,-3.779004 1.289,-7.469004 2.815,-10.804004 0.91,2.221 3.721,8.780004 7.327,6.633 3.121,-1.858 -2.096,-6.958 -3.145,-8.637 -5.804,-9.287 0.592,-23.656 7,-31.125 5.006,-5.836 11.262,-10.647 17.075,-15.64 -3.568,6.306 -7.335,12.728 -9.116,19.815 -0.901,3.588 -2.513,11.13 0.298,14.358 2.987,3.43 8.293,-5.029 9.705,-6.868 5.28,-6.875 10.909,-13.869 15.132,-21.46 4.486,-8.067 4.477,-16.232 3.578,-25.185 3.732,4.892 7.269,9.932 8.807,15.983 1.646,6.471 0.903,13.185 -1.118,19.48 -1.187,3.697 -2.778,7.247 -4.372,10.783 1.245,-1.388 5.005,-4.018 6.312,-1.434 0.692,1.367 -0.355,3.817 -0.451,5.247 -0.156,2.312 0.47,4.366 1.373,6.47 1.062,-5.177 1.313,-10.613 2.955,-15.651 1.49,-4.574 4.204,-7.886 7.768,-11.022 -0.93,7.173 0.733,13.391 3.422,20.012 2.675,6.587 4.279,13.149 5.778,20.067 1.754,-1.018 1.604,-3.7 1.952,-5.438 1.049,1.934 2.829998,3 4.384998,4.471 1.492,1.412 2.66,3.521 4.551,4.415 -0.635,-4.513 -3.383,-7.743 -5.06,-11.847 -2.023,-4.954 -1.342,-10.018 0.054,-15.029 2.096,4.368 4.442,8.392 8.012,11.731 3.596,3.363 7.896,5.878 11.432,9.306 6.357,6.162 8.541,15.831004 6.728,24.386004 -1.143,5.392 -4.217,9.936 -7.351,14.363 4.328,-1.19 8.354,-2.734 11.472,-6.102 3.233,-3.491 5.043,-7.986 6.771,-12.347 -0.279,8.392 -0.333,17.4 -3.943,25.166 -3.325,7.15 -9.694,11.493 -17.11,13.672 -9.073,2.666 -18.830998,2.743 -28.209998,2.659 -10.195,-0.092 -20.384,-0.59 -30.577,-0.778 -7.315,-0.136 -14.634,-0.186 -21.95,-0.108 -3.576,0.037 -7.15,0.157 -10.725,0.214 -2.605,0.041 -9.891,0.019 -9.891,0.019"
     id="path2"
     inkscape:connector-curvature="0" /><path
     style="fill:#2f9bb0"
     d="m 37.805172,142.25264 c -1.627,-2.08 -3.886,-3.688 -5.387,-6.062 -2.661,-4.208 -4.438,-9.247 -5.667,-14.056 -2.593,-10.151 2.206,-22.386004 10.943,-30.502004 -0.812,0.755 1.325,6.916 1.633,7.87 0.854,2.649004 2.071,5.190004 3.438,7.612004 2.773,4.918 6.547,9.299 10.479,13.323 2.273,2.326 4.984,5.107 7.95,6.518 1.083,-2.262 -2.099,-5.147 -3.225,-6.88 -1.575,-2.424 -2.87,-5.012 -4.011,-7.664 -2.793,-6.493 -6.264,-12.444004 -6.264,-19.445004 0,-3.985 0.677,-8.079 2.454,-11.673 1.8,-3.641 4.957,-6.224 7.983,-8.823 1.694,-1.456 3.906,-1.892 5.403,-3.626 -1.12,1.318 0.101,4.68 0.144,6.276 0.07,2.621 -0.039,5.268 0.382,7.866 0.418,2.578 1.706,4.737 2.367,7.228 0.189,-0.958 3.418,-8.24 3.267,-8.414 1.891,2.182 5.322,7.67 7.834,10.667 1.432,1.708 5.325,5.151 4.619,7.407 1.858,-2.529 4.19,-6.829 4.214,-9.952 0.014,-1.751 1.01,-4.539 1.477,-3.84 0,0 1.965,6.274 2.826,9.285 1.314,4.598 0.376,9.625004 -2.47,13.511004 -1.138,1.553 -3.132,3.123 -2.061,5.561 1.671,3.802 5.229,-2.055 5.816,-3.854 1.171,-3.587 2.078,-8.45 1.339,-11.950004 2.124,2.095004 4.186,4.100004 6.962998,5.307004 8.093,3.517 14.609,10.976 14.609,20.193 0,4.581 -1.018,8.582 -2.174,13.041 -1.886,7.272 -7.608,13.6 -13.825998,17.021 l -55.166,-0.814 c -1.477,-2.771 -3.167,-7.65 -5.889,-11.131 z"
     id="path4"
     inkscape:connector-curvature="0" /><path
     style="fill:#40b3ce"
     d="m 43.694172,153.38364 c 0.811,-1.886 -2.914,-5.979 -3.438,-8.175 -0.608,-2.554 -0.91,-5.384 0.112,-7.813 0.958,-2.275 2.657,-3.531 4.136,-5.263 1.946,-2.279 2.427,-4.608 2.44,-7.563 0.265,2.862 2.939,5.288 3.248,8.37 0.315,3.148 -0.304,5.629 2.737,7.425 1.979,-1.997 3.947,-6.424 3.764,-9.229 1.901,1.386 5.78,3.418 6.834,5.498 0.821,1.622 0.998,4.618 3.166,4.834 2.631,0.262 5.518,-6.247 6.31,-8.633 2.655,-8 -6.566,-16.344 -1.879,-23.957 0.582,2.769 2.987,4.991 5.069,6.923 2.597,2.407 5.508,3.577 7.449,6.826 2.253,3.769 3.464,11.59 2.312,15.93 2.573,-1.28 4.902,-3.174 7.334,-4.423 1.66,-0.853 3.386,-1.349 4.573,-2.574 2.860998,-2.956 3.353998,-5.578 3.327998,-9.873 0.326,3.388 2.659,6.185 3.017,9.642 0.223,2.145 0.453,4.653 0.237,6.806 -0.275,2.751 -1.781,3.479 -3.8,5.182 -1.814998,1.531 -2.728998,3.188 -3.749998,5.243 -0.592,1.194 -0.666,5.061 -2.2,5.58 -1.019,0.346 -45.157,-1.005 -51.25,-1.005"
     id="path6"
     inkscape:connector-curvature="0" /><path
     style="fill:#ffffff;stroke:#ffffff;stroke-miterlimit:10"
     d="m 49.694172,140.26164 c -1.833,4.333 1.933,7.006 4.605,7.99 2.323,0.855 4.823,0.921 7.105,1.844 0.271,-1.645 -0.438,-2.923 -0.688,-4.397 1.323,0.375 2.685,1.01 3.744,1.897 -0.175,-0.774 0.125,-1.596 0.176,-2.243 0.583,0.472 1.431,0.771 2.017,1.234 -0.066,-0.458 0.158,-1.126 0.079,-1.582 0.323,0.395 1.119,0.778 1.416,1.152 -0.02,-1.068 0.15,-2.16 0.332,-3.204 4.637,0.057 4.213,-11.282 4.213,-14.212 0,0 2.072,7.556 2.271,11.172 5.784,-2.646 4.118,-5.889 5.778,-10.703 1.021,3.949 2.585,8.88 0.957,12.912 -1.209,2.994 -4.634,3.677 -4.287,7.437 2.661,-4.398 7.136,-0.458 11.024,-0.882 3.053,-0.332 6.726,-2.53 8.018,-5.435 -0.053,2.915 -0.404,4.531 -2.193,6.741 -1.239,1.53 -3.864,2.075 -4.093,4.155 l -39.226,-0.461"
     id="path8"
     inkscape:connector-curvature="0" /><path
     style="fill:#2f9bb0"
     d="m 54.944172,27.883636 c -2.351,0.799 -1.099,7.901 -2.917,10.207 2.842,0.148 5.026,-1.27 5.86,-4.208 0.495,-1.743 -1.44,-8.501 -3.443,-5.749"
     id="path10"
     inkscape:connector-curvature="0" /><path
     style="fill:#40b3ce"
     d="m 53.857172,31.688636 c -1.475,0.501 -0.689,4.958 -1.83,6.405 1.783,0.093 3.154,-0.797 3.678,-2.64 0.311,-1.094 -0.904,-5.335 -2.161,-3.608"
     id="path12"
     inkscape:connector-curvature="0" /><path
     style="fill:#20566b"
     d="m 85.944172,28.883636 c 3.482,0.009 3.084,5.716 3,8.019 -0.077,2.133 -2.409,7.846 1.456,6.682 0.901,-0.271 2.188,-2.154 2.537,-2.971 0.577,-1.353 0.376,-3.494 -0.118,-4.827 -1.313,-3.54 -4.531,-4.487 -7.375,-6.402"
     id="path14"
     inkscape:connector-curvature="0" /><path
     style="fill:#2f9bb0"
     d="m 89.821172,32.594636 c 2.27,0.678 0.908,4.324 0.409,5.81 -0.462,1.376 -3.085,4.653 -0.34,4.639 0.641,-0.003 1.844,-0.982 2.229,-1.448 0.638,-0.771 0.919,-2.207 0.854,-3.171 -0.174,-2.562 -2.09,-3.801 -3.575,-5.599"
     id="path16"
     inkscape:connector-curvature="0" /><path
     style="fill:#40b3ce;stroke:#2f9bb0;stroke-miterlimit:10"
     d="m 68.246172,4.7166362 c 0.827,3.239 2.709,2.872 4.523,5.9169998 1.715,2.878 4.639,5.443 4.458,8.968 2.552,0.04 2.393,-3.064 2.479,-4.892 0.124,-2.615 -0.247,-3.708 -1.938,-5.5629998 -2.628,-2.882 -7.771,-4.45 -9.518,-7.492 -0.107,1.385 -0.334,3.03 0.443,4.23"
     id="path18"
     inkscape:connector-curvature="0" /><path
     style="fill:#2f9bb0"
     d="m 71.900172,9.4796362 c 0.507,1.9849998 1.66,1.7599998 2.772,3.6259998 1.051,1.764 2.843,3.336 2.732,5.496 1.563,0.024 1.466,-1.878 1.52,-2.998 0.075,-1.603 -0.151,-2.273 -1.188,-3.41 -1.61,-1.766 -4.762,-2.7269998 -5.833,-4.5919998 -0.065,0.849 -0.204,1.857 0.272,2.5919998"
     id="path20"
     inkscape:connector-curvature="0" /><g
     id="g68"
     transform="translate(-271.80583,-281.86636)"><circle
       style="fill:#40b3ce;stroke:#40b3ce;stroke-width:0.75;stroke-miterlimit:10"
       cx="318"
       cy="344.66699"
       r="1.341"
       id="circle22" /><circle
       style="fill:#40b3ce;stroke:#40b3ce;stroke-width:0.75;stroke-miterlimit:10"
       cx="306"
       cy="364"
       r="1.342"
       id="circle24" /><circle
       style="fill:#40b3ce;stroke:#40b3ce;stroke-width:0.75;stroke-miterlimit:10"
       cx="338.60001"
       cy="344.66699"
       r="1.341"
       id="circle26" /><circle
       style="fill:#40b3ce;stroke:#40b3ce;stroke-width:0.75;stroke-miterlimit:10"
       cx="406.66699"
       cy="392"
       r="1.341"
       id="circle28" /><circle
       style="fill:#20566b;stroke:#20566b;stroke-width:0.75;stroke-miterlimit:10"
       cx="360.461"
       cy="378.32599"
       r="1.341"
       id="circle30" /><circle
       style="fill:#40b3ce;stroke:#40b3ce;stroke-width:0.75;stroke-miterlimit:10"
       cx="288.43799"
       cy="369.66699"
       r="0.77100003"
       id="circle32" /><circle
       style="fill:#40b3ce;stroke:#40b3ce;stroke-width:0.75;stroke-miterlimit:10"
       cx="297.771"
       cy="354.729"
       r="0.77100003"
       id="circle34" /><circle
       style="fill:#40b3ce;stroke:#40b3ce;stroke-width:0.75;stroke-miterlimit:10"
       cx="327.56"
       cy="365.341"
       r="0.77100003"
       id="circle36" /><circle
       style="fill:#40b3ce"
       cx="279.33301"
       cy="381.89499"
       r="0.77100003"
       id="circle38" /><circle
       style="fill:#20566b;stroke:#20566b;stroke-width:0.75;stroke-miterlimit:10"
       cx="308.11301"
       cy="396"
       r="0.77100003"
       id="circle40" /><circle
       style="fill:#40b3ce;stroke:#40b3ce;stroke-width:0.75;stroke-miterlimit:10"
       cx="297"
       cy="387.772"
       r="0.77100003"
       id="circle42" /><circle
       style="fill:#20566b"
       cx="316.659"
       cy="407.271"
       r="0.77100003"
       id="circle44" /><circle
       style="fill:#20566b;stroke:#20566b;stroke-width:0.75;stroke-miterlimit:10"
       cx="335"
       cy="385.45801"
       r="0.77100003"
       id="circle46" /><circle
       style="fill:#20566b;stroke:#20566b;stroke-width:0.75;stroke-miterlimit:10"
       cx="326.80301"
       cy="408.729"
       r="0.77100003"
       id="circle48" /><circle
       style="fill:#20566b"
       cx="308.11301"
       cy="384.20999"
       r="0.77100003"
       id="circle50" /><circle
       style="fill:#20566b;stroke:#20566b;stroke-width:0.75;stroke-miterlimit:10"
       cx="347.96301"
       cy="387.772"
       r="0.77100003"
       id="circle52" /><circle
       style="fill:#20566b;stroke:#20566b;stroke-width:0.75;stroke-miterlimit:10"
       cx="387.20999"
       cy="419.229"
       r="0.77100003"
       id="circle54" /><circle
       style="fill:#20566b"
       cx="375.66699"
       cy="396.771"
       r="0.77100003"
       id="circle56" /><circle
       style="fill:#40b3ce;stroke:#40b3ce;stroke-width:0.75;stroke-miterlimit:10"
       cx="352.306"
       cy="414.17401"
       r="0.77100003"
       id="circle58" /><circle
       style="fill:#40b3ce;stroke:#40b3ce;stroke-width:0.75;stroke-miterlimit:10"
       cx="368"
       cy="354.729"
       r="0.72899997"
       id="circle60" /><circle
       style="fill:#40b3ce;stroke:#40b3ce;stroke-width:0.75;stroke-miterlimit:10"
       cx="291.396"
       cy="408"
       r="0.72899997"
       id="circle62" /><circle
       style="fill:#20566b;stroke:#20566b;stroke-width:0.75;stroke-miterlimit:10"
       cx="334.271"
       cy="294.96899"
       r="0.72899997"
       id="circle64" /><circle
       style="fill:#20566b;stroke:#20566b;stroke-width:0.75;stroke-miterlimit:10"
       cx="353.077"
       cy="320.69501"
       r="0.72899997"
       id="circle66" /></g></svg>