<?xml version="1.0" encoding="UTF-8" standalone="no"?>
<!-- Generator: Adobe Illustrator 16.0.0, SVG Export Plug-In . SVG Version: 6.00 Build 0)  -->

<svg
   xmlns:dc="http://purl.org/dc/elements/1.1/"
   xmlns:cc="http://creativecommons.org/ns#"
   xmlns:rdf="http://www.w3.org/1999/02/22-rdf-syntax-ns#"
   xmlns:svg="http://www.w3.org/2000/svg"
   xmlns="http://www.w3.org/2000/svg"
   xmlns:sodipodi="http://sodipodi.sourceforge.net/DTD/sodipodi-0.dtd"
   xmlns:inkscape="http://www.inkscape.org/namespaces/inkscape"
   version="1.1"
   id="Layer_1"
   x="0px"
   y="0px"
   width="168.92091"
   height="166.70204"
   viewBox="0 0 168.92091 166.70204"
   xml:space="preserve"
   sodipodi:docname="seal_Icon.svg"
   inkscape:version="0.92.2 (5c3e80d, 2017-08-06)"><metadata
     id="metadata45"><rdf:RDF><cc:Work
         rdf:about=""><dc:format>image/svg+xml</dc:format><dc:type
           rdf:resource="http://purl.org/dc/dcmitype/StillImage" /><dc:title></dc:title></cc:Work></rdf:RDF></metadata><defs
     id="defs43" /><sodipodi:namedview
     pagecolor="#ffffff"
     bordercolor="#666666"
     borderopacity="1"
     objecttolerance="10"
     gridtolerance="10"
     guidetolerance="10"
     inkscape:pageopacity="0"
     inkscape:pageshadow="2"
     inkscape:window-width="1600"
     inkscape:window-height="837"
     id="namedview41"
     showgrid="false"
     fit-margin-top="0"
     fit-margin-left="0"
     fit-margin-right="0"
     fit-margin-bottom="0"
     inkscape:zoom="0.2979798"
     inkscape:cx="83.067595"
     inkscape:cy="93.798687"
     inkscape:window-x="-8"
     inkscape:window-y="-8"
     inkscape:window-maximized="1"
     inkscape:current-layer="Layer_1" /><path
     style="clip-rule:evenodd;fill:#2f9bb0;fill-rule:evenodd"
     d="m 134.69859,147.29736 c -3.794,0.814 -3.738,2.7 -3.315,4.919 0.593,3.008 1.317,6.045 1.471,9.09 0.149,3.005 -1.329,5.505 -4.679,5.392 -3.193,-0.099 -4.215,-2.618 -4.172,-5.464 0.03,-2.054 0.251,-4.111 0.507,-6.145 0.7,-5.222 0.454,-5.717 -4.85,-5.099 -9.84,1.117 -19.785995,1.94 -28.900995,6.196 -8.028,3.731 -15.945,4.651 -24.029,0.066 -0.824,-0.479 -2.462,-0.119 -3.48,0.345 -2.128,0.923 -3.99,2.384 -6.11,3.247 -6.483,2.656 -11.633,-0.501 -12.398,-7.458 -0.129,-1.131 -0.231,-2.274 -0.334,-3.448 -3.643,-0.692 -7.223,-1.105 -10.631,-2.058 -7.496,-2.106 -11.393,-7.483 -9.307,-14.831 2.712,-9.484 -0.424,-15.315 -8.476,-20.143 -10.4780003,-6.31 -13.0210003,-17.359004 -15.1810003,-28.312004 -0.685,-3.498 -0.851,-7.162 -0.807,-10.752 0.163,-11.93 4.703,-21.446 15.6420003,-27.263 1.245,-0.663 2.398,-1.515 3.667,-2.134 8.794,-4.37 15.174,-10.969 20.083,-19.561 11.421,-19.9260003 34.359,-28.4960003 56.326,-21.4470003 3.111,1.006 6.226995,2.585 8.774995,4.596 5.679,4.4430003 11.829,6.0100003 18.801,4.5680003 12.156,-2.5040003 21.913,2.066 29.517,11.021 15.325,17.989 20.063,38.48 12.698,61.216 -4.72,14.547 -9.568,29.042004 -14.842,43.386004 -1.82,4.985 -4.821,9.602 -7.747,14.071 -1.713,2.631 -2.474,4.955 -1.315,7.896 0.534,1.298 0.997,2.663 1.179,4.05 0.417,3.107 -1.286,5.178 -4.132,5.324 -2.869,0.148 -4.682,-1.674 -4.62,-4.858 0.068,-1.954 0.404,-3.904 0.66,-6.41 z"
     id="path6"
     inkscape:connector-curvature="0" /><g
     id="g38"
     transform="translate(-222.93241,-323.09664)"><g
       id="g10"><path
         style="fill:#2f9bb0"
         d="m 286.87,328.717 c 2.027,0 4.054,0 6.081,0 7.217,2.923 14.458,5.789 21.643,8.791 4.264,1.781 8.617,2.663 13.199,1.885 2.989,-0.506 5.944,-1.214 8.92,-1.796 9.141,-1.784 15.115,2.635 15.921,11.96 0.457,5.271 2.965,8.981 7.651,11.284 2.063,1.014 4.252,1.807 6.218,2.98 2.988,1.784 6.059,3.544 8.684,5.793 4.793,4.106 6.528,9.574 5.17,15.705 -0.829,3.742 -2.199,7.39 -3.614,10.965 -1.159,2.93 -1.733,5.813 -0.912,8.879 2.208,8.241 4.445,16.476 6.671,24.712 0,1.842 0,3.685 0,5.527 -2.125,5.997 -6.167,10.392 -11.697,13.318 -3.477,1.839 -7.078,3.634 -10.837,4.708 -8.682,2.482 -15.952,6.985 -21.836,13.777 -5.284,6.102 -10.848,11.784 -19.199,13.523 -2.396,0 -4.79,0 -7.187,0 -9.529,-1.748 -17.325,-6.574 -24.517,-12.934 -2.362,-2.087 -6.084,-2.889 -9.331,-3.655 -3.283,-0.774 -6.807,-0.496 -10.124,-1.175 -8.771,-1.793 -13.218,-6.1 -13.546,-14.494 -0.219,-5.56 -2.582,-10.275 -6.406,-14.297 -6.643,-6.987 -12.68,-14.348 -14.57,-24.2 0,-2.396 0,-4.792 0,-7.187 1.122,-7.548 4.724,-13.848 9.856,-19.334 10.124,-10.821 18.132,-22.877 22.709,-37.131 2.63,-8.191 8.684,-13.246 16.621,-16.165 1.456,-0.534 2.953,-0.962 4.432,-1.439 z"
         id="path8"
         inkscape:connector-curvature="0" /></g><g
       id="g16"><path
         style="fill:#2f9bb0"
         d="m 307.875,464.934 c -33.352,0 -60.485,-27.134 -60.485,-60.486 0,-33.352 27.133,-60.485 60.485,-60.485 33.352,0 60.484,27.133 60.484,60.485 0,33.352 -27.132,60.486 -60.484,60.486 z"
         id="path12"
         inkscape:connector-curvature="0" /><path
         style="fill:#20566b"
         d="m 307.875,346.462 c 32.023,0 57.984,25.961 57.984,57.985 0,32.024 -25.961,57.986 -57.984,57.986 -32.024,0 -57.985,-25.962 -57.985,-57.986 0,-32.024 25.961,-57.985 57.985,-57.985 m 0,-5 c -34.73,0 -62.985,28.255 -62.985,62.985 0,34.73 28.255,62.986 62.985,62.986 34.729,0 62.984,-28.256 62.984,-62.986 0,-34.73 -28.255,-62.985 -62.984,-62.985 z"
         id="path14"
         inkscape:connector-curvature="0" /></g><g
       id="g22"><path
         style="fill:#40b3ce"
         d="m 308.261,458.848 c -29.936,0 -54.29,-24.354 -54.29,-54.29 0,-29.936 24.354,-54.291 54.29,-54.291 29.937,0 54.292,24.355 54.292,54.291 0,29.935 -24.356,54.29 -54.292,54.29 z"
         id="path18"
         inkscape:connector-curvature="0" /><path
         style="fill:#20566b"
         d="m 308.261,352.267 c 28.88,0 52.292,23.412 52.292,52.291 0,28.879 -23.412,52.29 -52.292,52.29 -28.879,0 -52.29,-23.411 -52.29,-52.29 0,-28.88 23.411,-52.291 52.29,-52.291 m 0,-4 c -31.039,0 -56.29,25.252 -56.29,56.291 0,31.038 25.251,56.29 56.29,56.29 31.039,0 56.292,-25.252 56.292,-56.29 0,-31.039 -25.253,-56.291 -56.292,-56.291 z"
         id="path20"
         inkscape:connector-curvature="0" /></g><g
       id="g36"><g
         id="g28"><path
           style="fill:#ffffff"
           d="m 281.032,436.495 v -11.874 h 7.945 V 384.43 h -7.945 v -11.784 h 34.072 c 7.61,0 13.243,1.356 16.897,4.066 3.654,2.71 5.479,6.562 5.479,11.555 0,1.949 -0.153,3.637 -0.456,5.068 -0.305,1.431 -0.792,2.711 -1.463,3.837 -0.67,1.127 -1.583,2.115 -2.737,2.969 -1.158,0.853 -3.915,1.614 -5.619,2.282 1.645,0.488 4.521,1.143 5.982,1.964 1.461,0.821 2.741,1.873 3.837,3.151 1.096,1.279 1.963,2.786 2.603,4.522 0.64,1.735 0.959,3.699 0.959,5.891 0,6.455 -1.933,11.159 -5.801,14.112 -3.867,2.953 -10.215,4.431 -19.045,4.431 h -34.708 z m 24.206,-51.791 v 13.702 h 5.572 c 2.433,0 4.078,-0.624 4.931,-1.872 0.854,-1.249 1.281,-2.969 1.281,-5.162 0,-2.131 -0.564,-3.774 -1.691,-4.932 -1.127,-1.157 -2.572,-1.736 -4.339,-1.736 z m 7.307,39.917 c 1.946,0 3.668,-0.687 5.161,-2.056 1.492,-1.372 2.238,-3.304 2.238,-5.801 0,-2.313 -0.641,-4.231 -1.919,-5.754 -1.279,-1.521 -3.197,-2.284 -5.754,-2.284 h -7.034 v 15.895 z"
           id="path24"
           inkscape:connector-curvature="0" /><rect
           x="298.30499"
           y="378.521"
           style="fill:#ffffff;stroke:#ffffff;stroke-width:0.5;stroke-miterlimit:10"
           width="26.475"
           height="51.355"
           id="rect26" /></g><g
         id="g34"><rect
           x="294.72601"
           y="398.75101"
           style="fill:#40b3ce;stroke:#40b3ce;stroke-miterlimit:10"
           width="30.25"
           height="9.3780003"
           id="rect30" /><rect
           x="294.66501"
           y="398.771"
           transform="matrix(0.0022,1,-1,0.0022,712.5697,92.7857)"
           style="fill:#40b3ce;stroke:#40b3ce;stroke-miterlimit:10"
           width="30.25"
           height="9.3789997"
           id="rect32" /></g></g></g></svg>