<?xml version="1.0" encoding="UTF-8" standalone="no"?>
<!-- Generator: Adobe Illustrator 16.0.0, SVG Export Plug-In . SVG Version: 6.00 Build 0)  -->

<svg
   xmlns:dc="http://purl.org/dc/elements/1.1/"
   xmlns:cc="http://creativecommons.org/ns#"
   xmlns:rdf="http://www.w3.org/1999/02/22-rdf-syntax-ns#"
   xmlns:svg="http://www.w3.org/2000/svg"
   xmlns="http://www.w3.org/2000/svg"
   xmlns:sodipodi="http://sodipodi.sourceforge.net/DTD/sodipodi-0.dtd"
   xmlns:inkscape="http://www.inkscape.org/namespaces/inkscape"
   version="1.1"
   id="FINAL"
   x="0px"
   y="0px"
   width="337.47"
   height="48.230999"
   viewBox="0 0 337.47 48.230999"
   xml:space="preserve"
   sodipodi:docname="loading_logo.svg"
   inkscape:version="0.92.2 (5c3e80d, 2017-08-06)"><metadata
     id="metadata49"><rdf:RDF><cc:Work
         rdf:about=""><dc:format>image/svg+xml</dc:format><dc:type
           rdf:resource="http://purl.org/dc/dcmitype/StillImage" /><dc:title></dc:title></cc:Work></rdf:RDF></metadata><defs
     id="defs47" /><sodipodi:namedview
     pagecolor="#ffffff"
     bordercolor="#666666"
     borderopacity="1"
     objecttolerance="10"
     gridtolerance="10"
     guidetolerance="10"
     inkscape:pageopacity="0"
     inkscape:pageshadow="2"
     inkscape:window-width="1600"
     inkscape:window-height="837"
     id="namedview45"
     showgrid="false"
     fit-margin-top="0"
     fit-margin-left="0"
     fit-margin-right="0"
     fit-margin-bottom="0"
     inkscape:zoom="0.2979798"
     inkscape:cx="-193.70175"
     inkscape:cy="-13.206"
     inkscape:window-x="-8"
     inkscape:window-y="-8"
     inkscape:window-maximized="1"
     inkscape:current-layer="FINAL" /><g
     id="g18"
     transform="translate(-140.617,-334.563)"><rect
       x="128.83"
       y="325.509"
       style="display:none;fill:#5cc3f0"
       width="358.763"
       height="66.948997"
       id="rect2" /><g
       id="g16"><g
         id="g8"><path
           style="fill:#40b4cf"
           d="m 140.617,382.794 v -8.97 h 6.002 v -30.36 h -6.002 v -8.901 h 25.737 c 5.75,0 10.005,1.024 12.766,3.071 2.76,2.047 4.14,4.957 4.14,8.729 0,1.473 -0.116,2.749 -0.345,3.829 -0.23,1.081 -0.599,2.048 -1.104,2.898 -0.507,0.852 -1.196,1.599 -2.069,2.242 -0.875,0.645 -2.957,1.22 -4.244,1.725 1.242,0.369 3.416,0.863 4.52,1.483 1.104,0.621 2.07,1.415 2.898,2.381 0.828,0.966 1.482,2.104 1.966,3.416 0.483,1.311 0.725,2.794 0.725,4.45 0,4.876 -1.461,8.43 -4.382,10.66 -2.922,2.231 -7.717,3.347 -14.387,3.347 z m 18.285,-39.123 v 10.35 h 4.21 c 1.838,0 3.08,-0.471 3.725,-1.414 0.645,-0.942 0.967,-2.242 0.967,-3.898 0,-1.609 -0.426,-2.852 -1.277,-3.726 -0.851,-0.874 -1.943,-1.312 -3.277,-1.312 z m 5.521,30.153 c 1.471,0 2.771,-0.518 3.898,-1.553 1.127,-1.035 1.69,-2.495 1.69,-4.382 0,-1.747 -0.483,-3.196 -1.449,-4.347 -0.966,-1.149 -2.415,-1.725 -4.347,-1.725 h -5.313 v 12.006 h 5.521 z"
           id="path4"
           inkscape:connector-curvature="0" /><rect
           x="153.666"
           y="339"
           style="fill:#40b4cf;stroke:#40b4cf;stroke-width:0.5;stroke-miterlimit:10"
           width="20"
           height="38.793999"
           id="rect6" /></g><g
         id="g14"><rect
           x="150.96201"
           y="354.28201"
           style="fill:#ffffff;stroke:#ffffff;stroke-miterlimit:10"
           width="22.851999"
           height="7.085"
           id="rect10" /><rect
           x="150.916"
           y="354.297"
           transform="matrix(0.0022,1,-1,0.0022,519.8195,194.7037)"
           style="fill:#ffffff;stroke:#ffffff;stroke-miterlimit:10"
           width="22.851"
           height="7.085"
           id="rect12" /></g></g></g><g
     id="g42"
     transform="translate(-140.617,-334.563)"><path
       style="fill:#000000;stroke:#000000;stroke-miterlimit:10"
       d="m 221.838,362.111 c 0,1.28 -0.255,2.325 -0.765,3.135 -0.51,0.811 -1.176,1.44 -1.995,1.891 -0.82,0.449 -1.766,0.76 -2.835,0.93 -1.07,0.17 -2.155,0.255 -3.255,0.255 h -16.95 c -0.92,0 -1.38,-0.47 -1.38,-1.41 v -18.96 c 0,-0.92 0.46,-1.38 1.38,-1.38 h 16.71 c 1.3,0 2.49,0.09 3.57,0.27 1.08,0.181 2.01,0.506 2.79,0.976 0.779,0.47 1.385,1.105 1.814,1.905 0.429,0.8 0.646,1.83 0.646,3.09 0,1.061 -0.195,1.979 -0.585,2.76 -0.391,0.78 -1.115,1.43 -2.176,1.95 0.92,0.34 1.655,0.854 2.205,1.545 0.55,0.688 0.826,1.703 0.826,3.043 z m -4.08,0.12 c 0,-0.58 -0.06,-1.07 -0.18,-1.47 -0.12,-0.4 -0.36,-0.73 -0.72,-0.99 -0.36,-0.26 -0.865,-0.445 -1.516,-0.556 -0.649,-0.109 -1.495,-0.164 -2.535,-0.164 h -14.159 v 6.029 h 14.58 c 0.979,0 1.77,-0.055 2.369,-0.165 0.601,-0.109 1.061,-0.279 1.381,-0.51 0.319,-0.229 0.529,-0.525 0.63,-0.885 0.1,-0.359 0.15,-0.789 0.15,-1.289 z m -19.02,-6.45 h 14.279 c 0.9,0 1.65,-0.04 2.25,-0.12 0.601,-0.079 1.085,-0.225 1.455,-0.435 0.37,-0.21 0.631,-0.511 0.78,-0.9 0.15,-0.39 0.226,-0.904 0.226,-1.545 0,-0.52 -0.061,-0.97 -0.181,-1.35 -0.12,-0.38 -0.345,-0.69 -0.675,-0.931 -0.33,-0.239 -0.795,-0.414 -1.395,-0.524 -0.601,-0.11 -1.371,-0.165 -2.311,-0.165 h -14.43 v 5.97 z"
       id="path20"
       inkscape:connector-curvature="0" /><path
       style="fill:#000000;stroke:#000000;stroke-miterlimit:10"
       d="m 233.328,368.321 c -5.92,0 -8.88,-1.86 -8.88,-5.58 v -14.88 c 0,-0.58 0.17,-0.96 0.51,-1.14 0.34,-0.181 0.83,-0.271 1.47,-0.271 0.66,0 1.16,0.09 1.5,0.271 0.34,0.18 0.511,0.56 0.511,1.14 v 14.88 c 0,0.641 0.395,1.19 1.185,1.65 0.79,0.46 2.065,0.689 3.825,0.689 h 14.7 c 0.479,0 0.79,0.135 0.93,0.405 0.14,0.27 0.21,0.665 0.21,1.185 0,0.54 -0.07,0.95 -0.21,1.23 -0.14,0.28 -0.45,0.42 -0.93,0.42 h -14.821 z"
       id="path22"
       inkscape:connector-curvature="0" /><path
       style="fill:#000000;stroke:#000000;stroke-miterlimit:10"
       d="m 259.067,368.321 c -5.92,0 -8.88,-1.86 -8.88,-5.58 v -10.59 c 0,-3.72 2.96,-5.58 8.88,-5.58 h 8.73 c 5.92,0 8.88,1.86 8.88,5.58 v 10.59 c 0,3.72 -2.96,5.58 -8.88,5.58 z m 8.611,-3.24 c 1.76,0 3.04,-0.229 3.84,-0.689 0.8,-0.46 1.2,-1.01 1.2,-1.65 v -10.59 c 0,-0.66 -0.4,-1.215 -1.2,-1.665 -0.8,-0.45 -2.08,-0.675 -3.84,-0.675 h -8.49 c -1.76,0 -3.04,0.225 -3.84,0.675 -0.8,0.45 -1.2,1.005 -1.2,1.665 v 10.59 c 0,0.641 0.4,1.19 1.2,1.65 0.8,0.46 2.08,0.689 3.84,0.689 z"
       id="path24"
       inkscape:connector-curvature="0" /><path
       style="fill:#000000;stroke:#000000;stroke-miterlimit:10"
       d="m 289.037,368.321 c -5.92,0 -8.88,-1.86 -8.88,-5.58 v -10.59 c 0,-3.72 2.96,-5.58 8.88,-5.58 h 14.7 c 0.48,0 0.795,0.135 0.945,0.405 0.15,0.27 0.225,0.675 0.225,1.215 0,0.54 -0.074,0.945 -0.225,1.215 -0.15,0.271 -0.465,0.405 -0.945,0.405 h -14.58 c -1.76,0 -3.04,0.225 -3.84,0.675 -0.8,0.45 -1.2,1.005 -1.2,1.665 v 10.59 c 0,0.641 0.4,1.19 1.2,1.65 0.8,0.46 2.08,0.689 3.84,0.689 h 14.61 c 0.48,0 0.79,0.135 0.93,0.405 0.14,0.27 0.21,0.675 0.21,1.215 0,0.521 -0.07,0.92 -0.21,1.2 -0.14,0.28 -0.449,0.42 -0.93,0.42 h -14.73 z"
       id="path26"
       inkscape:connector-curvature="0" /><path
       style="fill:#000000;stroke:#000000;stroke-miterlimit:10"
       d="m 311.298,355.392 15.81,-8.521 c 0.28,-0.159 0.585,-0.27 0.915,-0.33 0.33,-0.06 0.835,-0.09 1.515,-0.09 0.44,0 0.82,0.115 1.141,0.345 0.319,0.23 0.479,0.575 0.479,1.035 0,0.601 -0.32,1.061 -0.96,1.38 l -16.02,8.07 16.56,8.4 c 0.64,0.319 0.96,0.779 0.96,1.38 0,0.46 -0.16,0.805 -0.479,1.035 -0.32,0.229 -0.7,0.345 -1.141,0.345 -0.68,0 -1.185,-0.03 -1.515,-0.09 -0.33,-0.061 -0.635,-0.17 -0.915,-0.33 l -16.35,-8.67 v 7.68 c 0,0.58 -0.171,0.96 -0.511,1.14 -0.34,0.181 -0.84,0.271 -1.5,0.271 -0.64,0 -1.13,-0.09 -1.47,-0.271 -0.34,-0.18 -0.51,-0.56 -0.51,-1.14 v -19.17 c 0,-0.58 0.17,-0.96 0.51,-1.14 0.34,-0.181 0.83,-0.271 1.47,-0.271 0.66,0 1.16,0.09 1.5,0.271 0.34,0.18 0.511,0.56 0.511,1.14 z"
       id="path28"
       inkscape:connector-curvature="0" /><path
       style="fill:#000000;stroke:#000000;stroke-miterlimit:10"
       d="m 341.928,368.321 c -5.92,0 -8.88,-1.86 -8.88,-5.58 v -10.59 c 0,-3.72 2.96,-5.58 8.88,-5.58 h 14.7 c 0.48,0 0.795,0.135 0.945,0.405 0.15,0.27 0.225,0.675 0.225,1.215 0,0.54 -0.074,0.945 -0.225,1.215 -0.15,0.271 -0.465,0.405 -0.945,0.405 h -14.58 c -1.76,0 -3.04,0.225 -3.84,0.675 -0.8,0.45 -1.2,1.005 -1.2,1.665 v 10.59 c 0,0.641 0.4,1.19 1.2,1.65 0.8,0.46 2.08,0.689 3.84,0.689 h 14.61 c 0.48,0 0.79,0.135 0.93,0.405 0.14,0.27 0.21,0.675 0.21,1.215 0,0.521 -0.07,0.92 -0.21,1.2 -0.14,0.28 -0.449,0.42 -0.93,0.42 h -14.73 z"
       id="path30"
       inkscape:connector-curvature="0" /><path
       style="fill:#000000;stroke:#000000;stroke-miterlimit:10"
       d="m 364.188,355.991 h 19.319 v -8.13 c 0,-0.58 0.17,-0.96 0.511,-1.14 0.34,-0.181 0.84,-0.271 1.5,-0.271 0.64,0 1.129,0.09 1.47,0.271 0.34,0.18 0.51,0.56 0.51,1.14 v 19.17 c 0,0.58 -0.17,0.96 -0.51,1.14 -0.341,0.181 -0.83,0.271 -1.47,0.271 -0.66,0 -1.16,-0.09 -1.5,-0.271 -0.341,-0.18 -0.511,-0.56 -0.511,-1.14 v -7.8 h -19.319 v 7.8 c 0,0.58 -0.171,0.96 -0.511,1.14 -0.34,0.181 -0.84,0.271 -1.5,0.271 -0.64,0 -1.13,-0.09 -1.47,-0.271 -0.34,-0.18 -0.51,-0.56 -0.51,-1.14 v -19.17 c 0,-0.58 0.17,-0.96 0.51,-1.14 0.34,-0.181 0.83,-0.271 1.47,-0.271 0.66,0 1.16,0.09 1.5,0.271 0.34,0.18 0.511,0.56 0.511,1.14 z"
       id="path32"
       inkscape:connector-curvature="0" /><path
       style="fill:#000000;stroke:#000000;stroke-miterlimit:10"
       d="m 404.147,346.481 c 0.58,0 1.055,0.09 1.425,0.27 0.37,0.181 0.675,0.44 0.915,0.78 l 13.08,18.66 c 0.14,0.22 0.21,0.45 0.21,0.689 0,0.221 -0.065,0.431 -0.195,0.631 -0.13,0.2 -0.3,0.37 -0.51,0.51 -0.21,0.14 -0.445,0.25 -0.705,0.33 -0.26,0.079 -0.521,0.12 -0.78,0.12 -0.28,0 -0.53,-0.045 -0.75,-0.136 -0.22,-0.09 -0.41,-0.244 -0.569,-0.465 l -3.54,-5.16 h -16.681 l -3.33,5.16 c -0.14,0.221 -0.325,0.375 -0.555,0.465 -0.23,0.091 -0.476,0.136 -0.735,0.136 -0.239,0 -0.49,-0.041 -0.75,-0.12 -0.26,-0.08 -0.494,-0.195 -0.704,-0.346 -0.21,-0.149 -0.381,-0.319 -0.511,-0.51 -0.13,-0.189 -0.194,-0.405 -0.194,-0.645 0,-0.2 0.069,-0.42 0.21,-0.66 l 12.3,-18.66 c 0.22,-0.34 0.52,-0.6 0.899,-0.78 0.38,-0.179 0.87,-0.269 1.47,-0.269 z m -6.03,12.991 h 12.39 l -6.359,-9.33 z"
       id="path34"
       inkscape:connector-curvature="0" /><path
       style="fill:#000000;stroke:#000000;stroke-miterlimit:10"
       d="m 426.737,367.031 c 0,0.58 -0.171,0.96 -0.511,1.14 -0.34,0.181 -0.84,0.271 -1.5,0.271 -0.64,0 -1.13,-0.09 -1.47,-0.271 -0.34,-0.18 -0.51,-0.56 -0.51,-1.14 v -19.17 c 0,-0.58 0.17,-0.96 0.51,-1.14 0.34,-0.181 0.83,-0.271 1.47,-0.271 0.66,0 1.16,0.09 1.5,0.271 0.34,0.18 0.511,0.56 0.511,1.14 z"
       id="path36"
       inkscape:connector-curvature="0" /><path
       style="fill:#000000;stroke:#000000;stroke-miterlimit:10"
       d="m 456.977,368.441 c -0.28,0 -0.51,-0.011 -0.689,-0.03 -0.181,-0.02 -0.351,-0.07 -0.51,-0.149 -0.161,-0.08 -0.33,-0.186 -0.511,-0.315 -0.18,-0.13 -0.4,-0.305 -0.66,-0.525 l -18.659,-15.72 v 15.33 c 0,0.58 -0.171,0.96 -0.511,1.14 -0.34,0.181 -0.84,0.271 -1.5,0.271 -0.64,0 -1.13,-0.09 -1.47,-0.271 -0.34,-0.18 -0.51,-0.56 -0.51,-1.14 v -19.17 c 0,-0.56 0.16,-0.935 0.479,-1.125 0.32,-0.189 0.79,-0.285 1.41,-0.285 0.66,0 1.18,0.085 1.561,0.255 0.379,0.17 0.8,0.455 1.26,0.855 l 18.39,15.66 v -15.36 c 0,-0.58 0.17,-0.96 0.51,-1.14 0.34,-0.181 0.83,-0.271 1.471,-0.271 0.66,0 1.159,0.09 1.5,0.271 0.34,0.18 0.51,0.56 0.51,1.14 v 19.17 c 0,0.58 -0.17,0.96 -0.51,1.14 -0.342,0.18 -0.861,0.269 -1.561,0.269 z"
       id="path38"
       inkscape:connector-curvature="0" /><path
       style="fill:#000000;stroke:#000000;stroke-miterlimit:10"
       d="m 471.317,359.201 v 4.98 c 0,0.52 -0.146,0.859 -0.436,1.02 -0.29,0.161 -0.725,0.24 -1.305,0.24 -0.58,0 -1.011,-0.08 -1.29,-0.24 -0.28,-0.16 -0.42,-0.5 -0.42,-1.02 v -4.98 h -5.01 c -0.521,0 -0.86,-0.145 -1.021,-0.435 -0.161,-0.29 -0.24,-0.725 -0.24,-1.306 0,-0.579 0.08,-1.01 0.24,-1.29 0.16,-0.279 0.5,-0.42 1.021,-0.42 h 5.01 v -5.04 c 0,-0.52 0.14,-0.859 0.42,-1.02 0.279,-0.16 0.71,-0.24 1.29,-0.24 0.58,0 1.015,0.08 1.305,0.24 0.29,0.16 0.436,0.5 0.436,1.02 v 5.04 h 5.01 c 0.52,0 0.859,0.141 1.02,0.42 0.16,0.28 0.24,0.711 0.24,1.29 0,0.581 -0.08,1.016 -0.24,1.306 -0.16,0.29 -0.5,0.435 -1.02,0.435 z"
       id="path40"
       inkscape:connector-curvature="0" /></g></svg>