<?xml version="1.0" encoding="UTF-8" standalone="no"?>
<!-- Generator: Adobe Illustrator 16.0.0, SVG Export Plug-In . SVG Version: 6.00 Build 0)  -->

<svg
   xmlns:dc="http://purl.org/dc/elements/1.1/"
   xmlns:cc="http://creativecommons.org/ns#"
   xmlns:rdf="http://www.w3.org/1999/02/22-rdf-syntax-ns#"
   xmlns:svg="http://www.w3.org/2000/svg"
   xmlns="http://www.w3.org/2000/svg"
   xmlns:sodipodi="http://sodipodi.sourceforge.net/DTD/sodipodi-0.dtd"
   xmlns:inkscape="http://www.inkscape.org/namespaces/inkscape"
   version="1.1"
   id="svg868"
   sodipodi:docname="BLOCKChain_logo_new_SVG_white_outline.svg"
   inkscape:version="0.92.2 (5c3e80d, 2017-08-06)"
   x="0px"
   y="0px"
   width="600.34448"
   height="61.854256"
   viewBox="-5.675 -365.073 600.34448 61.854256"
   xml:space="preserve"><metadata
     id="metadata20"><rdf:RDF><cc:Work
         rdf:about=""><dc:format>image/svg+xml</dc:format><dc:type
           rdf:resource="http://purl.org/dc/dcmitype/StillImage" /><dc:title></dc:title></cc:Work></rdf:RDF></metadata><defs
     id="defs18" /><sodipodi:namedview
     inkscape:cy="-165.33047"
     objecttolerance="10"
     inkscape:zoom="0.52946422"
     inkscape:cx="163.62317"
     bordercolor="#666666"
     gridtolerance="10"
     pagecolor="#ffffff"
     fit-margin-top="0"
     guidetolerance="10"
     fit-margin-left="0"
     borderopacity="1"
     showgrid="false"
     id="namedview870"
     inkscape:pageshadow="2"
     inkscape:pageopacity="0"
     inkscape:window-height="705"
     inkscape:window-width="1366"
     fit-margin-bottom="0"
     fit-margin-right="0"
     inkscape:current-layer="svg868"
     inkscape:window-x="1592"
     inkscape:window-y="-8"
     inkscape:window-maximized="1" /><g
     id="g15"
     transform="translate(-5.84,-242.01495)"><path
       id="B_1_"
       inkscape:connector-curvature="0"
       style="fill:none;stroke:#ffffff;stroke-width:3"
       d="m 40.659,-120.57 c 4.06,0.051 7.649,0.2 10.719,3.28 3.65,3.64 4.41,15.058 2.54,19.678 -0.851,2.119 -1.68,2.609 -3.26,4.039 1.42,1.45 2.3,2.149 3.159,4.09 3.061,6.929 2.92,21.497 -5.179,24.757 -3.939,1.6 -11.528,1.149 -15.978,1.149 H 1.665 v -56.993 z m -3.999,22.998 c 4.46,-0.091 7.889,-0.54 7.889,-6 0,-1.21 -0.229,-2.659 -0.909,-3.689 -1.84,-2.76 -6.07,-2.3 -8.979,-2.31 H 12.663 v 11.999 z m -2,22.997 c 2.021,0 5.96,0.14 7.709,-0.74 2.989,-1.51 3.18,-9.269 0.69,-11.238 -1.34,-1.061 -3.779,-0.99 -5.4,-1.021 H 12.663 v 12.999 z" /><path
       id="L_1_"
       inkscape:connector-curvature="0"
       style="fill:none;stroke:#ffffff;stroke-width:3"
       d="m 72.739,-120.57 0.25,32.356 c 0.051,3.749 0.156,7.771 3.031,10.708 1.753,2.123 3.678,1.921 6.678,2.024 l 22.953,-0.094 v 11.998 H 77.655 c -4.359,-0.06 -9.209,-0.59 -12.609,-3.649 -3.689,-3.319 -4.329,-8.679 -4.389,-13.349 v -39.995 h 12.082 z" /><path
       id="O_1_"
       inkscape:connector-curvature="0"
       style="fill:none;stroke:#ffffff;stroke-width:3"
       d="m 144.646,-120.57 c 4.64,0.061 9.259,0.5 12.568,4.22 3.45,3.88 3.419,9.899 3.43,14.778 0.01,8.359 2.02,28.797 -4.339,34.346 -4.08,3.56 -9.58,3.64 -14.658,3.649 -7.74,0.01 -23.138,1.62 -28.607,-4.22 -3.659,-3.919 -4.329,-12.548 -4.389,-17.777 -0.08,-7.149 -0.197,-27.307 2.588,-30.307 3.375,-4.625 7.51,-4.306 10.25,-4.689 z m -23.256,13.559 c -2.689,2.939 -1.76,17.008 -1.74,21.438 0.01,2.569 -0.22,6.31 1.74,8.259 2.619,2.63 14.309,1.75 18.258,1.74 2.6,-0.011 6.419,0.33 8.418,-1.6 1.5,-1.45 2.021,-4.4 2.291,-6.399 0.659,-4.81 0.989,-19.978 -2.291,-23.487 -3.369,-3.6 -16.588,-2.699 -21.416,-2.21 -1.951,0.449 -3.811,0.678 -5.26,2.259 z" /><path
       id="C_1_"
       inkscape:connector-curvature="0"
       style="fill:none;stroke:#ffffff;stroke-width:3"
       d="m 184.642,-63.577 c -4.799,-0.06 -10.119,-0.5 -13.608,-4.22 -3.659,-3.919 -4.329,-12.548 -4.39,-17.777 -0.109,-9.659 -2.22,-28.467 7.999,-33.426 3.51,-1.7 7.22,-1.56 10.999,-1.57 h 29.996 v 10.999 h -24.997 c -3.399,0.04 -7.858,0.21 -10.489,2.7 -2.499,2.369 -2.469,6.108 -2.509,9.299 -0.07,5.809 -1.58,17.777 4.109,20.977 2.159,1.21 5.449,1.021 7.89,1.021 h 25.996 v 11.998 h -30.996 z" /><path
       id="K_1_"
       inkscape:connector-curvature="0"
       style="fill:none;stroke:#ffffff;stroke-width:3"
       d="m 231.636,-120.57 v 25.997 l 16.088,-17.998 7.641,-7.999 h 14.267 l -24.997,27.997 c 5.141,4.781 21.729,23.31 25.997,28.996 h -13.974 l -8.054,-7.999 -16.968,-18.997 v 26.996 h -9.999 v -56.993 z" /><path
       id="C__x23_1_1_"
       inkscape:connector-curvature="0"
       style="fill:none;stroke:#ffffff;stroke-width:3"
       d="m 289.628,-63.577 c -4.689,-0.06 -11.018,-0.67 -14.348,-4.39 -3.279,-3.669 -3.63,-9.929 -3.65,-14.607 -0.039,-9.319 -2.459,-30.517 6.1,-35.906 3.54,-2.229 7.889,-2.079 11.898,-2.09 h 30.996 v 10.999 h -25.996 c -3.31,0.04 -7.109,0.1 -9.689,2.51 -3.568,3.329 -2.399,17.428 -2.309,22.487 0.049,2.319 0.01,4.799 1.6,6.689 2.27,2.689 6.219,2.299 9.398,2.31 h 26.996 v 11.998 z" /><path
       id="H_1_"
       inkscape:connector-curvature="0"
       style="fill:none;stroke:#ffffff;stroke-width:3"
       d="m 336.622,-120.57 v 22.998 h 31.996 v -22.998 h 10.998 v 56.993 h -10.998 v -22.997 h -31.996 v 22.997 h -10.998 v -56.993 z" /><path
       id="A_1_"
       sodipodi:nodetypes="ccccccccccccccc"
       inkscape:connector-curvature="0"
       style="fill:none;stroke:#ffffff;stroke-width:3"
       d="m 405.364,-110.571 c 2.176,-4.218 4.365,-9.615 9.492,-10.806 4.521,-1.017 8.523,2.328 10.428,6.15 2.525,4.929 4.643,10.058 7.207,14.973 6.039,12.226 12.078,24.451 18.117,36.677 h -12.994 c -2.613,-3.663 -4.602,-7.735 -7.213,-11.398 -14.41,-0.059 -14.348,-0.062 -29.146,0 -2.098,3.47 -2.918,7.929 -5.016,11.398 h -13.623 c 7.582,-15.664 15.166,-31.329 22.748,-46.994 z m 1.25,23.997 h 19.996 c -3.332,-6.999 -6.664,-13.998 -9.998,-20.997 -3.332,6.999 -6.666,13.998 -9.998,20.997 z" /><path
       id="I_1_"
       inkscape:connector-curvature="0"
       style="fill:none;stroke:#ffffff;stroke-width:3"
       d="m 464.606,-120.57 v 56.993 h -10.998 v -56.993 z" /><path
       id="N_1_"
       inkscape:connector-curvature="0"
       style="fill:none;stroke:#ffffff;stroke-width:3"
       d="m 471.606,-113.57 c 0.09,-4.64 1.109,-8.899 6.998,-7.67 4.48,0.94 8.898,7.22 11.748,10.669 l 24.248,28.996 v -38.995 h 9.998 v 48.994 c -0.07,4.649 -0.73,9.989 -6.998,8.669 -4.439,-0.939 -8.939,-7.269 -11.869,-10.669 l -24.127,-28.996 v 38.995 h -9.998 z" /><polygon
       style="fill:none;stroke:#ffffff;stroke-width:3"
       points="541.528,-98.212 541.528,-85.717 563.554,-85.525 563.479,-63.222 576.624,-63.106 576.624,-85.767 598.784,-85.716 598.985,-98.129 576.618,-98.129 576.499,-120.562 563.354,-120.562 563.558,-98.212 "
       id="polygon13" /></g></svg>