<?xml version="1.0" encoding="UTF-8" standalone="no"?>
<svg
   xmlns:dc="http://purl.org/dc/elements/1.1/"
   xmlns:cc="http://creativecommons.org/ns#"
   xmlns:rdf="http://www.w3.org/1999/02/22-rdf-syntax-ns#"
   xmlns:svg="http://www.w3.org/2000/svg"
   xmlns="http://www.w3.org/2000/svg"
   xmlns:sodipodi="http://sodipodi.sourceforge.net/DTD/sodipodi-0.dtd"
   xmlns:inkscape="http://www.inkscape.org/namespaces/inkscape"
   width="8.0932674in"
   height="0.85834509in"
   viewBox="0 0 582.78809 61.808572"
   version="1.1"
   id="svg13"
   sodipodi:docname="logo_text.svg"
   inkscape:version="0.92.2 (5c3e80d, 2017-08-06)">
  <metadata
     id="metadata19">
    <rdf:RDF>
      <cc:Work
         rdf:about="">
        <dc:format>image/svg+xml</dc:format>
        <dc:type
           rdf:resource="http://purl.org/dc/dcmitype/StillImage" />
        <dc:title></dc:title>
      </cc:Work>
    </rdf:RDF>
  </metadata>
  <defs
     id="defs17" />
  <sodipodi:namedview
     pagecolor="#ffffff"
     bordercolor="#666666"
     borderopacity="1"
     objecttolerance="10"
     gridtolerance="10"
     guidetolerance="10"
     inkscape:pageopacity="0"
     inkscape:pageshadow="2"
     inkscape:window-width="1600"
     inkscape:window-height="837"
     id="namedview15"
     showgrid="false"
     fit-margin-top="0"
     fit-margin-left="0"
     fit-margin-right="0"
     fit-margin-bottom="0"
     inkscape:zoom="1.4975509"
     inkscape:cx="392.84383"
     inkscape:cy="52.323001"
     inkscape:window-x="-8"
     inkscape:window-y="-8"
     inkscape:window-maximized="1"
     inkscape:current-layer="svg13" />
  <path
     id="B"
     d="m 40.5,2.4353693 c 4.06,0.05 7.65,0.2 10.72,3.28 3.65,3.64 4.41,15.0599997 2.54,19.6799997 -0.85,2.12 -1.68,2.61 -3.26,4.04 1.42,1.45 2.3,2.15 3.16,4.09 3.06,6.93 2.92,21.5 -5.18,24.76 -3.94,1.6 -11.53,1.15 -15.98,1.15 0,0 -31,0 -31,0 0,0 0,-56.9999997 0,-56.9999997 0,0 39,0 39,0 z m -4,22.9999997 c 4.46,-0.09 7.89,-0.54 7.89,-6 0,-1.21 -0.23,-2.66 -0.91,-3.69 -1.84,-2.76 -6.07,-2.3 -8.98,-2.31 0,0 -22,0 -22,0 0,0 0,12 0,12 0,0 24,0 24,0 z m -2,23 c 2.02,0 5.96,0.14 7.71,-0.74 2.99,-1.51 3.18,-9.27 0.69,-11.24 -1.34,-1.06 -3.78,-0.99 -5.4,-1.02 0,0 -25,0 -25,0 0,0 0,13 0,13 0,0 22,0 22,0 z"
     style="fill:none;stroke:#faffff;stroke-width:3;stroke-opacity:1"
     inkscape:connector-curvature="0" />
  <path
     id="L"
     d="m 70.5,2.4353693 c 0,0 0,30.9999997 0,30.9999997 0.05,3.75 0.33,9.67 3.43,12.26 2.45,2.05 6.54,1.74 9.57,1.74 0,0 22,0 22,0 0,0 0,12 0,12 0,0 -28,0 -28,0 -4.36,-0.06 -9.21,-0.59 -12.61,-3.65 -3.69,-3.32 -4.33,-8.68 -4.39,-13.35 0,0 0,-39.9999997 0,-39.9999997 0,0 10,0 10,0 z"
     style="fill:none;stroke:#faffff;stroke-width:3;stroke-opacity:1"
     inkscape:connector-curvature="0" />
  <path
     id="O"
     d="m 144.5,2.4353693 c 4.64,0.06 9.26,0.5 12.57,4.22 3.45,3.8799997 3.42,9.8999997 3.43,14.7799997 0.01,8.36 2.02,28.8 -4.34,34.35 -4.08,3.56 -9.58,3.64 -14.66,3.65 -7.74,0.01 -23.14,1.62 -28.61,-4.22 -3.66,-3.92 -4.33,-12.55 -4.39,-17.78 -0.08,-7.15 -0.79,-24.41 3.51,-29.8899997 2.17,-2.77 4.31,-3.56 7.49,-4.58 0,0 25,-0.53 25,-0.53 z M 121.24,15.995369 c -2.69,2.94 -1.76,17.01 -1.74,21.44 0.01,2.57 -0.22,6.31 1.74,8.26 2.62,2.63 14.31,1.75 18.26,1.74 2.6,-0.01 6.42,0.33 8.42,-1.6 1.5,-1.45 2.02,-4.4 2.29,-6.4 0.66,-4.81 0.99,-19.98 -2.29,-23.49 -3.37,-3.6 -16.59,-2.7 -21.42,-2.21 -1.95,0.45 -3.81,0.68 -5.26,2.26 z"
     style="fill:none;stroke:#faffff;stroke-width:3;stroke-opacity:1"
     inkscape:connector-curvature="0" />
  <path
     id="C"
     d="m 184.5,59.435369 c -4.8,-0.06 -10.12,-0.5 -13.61,-4.22 -3.66,-3.92 -4.33,-12.55 -4.39,-17.78 -0.11,-9.66 -2.22,-28.4699997 8,-33.4299997 3.51,-1.7 7.22,-1.56 11,-1.57 0,0 30,0 30,0 0,0 0,10.9999997 0,10.9999997 0,0 -25,0 -25,0 -3.4,0.04 -7.86,0.21 -10.49,2.7 -2.5,2.37 -2.47,6.11 -2.51,9.3 -0.07,5.81 -1.58,17.78 4.11,20.98 2.16,1.21 5.45,1.02 7.89,1.02 0,0 26,0 26,0 0,0 0,12 0,12 0,0 -31,0 -31,0 z"
     style="fill:none;stroke:#faffff;stroke-width:3;stroke-opacity:1"
     inkscape:connector-curvature="0" />
  <path
     id="K"
     d="m 231.5,2.4353693 c 0,0 0,25.9999997 0,25.9999997 0,0 16.09,-18 16.09,-18 0,0 8.19,-7.4299997 8.19,-7.4299997 0,0 13.72,-0.57 13.72,-0.57 0,0 -25,27.9999997 -25,27.9999997 5.26,4.1 22.69,23.34 26,29 0,0 -13.96,-0.6 -13.96,-0.6 0,0 -8.07,-7.4 -8.07,-7.4 0,0 -16.97,-19 -16.97,-19 0,0 0,27 0,27 0,0 -10,0 -10,0 0,0 0,-56.9999997 0,-56.9999997 0,0 10,0 10,0 z"
     style="fill:none;stroke:#faffff;stroke-width:3;stroke-opacity:1"
     inkscape:connector-curvature="0" />
  <path
     id="C #1"
     d="m 289.5,59.435369 c -4.69,-0.06 -11.02,-0.67 -14.35,-4.39 -3.28,-3.67 -3.63,-9.93 -3.65,-14.61 -0.04,-9.32 -2.46,-30.5199997 6.1,-35.9099997 3.54,-2.23 7.89,-2.08 11.9,-2.09 0,0 31,0 31,0 0,0 0,10.9999997 0,10.9999997 0,0 -26,0 -26,0 -3.31,0.04 -7.11,0.1 -9.69,2.51 -3.57,3.33 -2.4,17.43 -2.31,22.49 0.05,2.32 0.01,4.8 1.6,6.69 2.27,2.69 6.22,2.3 9.4,2.31 0,0 27,0 27,0 0,0 0,12 0,12 0,0 -31,0 -31,0 z"
     style="fill:none;stroke:#faffff;stroke-width:3;stroke-opacity:1"
     inkscape:connector-curvature="0" />
  <path
     id="H"
     d="m 336.5,2.4353693 c 0,0 0,22.9999997 0,22.9999997 0,0 32,0 32,0 0,0 0,-22.9999997 0,-22.9999997 0,0 11,0 11,0 0,0 0,56.9999997 0,56.9999997 0,0 -11,0 -11,0 0,0 0,-23 0,-23 0,0 -32,0 -32,0 0,0 0,23 0,23 0,0 -11,0 -11,0 0,0 0,-56.9999997 0,-56.9999997 0,0 11,0 11,0 z"
     style="fill:none;stroke:#faffff;stroke-width:3;stroke-opacity:1"
     inkscape:connector-curvature="0" />
  <path
     id="A"
     d="m 405.25,12.435369 c 2.69,-5.3599997 5.82,-12.4399997 13.24,-10.6799997 5.87,1.39 8.36,9.7799997 10.77,14.6799997 0,0 21.24,43 21.24,43 0,0 -12.37,-0.99 -12.37,-0.99 0,0 -7.84,-10.99 -7.84,-10.99 0,0 -20.79,-1.02 -20.79,-1.02 0,0 -8.36,1.6 -8.36,1.6 0,0 -6.29,10.41 -6.29,10.41 0,0 -12.35,0.99 -12.35,0.99 0,0 22.75,-47 22.75,-47 z m 1.25,24 c 0,0 20,0 20,0 0,0 -10,-21 -10,-21 0,0 -10,21 -10,21 z"
     style="fill:none;stroke:#faffff;stroke-width:3;stroke-opacity:1"
     inkscape:connector-curvature="0" />
  <path
     id="I"
     d="m 464.5,2.4353693 c 0,0 0,56.9999997 0,56.9999997 0,0 -11,0 -11,0 0,0 0,-56.9999997 0,-56.9999997 0,0 11,0 11,0 z"
     style="fill:none;stroke:#faffff;stroke-width:3;stroke-opacity:1"
     inkscape:connector-curvature="0" />
  <path
     id="N"
     d="m 471.5,9.4353693 c 0.09,-4.64 1.11,-8.9 7,-7.67 4.48,0.94 8.9,7.22 11.75,10.6699997 0,0 24.25,29 24.25,29 0,0 0,-38.9999997 0,-38.9999997 0,0 10,0 10,0 0,0 0,48.9999997 0,48.9999997 -0.07,4.65 -0.73,9.99 -7,8.67 -4.44,-0.94 -8.94,-7.27 -11.87,-10.67 0,0 -24.13,-29 -24.13,-29 0,0 0,39 0,39 0,0 -10,0 -10,0 0,0 0,-49.9999997 0,-49.9999997 z"
     style="fill:none;stroke:#faffff;stroke-width:3;stroke-opacity:1"
     inkscape:connector-curvature="0" />
  <path
     id="+"
     d="m 563.72849,7.2888373 c 0,0 0,17.4468887 0,17.4468887 0,0 17.55946,0 17.55946,0 0,0 0,10.46813 0,10.46813 0,0 -17.55946,0 -17.55946,0 0,0 0,17.446889 0,17.446889 0,0 -10.243,0 -10.243,0 0,0 0,-17.446889 0,-17.446889 0,0 -17.55944,0 -17.55944,0 0,0 0,-10.46813 0,-10.46813 0,0 17.55944,0 17.55944,0 0,0 0,-17.4468887 0,-17.4468887 0,0 10.243,0 10.243,0 z"
     inkscape:connector-curvature="0"
     style="fill:none;stroke:#faffff;stroke-width:3.00037503;stroke-miterlimit:4;stroke-dasharray:none;stroke-opacity:1" />
</svg>
