<?xml version="1.0" encoding="UTF-8" standalone="no"?>
<!-- Generator: Adobe Illustrator 16.0.0, SVG Export Plug-In . SVG Version: 6.00 Build 0)  -->

<svg
   xmlns:dc="http://purl.org/dc/elements/1.1/"
   xmlns:cc="http://creativecommons.org/ns#"
   xmlns:rdf="http://www.w3.org/1999/02/22-rdf-syntax-ns#"
   xmlns:svg="http://www.w3.org/2000/svg"
   xmlns="http://www.w3.org/2000/svg"
   xmlns:sodipodi="http://sodipodi.sourceforge.net/DTD/sodipodi-0.dtd"
   xmlns:inkscape="http://www.inkscape.org/namespaces/inkscape"
   version="1.1"
   x="0px"
   y="0px"
   width="213.3756"
   height="158.31549"
   viewBox="0 0 213.3756 158.31549"
   xml:space="preserve"
   id="svg100"
   sodipodi:docname="OpenSource_Icono01_svg.svg"
   inkscape:version="0.92.2 (5c3e80d, 2017-08-06)"><metadata
     id="metadata106"><rdf:RDF><cc:Work
         rdf:about=""><dc:format>image/svg+xml</dc:format><dc:type
           rdf:resource="http://purl.org/dc/dcmitype/StillImage" /><dc:title></dc:title></cc:Work></rdf:RDF></metadata><defs
     id="defs104" /><sodipodi:namedview
     pagecolor="#ffffff"
     bordercolor="#666666"
     borderopacity="1"
     objecttolerance="10"
     gridtolerance="10"
     guidetolerance="10"
     inkscape:pageopacity="0"
     inkscape:pageshadow="2"
     inkscape:window-width="1600"
     inkscape:window-height="837"
     id="namedview102"
     showgrid="false"
     fit-margin-top="0"
     fit-margin-left="0"
     fit-margin-right="0"
     fit-margin-bottom="0"
     inkscape:zoom="0.84281414"
     inkscape:cx="272.41452"
     inkscape:cy="-8.1222689"
     inkscape:window-x="-8"
     inkscape:window-y="-8"
     inkscape:window-maximized="1"
     inkscape:current-layer="svg100" /><g
     id="_x32_"
     style="opacity:0.76000001"
     transform="translate(-195.75,-318.50002)"><g
       id="g27"><path
         style="fill:#ffffff;stroke:#40b3ce;stroke-width:0.5;stroke-miterlimit:10"
         d="m 222.526,451.246 -0.433,3.059 c 0,0 6.614,5.862 6.973,5.862 0.358,0 7.787,-4.83 7.787,-4.83 l -0.616,-4.83 -7.171,0.901 z"
         id="path7"
         inkscape:connector-curvature="0" /><polygon
         style="fill:#ffffff;stroke:#2f9bb0;stroke-width:0.25;stroke-miterlimit:10"
         points="229.279,474.058 246.749,458.09 236.649,453.74 229.066,460.167 222.093,453.74 210.896,458.887 "
         id="polygon9" /><polygon
         style="fill:#40b3ce"
         points="226.878,464.991 225.289,471.376 228.779,474.622 232.9,470.665 231.133,464.991 232.13,463.27 229.319,460.167 225.791,462.998 "
         id="polygon11" /><g
         id="g17"><path
           style="fill:#20566b"
           d="m 196.311,475.917 0.686,-5.984 c 0.61,-5.321 1.13,-6.597 1.282,-6.869 l 13.727,-3.987 17.064,15.282 17.269,-15.809 8.187,1.302 c -1.483,1.199 -4.072,3.874 -4.412,8.123 -0.327,4.089 -0.165,6.791 0.497,8.18 z"
           id="path13"
           inkscape:connector-curvature="0" /><path
           style="fill:#20566b"
           d="m 246.499,459.082 6.903,1.098 c -1.536,1.469 -3.489,4.034 -3.786,7.755 -0.323,4.033 -0.125,6.353 0.276,7.717 l -53.021,-0.231 0.623,-5.43 c 0.515,-4.491 0.958,-6.025 1.146,-6.509 l 13.24,-3.848 16.52,14.795 0.674,0.604 0.668,-0.611 16.757,-15.34 m -0.32,-1.063 -17.113,15.665 -16.933,-15.165 -14.133,4.107 c 0,0 -0.683,0.126 -1.5,7.25 -0.75,6.539 -0.75,6.539 -0.75,6.539 l 55.909,0.244 c -0.699,-0.381 -1.57,-2.093 -1.047,-8.645 0.454,-5.681 5.194,-8.466 5.194,-8.466 z m 5.48,18.64 c 0.134,0.072 0.261,0.097 0.372,0.097 0.217,0 0.367,-0.094 0.367,-0.094 z"
           id="path15"
           inkscape:connector-curvature="0" /></g><path
         style="fill:#2f9bb0;stroke:#2f9bb0;stroke-width:0.5;stroke-miterlimit:10"
         d="m 240.158,414.917 3.667,0.95 c 0,0 -1.358,-6.384 -13.311,-6.928 -11.953,-0.542 -14.261,7.743 -15.755,11.684 -1.495,3.938 -0.156,11.155 0.679,17.384 1.092,8.149 7.606,13.718 7.606,13.718 0,0 2.832,2.716 5.898,2.58 3.065,-0.136 4.924,-1.145 7.548,-4.073 3.61,-4.034 5.116,-6.127 6.384,-11.274 1.27,-5.147 1.766,-5.025 2.309,-9.372 0.543,-4.345 0.038,-9.243 -1.223,-10.593 -1.261,-1.35 -3.802,-4.076 -3.802,-4.076 z"
         id="path19"
         inkscape:connector-curvature="0" /><path
         style="fill:#ffffff;stroke:#ffffff;stroke-width:0.5;stroke-miterlimit:10"
         d="m 232.235,446.156 c 0,0 -1.548,0.633 -2.604,0.633 -1.055,0 -2.376,-0.633 -2.376,-0.633 0,0 -3.079,2.354 -3.259,3.124 -0.182,0.77 3.831,1.132 5.763,1.222 1.933,0.09 5.156,-0.896 5.202,-1.713 0.044,-0.813 -2.726,-2.633 -2.726,-2.633 z"
         id="path21"
         inkscape:connector-curvature="0" /><path
         style="fill:#ffffff;stroke:#ffffff;stroke-width:0.5;stroke-miterlimit:10"
         d="m 239.478,420.894 c 0,0 -4.301,1.516 -7.198,1.29 -2.898,-0.226 -7.47,-1.382 -10.458,-2.104 -2.989,-0.726 -3.984,0.904 -4.89,2.579 -0.906,1.677 0,10.595 0,10.595 0,0 1.806,14.11 4.074,14.125 1.448,0.01 0.497,-2.034 3.463,-3.192 2.099,-0.818 4.384,0.611 5.288,0.68 0.905,0.068 2.629,-1.529 3.88,-1.221 3.327,0.813 1.358,4.395 4.346,2.512 2.988,-1.883 3.871,-10.707 4.414,-13.922 0.545,-3.215 -2.919,-11.342 -2.919,-11.342 z"
         id="path23"
         inkscape:connector-curvature="0" /><path
         style="fill:#ffffff;stroke:#40b3ce;stroke-width:0.25;stroke-miterlimit:10"
         d="m 215.033,434.71 c 0,0 -1.973,0.516 -1.769,2.55 0.204,2.038 0.888,2.785 1.769,3.6 0.88,0.815 1.295,0.564 1.295,0.564 z"
         id="path25"
         inkscape:connector-curvature="0" /></g><path
       style="fill:#ffffff;stroke:#40b3ce;stroke-width:0.25;stroke-miterlimit:10"
       d="m 243.752,434.334 c 0,0 1.971,0.516 1.768,2.55 -0.204,2.038 -0.888,2.785 -1.768,3.6 -0.881,0.815 -1.296,0.564 -1.296,0.564 z"
       id="path29"
       inkscape:connector-curvature="0" /></g><g
     id="Layer_2"
     style="opacity:0.76000001"
     transform="translate(-195.75,-318.50002)" /><g
     id="_x33_"
     style="opacity:0.76000001"
     transform="translate(-195.75,-318.50002)" /><g
     id="_x34_"
     style="opacity:0.75"
     transform="translate(-195.75,-318.50002)"><g
       id="g40"><polygon
         style="fill:#2f9bb0;stroke:#2f9bb0;stroke-width:0.5;stroke-miterlimit:10"
         points="308.062,438.946 316.948,453.532 316.333,457.222 310.212,458.779 308.062,460.647 324.66,470.801 341.594,461.408 331.803,456.695 331.868,452.526 341.095,440.362 338.095,426.237 331.364,418.491 316.095,421.237 "
         id="polygon34" /><path
         style="fill:#40b3ce;stroke:#40b3ce;stroke-miterlimit:10"
         d="m 298.053,476.31 c 0,0 0.306,-13.781 2.541,-16.495 l 10.458,-1.012 c 0,0 7.876,6.684 13.521,6.789 5.645,0.105 10.891,-6.789 10.891,-6.789 0,0 12.151,3.066 14.613,4.726 1.423,0.959 1.423,12.209 1.423,12.209 z"
         id="path36"
         inkscape:connector-curvature="0" /><path
         style="fill:#20566b;stroke:#20566b;stroke-miterlimit:10"
         d="m 315.734,420.302 c 0,0 -2.854,-0.922 -4.052,0 -1.198,0.921 -0.736,3.447 -0.736,3.447 0,0 -2.577,0.235 -3.177,1.525 -0.599,1.289 0,3.684 0,3.684 0,0 -1.245,0.46 -1.06,2.394 0.184,1.935 1.06,2.579 1.06,2.579 0,0 -1.06,1.198 -1.06,3.316 0,2.116 1.06,3.314 1.06,3.314 0,0 -1.245,1.012 -1.06,2.394 0.184,1.381 2.572,2.395 2.572,2.395 0,0 -1.65,0.736 -1.513,2.026 0.138,1.289 1.513,2.21 1.513,2.21 0,0 -1.558,2.579 -1.513,1.289 0.045,-1.289 1.513,1.29 1.513,1.29 0,0 -2.85,-0.553 -2.572,2.025 0.275,2.578 3.13,2.025 3.13,2.025 0,0 0.094,1.196 2.396,0 2.302,-1.195 2.025,0 2.025,0 0,0 1.659,1.196 3.5,0 1.841,-1.195 1.841,-3.684 1.841,-3.684 0,0 -7.643,-3.864 -6.998,-15.191 0.501,-8.828 6.078,-13.592 6.078,-13.592 l 11.418,5.024 c 0,0 5.617,2.761 6.631,4.42 1.013,1.661 -1.288,2.21 -1.288,2.21 0,0 1.021,-0.411 1.473,1.845 0.368,1.842 -1.289,1.84 -1.289,1.84 0,0 1.381,0.182 1.104,1.657 -0.277,1.475 -1.688,1.834 -1.688,1.834 l -0.115,2.666 -5.933,6.551 c 0,0 -0.188,4.115 1.105,4.42 1.293,0.305 0.62,-1.521 1.842,-1.657 1.697,-0.19 1.71,1.233 1.71,1.233 0,0 -0.052,-0.96 2.159,0.424 2.21,1.384 0.92,0.922 0.92,0.922 0,0 -0.092,0.46 2.947,0 3.038,-0.46 0,-1.29 0,-1.29 l 3.868,-0.089 c 0,0 1.288,-1.658 0.552,-2.858 -1.011,-1.648 -1.011,-1.648 -1.011,-1.648 1.237,-5.163 -0.071,-2.45 -0.278,-5.163 -0.083,-1.089 -0.438,3.756 -0.312,-2.969 0,0 1.417,-3.291 0.497,-4.396 -2.265,-2.719 -0.368,-5.715 -0.368,-5.715 0,0 0.379,-2.182 -0.646,-2.757 -2.843,-1.601 -0.46,-3.688 -0.46,-3.688 0,0 -0.523,-1.645 -1.382,-2.814 -1.163,-1.587 -2.302,-2.158 -2.302,-2.158 l 0.185,-1.289 c 0,0 -0.87,-1.877 -1.935,-3.312 -0.856,-1.152 -2.763,-1.014 -2.763,-1.014 0,0 -0.991,-1.513 -2.9,-2.307 -2.852,-1.184 -1.966,-0.843 -6.217,-0.843 -2.408,0 -5.709,1.027 -7.183,2.134 -1.471,1.104 -1.288,5.341 -1.288,5.341 z"
         id="path38"
         inkscape:connector-curvature="0" /></g><g
       id="g60"><polygon
         style="fill:#40b3ce;stroke:#40b3ce;stroke-width:0.5;stroke-miterlimit:10"
         points="360.803,458.803 378.755,473.195 396.803,457.666 386.47,453.862 378.755,458.803 371.053,453.862 "
         id="polygon42" /><path
         style="fill:#ffffff;stroke:#ffffff;stroke-width:0.5;stroke-miterlimit:10"
         d="m 378.928,460.029 c 0,0 -4.042,3.25 -3.792,3.083 0.25,-0.167 1.5,1.667 1.5,1.667 0,0 -1.176,6.487 -1.084,6.572 0.092,0.085 2.751,3.429 2.751,3.429 l 4.083,-2.835 -1.583,-7.5 1.583,-1.5 z"
         id="path44"
         inkscape:connector-curvature="0" /><path
         style="fill:#2f9bb0;stroke:#2f9bb0;stroke-miterlimit:10"
         d="m 378.72,474.31 c 0,0 -17.139,-16.004 -17.167,-16.03 -0.369,-0.345 -3.486,0.771 -4.079,1.011 -2.336,0.944 -5.509,2.26 -7.518,3.74 0,0 1.25,1.833 1.5,6.583 0.21,3.987 0.167,6.25 0.167,6.25 l 56.933,0.446 c 0,0 0.706,-6.781 -2.586,-11.614 -3.292,-4.833 -8.542,-7.029 -8.542,-7.029 z"
         id="path46"
         inkscape:connector-curvature="0" /><polygon
         style="fill:#20566b;stroke:#20566b;stroke-width:0.5;stroke-miterlimit:10"
         points="378.928,459.529 387.513,454.246 385.97,453.388 385.303,450.279 379.199,452.362 371.553,450.945 370.886,455.362 "
         id="polygon48" /><path
         style="fill:#20566b;stroke:#20566b;stroke-width:0.5;stroke-miterlimit:10"
         d="m 363.852,440.862 c 0.562,0.438 1.188,0.125 1.312,0 0.124,-0.125 -0.656,-3.5 -0.656,-3.5 l -0.656,-3.25 c 0,0 -1.13,-0.542 -1.375,0 -0.245,0.542 -0.812,1.242 -0.375,3.402 0.437,2.16 1.187,2.911 1.75,3.348 z"
         id="path50"
         inkscape:connector-curvature="0" /><path
         style="fill:#2f9bb0;stroke:#2f9bb0;stroke-width:0.25;stroke-miterlimit:10"
         d="m 378.803,453.862 c -7.134,0.396 -13.625,-12.625 -12.938,-10.688 0.687,1.937 -2.042,-9.75 -2.042,-9.75 0,0 -1.155,0.125 -1.619,-1.688 -0.464,-1.813 0.599,-2.125 0.599,-2.125 0,0 -1,0 -1.25,-1.438 -0.25,-1.438 1.125,-1.625 1.125,-1.625 0,0 -1.938,-0.812 -1.875,-2.062 0.063,-1.25 1.401,-1.562 1.401,-1.562 0,0 -1.401,0.25 -1.401,-1.5 0,-1.75 1.401,-1 1.401,-1 0,0 -0.589,-0.742 -0.464,-1.934 0.125,-1.192 1.562,-1.129 1.562,-1.129 0,0 -0.875,-1.75 -0.625,-2.75 0.25,-1 1.5,-0.375 1.5,-0.375 0,0 -0.896,-1 -0.354,-2 0.542,-1 1.088,0 1.088,0 0,0 -0.046,-1.125 0.892,-1.812 0.938,-0.687 2,-0.013 2,-0.013 0,0 -0.812,-0.425 0.375,-1.237 1.187,-0.812 2.062,0 2.062,0 0,0 0.375,-0.688 1.062,-1.188 0.687,-0.5 1.312,0 1.312,0 0,0 0.062,-0.25 0.875,-0.688 0.813,-0.438 1.188,0.375 1.188,0.375 0,0 -0.375,-0.75 0.938,-1.125 1.313,-0.375 1.562,0.625 1.562,0.625 0,0 0.68,-0.875 1.59,-1.062 0.91,-0.187 0.91,0.812 0.91,0.812 0,0 1.25,-1.125 2.188,-0.812 0.938,0.313 1.25,1.375 1.25,1.375 0,0 0.535,-0.812 1.611,-0.438 1.076,0.374 0.826,1 0.826,1 0,0 1.375,-0.75 2.312,-0.312 0.937,0.438 0.375,1.25 0.375,1.25 0,0 1.125,-0.625 2,-0.062 0.875,0.563 0.5,1.5 0.5,1.5 0,0 0.484,-0.688 1.367,-0.188 0.883,0.5 0.518,1.938 0.518,1.938 0,0 0.99,-0.287 1.615,0.606 0.625,0.893 0,2.894 0,2.894 0,0 1.625,-0.125 2.062,1 0.437,1.125 -0.625,2.875 -0.438,2.875 0.187,0 0.75,0.25 1.188,1 0.438,0.75 -0.75,1.375 -0.75,1.375 0,0 0.625,1.25 0.75,2.062 0.125,0.812 -0.5,1.125 -0.5,1.125 0,0 0.875,1.375 0.875,2.125 0,0.75 -1.188,1.75 -1.188,1.75 0,0 1.148,1.432 0.625,1.875 -0.523,0.443 -1.438,1.188 -1.25,1.188 0.188,0 1.188,0.098 0.688,0.893 -0.5,0.795 -2.125,0.482 -2.125,0.482 0,0 -1.938,6.688 -3.062,9.75 -1.124,3.062 -5.177,10.293 -12.311,10.688 z"
         id="path52"
         inkscape:connector-curvature="0" /><path
         style="fill:#20566b;stroke:#20566b;stroke-width:0.5;stroke-miterlimit:10"
         d="m 379.199,446.081 c 0,0 -0.771,-0.781 -2.084,-0.594 -1.313,0.187 -2.259,0.685 -2.688,1.289 -0.601,0.846 -0.938,1.898 -0.938,1.898 0,0 3.438,2.125 6,2.062 2.562,-0.063 5.236,-2.332 5.236,-2.332 0,0 -0.793,-0.94 -1.254,-1.629 -0.422,-0.63 -0.826,-1.164 -1.92,-1.289 -1.099,-0.125 -2.352,0.595 -2.352,0.595 z"
         id="path54"
         inkscape:connector-curvature="0" /><path
         style="fill:#20566b;stroke:#20566b;stroke-width:0.5;stroke-miterlimit:10"
         d="m 369.886,419.109 c 0,0 4.517,3.062 10,2.667 5.483,-0.395 9.632,-0.83 9.632,-0.83 0,0 2.848,5.458 3.098,9.041 0.25,3.583 -4.562,16.455 -4.562,16.455 0,0 -2.583,-2 -4.5,-2.583 -1.917,-0.583 -4.354,0.333 -4.354,0.333 0,0 -3.563,-0.833 -5.146,-0.333 -1.583,0.5 -3.167,2.917 -3.167,2.917 -4.521,-5.289 -5.646,-11.715 -5.946,-16.807 -0.463,-7.816 4.945,-10.86 4.945,-10.86 z"
         id="path56"
         inkscape:connector-curvature="0" /><path
         style="fill:#20566b;stroke:#20566b;stroke-width:0.5;stroke-miterlimit:10"
         d="m 393.434,440.862 c -0.562,0.438 -1.188,0.125 -1.312,0 -0.124,-0.125 0.656,-3.5 0.656,-3.5 l 0.656,-3.25 c 0,0 1.13,-0.542 1.375,0 0.245,0.542 0.812,1.242 0.375,3.402 -0.437,2.16 -1.188,2.911 -1.75,3.348 z"
         id="path58"
         inkscape:connector-curvature="0" /></g><g
       id="g72"><path
         style="fill:#20566b"
         d="m 263.327,457.803 31.438,1.179 c 0,0 3.023,-24.359 2.111,-31.558 -0.912,-7.202 -3.743,-13.074 -8.063,-14.976 -4.32,-1.903 -10.945,-3.193 -16.127,-1.609 -5.185,1.584 -4.896,6.935 -4.896,6.935 0,0 -8.908,8.755 -7.632,16.921 1.273,8.167 3.169,23.108 3.169,23.108 z"
         id="path62"
         inkscape:connector-curvature="0" /><g
         id="g68"><path
           style="fill:#ffffff;stroke:#2f9bb0;stroke-width:0.5;stroke-miterlimit:10"
           d="m 304.094,476.553 c 0.767,-8.45 -5.482,-18.005 -10.49,-17.845 -3.999,0.129 -11.329,5.164 -15.735,5.002 -4.43,-0.162 -7.038,-3.366 -10.848,-4.729 -6.156,-2.203 -13.742,-0.104 -15.955,6.459 -0.387,1.146 -1.199,11.112 0,11.112 3.954,10e-4 53.028,10e-4 53.028,10e-4 z"
           id="path64"
           inkscape:connector-curvature="0" /><path
           style="fill:#ffffff;stroke:#2f9bb0;stroke-width:0.5;stroke-miterlimit:10"
           d="m 251.066,465.44 c -0.387,1.146 -1.586,10.531 -0.391,10.433"
           id="path66"
           inkscape:connector-curvature="0" /></g><path
         style="fill:#40b3ce"
         d="m 269.806,421.518 c -0.372,-0.262 -4.261,8.696 -4.49,9.683 -1.11,4.817 -0.923,10.166 0.554,14.883 1.152,3.676 5.807,4.85 5.807,4.85 l 0.241,3.284 -9.514,3.976 15.466,6.417 17.302,-5.628 -11.686,-3.489 -0.72,-4.265 c 0,0 2.442,-0.14 5.472,-5.246 2.306,-3.887 2.306,-5.345 2.306,-5.345 h 0.718 l -0.576,-9.413 c 0,0 -8.031,-0.664 -12.101,-3.527 -4.069,-2.865 -8.778,-6.18 -8.779,-6.18 z"
         id="path70"
         inkscape:connector-curvature="0" /></g></g><g
     id="Layer_6"
     transform="translate(-195.75,-318.50002)"><ellipse
       style="fill:#2f9bb0;stroke:#2f9bb0;stroke-miterlimit:10"
       cx="305.69199"
       cy="357.52802"
       rx="71.866997"
       ry="38.528"
       id="ellipse75" /><polyline
       style="fill:#2f9bb0;stroke:#2f9bb0;stroke-miterlimit:10"
       points="317.021,390 325.518,403.699 327.058,391.447  "
       id="polyline77" /><polyline
       style="fill:#2f9bb0;stroke:#2f9bb0;stroke-miterlimit:10"
       points="287.872,389.535 279.376,403.234 277.836,390.982     "
       id="polyline79" /><polyline
       style="fill:#2f9bb0;stroke:#2f9bb0;stroke-miterlimit:10"
       points="360.62,372.596 368.5,401.667 369.656,374.044  "
       id="polyline81" /><polyline
       style="fill:#2f9bb0;stroke:#2f9bb0;stroke-miterlimit:10"
       points="251.625,370.5 245.113,401.834 242.59,371.947  "
       id="polyline83" /><g
       id="g97"><g
         id="g89"><path
           style="fill:#ffffff"
           d="m 279.093,384.204 0.072,-10.437 6.984,0.048 0.243,-35.322 -6.984,-0.048 0.071,-10.356 29.943,0.205 c 6.692,0.047 11.636,1.272 14.83,3.677 3.196,2.403 4.776,5.8 4.747,10.188 -0.013,1.713 -0.156,3.198 -0.434,4.452 -0.273,1.257 -0.712,2.377 -1.306,3.364 -0.597,0.987 -1.405,1.851 -2.427,2.592 -1.024,0.743 -3.453,1.395 -4.952,1.973 1.439,0.44 3.969,1.033 5.246,1.762 1.278,0.732 2.398,1.663 3.354,2.794 0.957,1.129 1.709,2.459 2.26,3.99 0.552,1.528 0.817,3.256 0.806,5.182 -0.038,5.674 -1.767,9.797 -5.183,12.369 -3.416,2.572 -9.005,3.831 -16.765,3.777 z m 21.588,-45.372 -0.083,12.042 4.897,0.034 c 2.139,0.015 3.59,-0.522 4.348,-1.615 0.754,-1.092 1.141,-2.603 1.153,-4.528 0.014,-1.873 -0.473,-3.32 -1.458,-4.345 -0.981,-1.023 -2.248,-1.542 -3.8,-1.552 z m 6.181,35.126 c 1.71,0.012 3.228,-0.578 4.546,-1.775 1.323,-1.194 1.987,-2.889 2.003,-5.083 0.014,-2.034 -0.536,-3.723 -1.65,-5.069 -1.115,-1.346 -2.795,-2.026 -5.042,-2.042 l -6.184,-0.042 -0.096,13.967 z"
           id="path85"
           inkscape:connector-curvature="0" /><rect
           x="294.47198"
           y="333.43399"
           transform="matrix(1,0.0069,-0.0069,1,2.4651,-2.1049)"
           style="fill:#ffffff;stroke:#ffffff;stroke-width:0.5;stroke-miterlimit:10"
           width="23.268"
           height="45.137001"
           id="rect87" /></g><g
         id="g95"><rect
           x="291.32999"
           y="351.20599"
           transform="matrix(1,0.0069,-0.0069,1,2.4676,-2.1007)"
           style="fill:#40b3ce;stroke:#40b3ce;stroke-miterlimit:10"
           width="26.586"
           height="8.2419996"
           id="rect91" /><rect
           x="291.27499"
           y="351.22198"
           transform="matrix(-0.0046,1,-1,-0.0046,661.3201,52.4239)"
           style="fill:#40b3ce;stroke:#40b3ce;stroke-miterlimit:10"
           width="26.587999"
           height="8.2469997"
           id="rect93" /></g></g></g></svg>