<?xml version="1.0" encoding="iso-8859-1"?>
<!-- Generator: Adobe Illustrator 19.0.0, SVG Export Plug-In . SVG Version: 6.00 Build 0)  -->
<svg version="1.1" id="Layer_1" xmlns="http://www.w3.org/2000/svg" xmlns:xlink="http://www.w3.org/1999/xlink" x="0px" y="0px"
	 viewBox="0 0 512 512" style="enable-background:new 0 0 512 512;" xml:space="preserve">
<path style="fill:#808080;" d="M475.88,463.386h-15.588c-2.767,0-5.01-2.244-5.01-5.01c0-2.767,2.244-5.01,5.01-5.01h15.588
	c2.767,0,5.01,2.244,5.01,5.01C480.891,461.143,478.648,463.386,475.88,463.386z"/>
<polygon style="fill:#F95428;" points="244.031,179.573 244.031,216.94 135.059,213.766 119.582,213.321 87.872,199.915 
	123.012,183.08 138.489,182.635 "/>
<polygon style="fill:#E54728;" points="121.208,199.915 135.059,213.766 119.582,213.321 87.872,199.915 123.012,183.08 
	138.489,182.635 "/>
<path style="fill:#999999;" d="M224.033,82.036v0.011L123.012,183.08l-16.835,16.835l-0.757-0.757
	c-7.794-7.794-29.116-1.125-39.037-3.875L207.788,53.878C215.349,61.438,213.89,78.017,224.033,82.036z"/>
<g>
	<path style="fill:#CCCCCC;" d="M207.788,53.878L66.383,195.284c-20.754-5.768-31.978-12.448-48.301,3.875L179.619,37.622
		C183.638,47.776,200.217,46.318,207.788,53.878z"/>
	<polygon style="fill:#CCCCCC;" points="272.924,178.738 302.154,197.181 272.935,217.775 272.924,217.775 244.031,216.94 
		244.031,216.806 244.031,179.573 	"/>
</g>
<path style="fill:#F7B239;" d="M400.657,197.377l9.921-4.788c0,0-48.401,82.116-137.642,25.186l-0.011-39.037l9.665-6.068
	c20.231-12.704,46.809-7.883,61.283,11.112c8.974,11.769,22.692,18.182,36.743,18.182
	C387.385,201.964,394.232,200.472,400.657,197.377z"/>
<rect x="358.87" y="431.454" style="fill:#2197D8;" width="27.335" height="53.834"/>
<path style="fill:#F7B239;" d="M368.946,286.496l22.079-22.079l22.09-22.09l22.09-22.079l27.858-27.858L512,241.324L321.871,431.453
	l-35.752,35.752c12.058-12.058-17.166-19.483-17.166-35.294s5.22-15.98-6.839-28.038l18.738-29.282l21.834-21.834l22.09-22.079
	l22.079-22.09L368.946,286.496z"/>
<path style="fill:#2BA5F7;" d="M436.721,431.453c14.864,0,26.912,12.047,26.912,26.923c0,7.427-3.006,14.163-7.883,19.029
	c-4.866,4.877-11.602,7.883-19.029,7.883h-23.193v-53.834L436.721,431.453L436.721,431.453z"/>
<rect x="131.662" y="0.283" transform="matrix(-0.7071 -0.7072 0.7072 -0.7071 147.593 308.9382)" style="fill:#808080;" width="12.248" height="247.23"/>
<rect x="386.205" y="431.454" style="fill:#2197D8;" width="27.324" height="53.834"/>
<path style="fill:#2BA5F7;" d="M358.87,431.453v53.834H245.378v-0.056v-0.011c14.809-0.701,1.231-42.602,12.544-53.915l63.949,0.147
	H358.87z"/>
<path style="fill:#F95428;" d="M286.118,379.868c12.058,12.058,18.093,27.858,18.093,43.669s-6.035,31.61-18.093,43.669
	c-11.312,11.312-25.932,17.314-40.74,18.015c-16.768,0.791-33.793-5.211-46.597-18.015L18.082,286.496
	C6.024,274.437,0,258.638,0,242.827s6.024-31.61,18.082-43.669c16.323-16.323,39.493-21.589,60.248-15.822
	c9.921,2.75,19.296,8.028,27.09,15.822l0.757,0.757l13.406,13.406L280.852,374.59L286.118,379.868z"/>
<g>
	<path style="fill:#C93A27;" d="M242.45,463.576c-10.697,0-20.753-4.164-28.313-11.726L75.547,313.262
		c-2.392-2.392-2.392-6.269,0-8.66c2.391-2.392,6.271-2.391,8.659,0L222.795,443.19c5.249,5.248,12.228,8.138,19.653,8.138
		c7.423,0,14.408-2.892,19.668-8.141c10.836-10.836,10.836-28.474-0.003-39.314c-2.392-2.392-2.392-6.269,0-8.66
		c2.391-2.392,6.271-2.391,8.659,0c15.615,15.616,15.615,41.023,0,56.638C263.199,459.413,253.142,463.576,242.45,463.576z"/>
	<path style="fill:#C93A27;" d="M221.383,360.606c-1.567,0-3.134-0.598-4.33-1.794L81.404,223.174
		c-5.241-5.25-12.22-8.138-19.653-8.138s-14.412,2.889-19.649,8.135c-10.844,10.844-10.844,28.482-0.004,39.321
		c2.392,2.392,2.392,6.269,0,8.66c-2.389,2.392-6.27,2.392-8.659,0c-15.615-15.615-15.615-41.023,0-56.638
		c7.546-7.56,17.603-11.726,28.313-11.726s20.767,4.165,28.318,11.729l135.644,135.635c2.392,2.392,2.392,6.269,0.001,8.66
		C224.519,360.008,222.95,360.606,221.383,360.606z"/>
	<path style="fill:#C93A27;" d="M244.031,225.157c-4.613,0-8.351-3.739-8.351-8.351v-37.233c0-4.612,3.738-8.351,8.351-8.351
		c4.613,0,8.351,3.739,8.351,8.351v37.233C252.381,221.418,248.644,225.157,244.031,225.157z"/>
</g>
<g>
	
		<rect x="432.271" y="222.371" transform="matrix(-0.7074 -0.7068 0.7068 -0.7074 594.6092 700.9101)" style="fill:#B27214;" width="20.22" height="10.021"/>
	
		<rect x="388.056" y="266.557" transform="matrix(-0.7071 -0.7071 0.7071 -0.7071 487.6945 745.144)" style="fill:#B27214;" width="20.231" height="10.021"/>
	
		<rect x="410.167" y="244.455" transform="matrix(-0.7071 -0.7071 0.7071 -0.7071 541.0681 723.048)" style="fill:#B27214;" width="20.231" height="10.02"/>
	
		<rect x="365.996" y="288.636" transform="matrix(-0.7071 -0.7071 0.7071 -0.7071 434.4224 767.2358)" style="fill:#B27214;" width="20.231" height="10.02"/>
	
		<rect x="321.816" y="332.816" transform="matrix(-0.7074 -0.7068 0.7068 -0.7074 327.9652 811.418)" style="fill:#B27214;" width="20.231" height="10.021"/>
	
		<rect x="343.885" y="310.727" transform="matrix(-0.7071 -0.7071 0.7071 -0.7071 381.0566 789.3127)" style="fill:#B27214;" width="20.231" height="10.021"/>
	
		<rect x="299.714" y="354.896" transform="matrix(-0.7071 -0.7071 0.7071 -0.7071 274.4189 833.4814)" style="fill:#B27214;" width="20.231" height="10.021"/>
</g>
<g>
	<rect x="407.961" y="431.454" style="fill:#F7B239;" width="11.134" height="53.834"/>
	<rect x="380.637" y="431.454" style="fill:#F7B239;" width="11.134" height="53.834"/>
	<rect x="353.303" y="431.454" style="fill:#F7B239;" width="11.134" height="53.834"/>
</g>
<path style="fill:#F2F2F2;" d="M229.155,56.082l-5.122,25.954c-10.143-4.019-19.24-10.043-26.8-17.603
	c-7.571-7.56-13.595-16.657-17.614-26.811l25.954-5.111h0.011c1.091,5.645,3.83,11.012,8.195,15.376
	C218.143,52.252,223.521,54.98,229.155,56.082z"/>
<path style="fill:#F95428;" d="M234.956,26.71l-5.801,29.372c-5.634-1.102-11.012-3.83-15.376-8.195s-7.104-9.731-8.195-15.376
	L234.956,26.71z"/>
<g>
</g>
<g>
</g>
<g>
</g>
<g>
</g>
<g>
</g>
<g>
</g>
<g>
</g>
<g>
</g>
<g>
</g>
<g>
</g>
<g>
</g>
<g>
</g>
<g>
</g>
<g>
</g>
<g>
</g>
</svg>
