<?xml version="1.0" encoding="UTF-8" standalone="no"?>
<!-- Generator: Adobe Illustrator 16.0.0, SVG Export Plug-In . SVG Version: 6.00 Build 0)  -->

<svg
   xmlns:dc="http://purl.org/dc/elements/1.1/"
   xmlns:cc="http://creativecommons.org/ns#"
   xmlns:rdf="http://www.w3.org/1999/02/22-rdf-syntax-ns#"
   xmlns:svg="http://www.w3.org/2000/svg"
   xmlns="http://www.w3.org/2000/svg"
   xmlns:xlink="http://www.w3.org/1999/xlink"
   xmlns:sodipodi="http://sodipodi.sourceforge.net/DTD/sodipodi-0.dtd"
   xmlns:inkscape="http://www.inkscape.org/namespaces/inkscape"
   version="1.1"
   id="Layer_2"
   x="0px"
   y="0px"
   width="125.88892"
   height="161.0677"
   viewBox="0 0 125.88892 161.0677"
   xml:space="preserve"
   sodipodi:docname="whitepaper-icon_svg.svg"
   inkscape:version="0.92.2 (5c3e80d, 2017-08-06)"><metadata
     id="metadata575"><rdf:RDF><cc:Work
         rdf:about=""><dc:format>image/svg+xml</dc:format><dc:type
           rdf:resource="http://purl.org/dc/dcmitype/StillImage" /><dc:title></dc:title></cc:Work></rdf:RDF></metadata><defs
     id="defs573" /><sodipodi:namedview
     pagecolor="#ffffff"
     bordercolor="#666666"
     borderopacity="1"
     objecttolerance="10"
     gridtolerance="10"
     guidetolerance="10"
     inkscape:pageopacity="0"
     inkscape:pageshadow="2"
     inkscape:window-width="1600"
     inkscape:window-height="837"
     id="namedview571"
     showgrid="false"
     fit-margin-top="0"
     fit-margin-left="0"
     fit-margin-right="0"
     fit-margin-bottom="0"
     inkscape:zoom="0.5959596"
     inkscape:cx="52.781245"
     inkscape:cy="143.59202"
     inkscape:window-x="-8"
     inkscape:window-y="-8"
     inkscape:window-maximized="1"
     inkscape:current-layer="Layer_2" /><g
     id="g60"
     transform="translate(-280.48999,-275.1043)"><g
       id="g4"><path
         style="fill:#ffffff;stroke:#ffffff;stroke-width:0.75;stroke-miterlimit:10"
         d="m 379.984,275.655 v 26.503 h 26.014 c 0,0 0.221,-2.489 -1.779,-4.624 -1.564,-1.668 -1.77,-1.429 -8.693,-8.694 0,0 -10.205,-10.915 -11.855,-11.729 -2.065,-1.017 -0.274,-0.112 -3.687,-1.456 z"
         id="path2"
         inkscape:connector-curvature="0" /></g><rect
       x="280.996"
       y="275.677"
       style="fill:#ffffff;stroke:#20566b;stroke-width:0.5;stroke-miterlimit:10"
       width="125"
       height="160"
       id="rect6" /><polygon
       style="fill:#ffffff;stroke:#20566b;stroke-width:0.5;stroke-miterlimit:10"
       points="280.996,275.68 374.83,275.68 389.496,291.347 405.996,307.015 405.996,435.681 280.996,435.681 "
       id="polygon8" /><polygon
       style="display:none;fill:#20566b"
       points="405.996,307.01 373.996,275.676 373.996,307.01 "
       id="polygon10" /><g
       style="display:none"
       id="g56"><g
         style="display:inline"
         id="g30"><rect
           x="299.742"
           y="346.104"
           style="fill:#5cc2ef"
           width="96.153"
           height="17.941999"
           id="rect12" /><g
           id="g28"><g
             id="g18"><path
               style="fill:#ffffff"
               d="m 302.901,361.457 v -2.403 h 1.609 v -8.137 h -1.609 v -2.385 h 6.898 c 1.541,0 2.682,0.273 3.422,0.822 0.739,0.549 1.109,1.328 1.109,2.339 0,0.395 -0.031,0.736 -0.094,1.026 -0.061,0.29 -0.16,0.549 -0.295,0.776 -0.137,0.229 -0.32,0.43 -0.555,0.602 -0.234,0.173 -0.793,0.327 -1.138,0.462 0.333,0.1 0.915,0.231 1.212,0.397 0.295,0.167 0.555,0.379 0.775,0.639 0.223,0.259 0.398,0.563 0.527,0.915 0.13,0.352 0.194,0.749 0.194,1.193 0,1.307 -0.392,2.259 -1.175,2.856 -0.782,0.598 -2.068,0.896 -3.855,0.896 h -7.025 z m 4.9,-10.484 v 2.774 h 1.129 c 0.492,0 0.826,-0.128 0.998,-0.381 0.174,-0.252 0.26,-0.601 0.26,-1.044 0,-0.432 -0.115,-0.764 -0.343,-0.999 -0.228,-0.233 -0.521,-0.351 -0.878,-0.351 h -1.166 z m 1.48,8.081 c 0.395,0 0.742,-0.138 1.045,-0.416 0.302,-0.277 0.453,-0.669 0.453,-1.174 0,-0.47 -0.131,-0.857 -0.389,-1.166 -0.26,-0.309 -0.647,-0.462 -1.165,-0.462 H 307.8 v 3.218 z"
               id="path14"
               inkscape:connector-curvature="0" /><rect
               x="306.39801"
               y="349.72101"
               style="fill:#ffffff;stroke:#ffffff;stroke-width:0.5;stroke-miterlimit:10"
               width="5.3590002"
               height="10.396"
               id="rect16" /></g><g
             id="g24"><rect
               x="305.67401"
               y="353.815"
               style="fill:#40b3ce;stroke:#40b3ce;stroke-miterlimit:10"
               width="6.125"
               height="1.899"
               id="rect20" /><rect
               x="305.66101"
               y="353.82001"
               transform="matrix(0.0022,1,-1,0.0022,662.803,45.2556)"
               style="fill:#40b3ce;stroke:#40b3ce;stroke-miterlimit:10"
               width="6.1240001"
               height="1.899"
               id="rect22" /></g><image
             sodipodi:absref="C:\Users\Scott\Downloads\B2D3ED88BA13622.png"
             xlink:href="B2D3ED88BA13622.png"
             id="image26"
             transform="matrix(0.1312,0,0,0.1312,316.8115,344.9805)"
             height="163"
             width="576"
             style="display:none;overflow:visible" /></g></g><g
         style="display:inline"
         id="g54"><path
           style="fill:#ffffff;stroke:#ffffff;stroke-width:0.25;stroke-miterlimit:10"
           d="m 324.669,355.915 c 0,0.343 -0.068,0.623 -0.205,0.84 -0.136,0.217 -0.315,0.386 -0.534,0.507 -0.22,0.12 -0.474,0.203 -0.76,0.249 -0.287,0.045 -0.578,0.068 -0.873,0.068 h -4.543 c -0.246,0 -0.369,-0.126 -0.369,-0.378 v -5.082 c 0,-0.246 0.123,-0.369 0.369,-0.369 h 4.479 c 0.35,0 0.668,0.023 0.957,0.071 0.289,0.049 0.539,0.137 0.748,0.262 0.209,0.126 0.371,0.296 0.486,0.51 0.115,0.216 0.173,0.491 0.173,0.829 0,0.284 -0.052,0.531 -0.157,0.74 -0.104,0.209 -0.299,0.383 -0.582,0.522 0.246,0.092 0.443,0.229 0.591,0.414 0.147,0.185 0.22,0.458 0.22,0.817 z m -1.094,0.032 c 0,-0.156 -0.016,-0.287 -0.048,-0.396 -0.032,-0.106 -0.097,-0.194 -0.193,-0.265 -0.096,-0.069 -0.231,-0.119 -0.405,-0.149 -0.175,-0.028 -0.401,-0.044 -0.68,-0.044 h -3.795 v 1.617 h 3.907 c 0.263,0 0.475,-0.015 0.635,-0.045 0.161,-0.028 0.285,-0.075 0.371,-0.137 0.085,-0.061 0.141,-0.14 0.168,-0.237 0.027,-0.096 0.04,-0.21 0.04,-0.344 z m -5.096,-1.728 h 3.826 c 0.242,0 0.443,-0.012 0.604,-0.033 0.16,-0.021 0.291,-0.06 0.391,-0.116 0.098,-0.057 0.168,-0.137 0.209,-0.24 0.039,-0.105 0.061,-0.244 0.061,-0.414 0,-0.141 -0.017,-0.261 -0.049,-0.363 -0.033,-0.102 -0.093,-0.185 -0.182,-0.249 -0.088,-0.063 -0.213,-0.111 -0.373,-0.141 -0.16,-0.03 -0.368,-0.044 -0.619,-0.044 h -3.867 v 1.6 z"
           id="path32"
           inkscape:connector-curvature="0" /><path
           style="fill:#ffffff;stroke:#ffffff;stroke-width:0.25;stroke-miterlimit:10"
           d="m 327.748,357.579 c -1.586,0 -2.38,-0.498 -2.38,-1.495 v -3.989 c 0,-0.155 0.046,-0.257 0.138,-0.305 0.091,-0.048 0.222,-0.072 0.393,-0.072 0.178,0 0.312,0.024 0.402,0.072 0.092,0.048 0.138,0.149 0.138,0.305 v 3.989 c 0,0.171 0.105,0.318 0.317,0.441 0.211,0.123 0.553,0.186 1.025,0.186 h 3.939 c 0.129,0 0.211,0.035 0.249,0.107 0.038,0.072 0.056,0.18 0.056,0.318 0,0.145 -0.018,0.255 -0.056,0.33 -0.038,0.074 -0.12,0.112 -0.249,0.112 h -3.972 z"
           id="path34"
           inkscape:connector-curvature="0" /><path
           style="fill:#ffffff;stroke:#ffffff;stroke-width:0.25;stroke-miterlimit:10"
           d="m 334.646,357.579 c -1.586,0 -2.38,-0.498 -2.38,-1.495 v -2.839 c 0,-0.997 0.794,-1.495 2.38,-1.495 h 2.34 c 1.588,0 2.381,0.498 2.381,1.495 v 2.839 c 0,0.997 -0.793,1.495 -2.381,1.495 z m 2.309,-0.868 c 0.471,0 0.814,-0.062 1.029,-0.186 0.214,-0.123 0.321,-0.271 0.321,-0.441 v -2.839 c 0,-0.178 -0.107,-0.325 -0.321,-0.445 -0.215,-0.121 -0.559,-0.182 -1.029,-0.182 h -2.275 c -0.473,0 -0.815,0.061 -1.029,0.182 -0.215,0.12 -0.322,0.268 -0.322,0.445 v 2.839 c 0,0.171 0.107,0.318 0.322,0.441 0.214,0.123 0.557,0.186 1.029,0.186 z"
           id="path36"
           inkscape:connector-curvature="0" /><path
           style="fill:#ffffff;stroke:#ffffff;stroke-width:0.25;stroke-miterlimit:10"
           d="m 342.679,357.579 c -1.586,0 -2.38,-0.498 -2.38,-1.495 v -2.839 c 0,-0.997 0.794,-1.495 2.38,-1.495 h 3.94 c 0.129,0 0.213,0.036 0.254,0.108 0.039,0.072 0.059,0.181 0.059,0.325 0,0.146 -0.02,0.253 -0.059,0.325 -0.041,0.073 -0.125,0.109 -0.254,0.109 h -3.908 c -0.471,0 -0.814,0.061 -1.029,0.182 -0.213,0.12 -0.32,0.268 -0.32,0.445 v 2.839 c 0,0.171 0.107,0.318 0.32,0.441 0.215,0.123 0.559,0.186 1.029,0.186 h 3.916 c 0.129,0 0.212,0.035 0.25,0.107 0.037,0.072 0.055,0.182 0.055,0.326 0,0.14 -0.018,0.247 -0.055,0.322 -0.038,0.074 -0.121,0.112 -0.25,0.112 h -3.948 z"
           id="path38"
           inkscape:connector-curvature="0" /><path
           style="fill:#ffffff;stroke:#ffffff;stroke-width:0.25;stroke-miterlimit:10"
           d="m 348.645,354.113 4.237,-2.283 c 0.075,-0.043 0.157,-0.072 0.245,-0.088 0.09,-0.017 0.225,-0.024 0.406,-0.024 0.119,0 0.221,0.03 0.307,0.093 0.085,0.062 0.128,0.153 0.128,0.276 0,0.161 -0.086,0.284 -0.257,0.37 l -4.294,2.163 4.438,2.252 c 0.172,0.085 0.258,0.209 0.258,0.37 0,0.122 -0.043,0.215 -0.129,0.277 -0.086,0.061 -0.188,0.091 -0.306,0.091 -0.183,0 -0.317,-0.008 -0.406,-0.023 -0.089,-0.015 -0.169,-0.046 -0.245,-0.089 l -4.383,-2.323 v 2.058 c 0,0.156 -0.045,0.258 -0.136,0.307 -0.091,0.048 -0.226,0.071 -0.402,0.071 -0.171,0 -0.304,-0.023 -0.394,-0.071 -0.092,-0.049 -0.137,-0.15 -0.137,-0.307 v -5.138 c 0,-0.155 0.045,-0.257 0.137,-0.305 0.09,-0.048 0.223,-0.072 0.394,-0.072 0.177,0 0.312,0.024 0.402,0.072 0.09,0.048 0.136,0.149 0.136,0.305 v 2.018 z"
           id="path40"
           inkscape:connector-curvature="0" /><path
           style="fill:#ffffff;stroke:#ffffff;stroke-width:0.25;stroke-miterlimit:10"
           d="m 356.854,357.579 c -1.587,0 -2.38,-0.498 -2.38,-1.495 v -2.839 c 0,-0.997 0.793,-1.495 2.38,-1.495 h 3.94 c 0.128,0 0.213,0.036 0.252,0.108 0.041,0.072 0.061,0.181 0.061,0.325 0,0.146 -0.02,0.253 -0.061,0.325 -0.039,0.073 -0.124,0.109 -0.252,0.109 h -3.908 c -0.473,0 -0.814,0.061 -1.029,0.182 -0.214,0.12 -0.321,0.268 -0.321,0.445 v 2.839 c 0,0.171 0.107,0.318 0.321,0.441 0.215,0.123 0.557,0.186 1.029,0.186 h 3.916 c 0.129,0 0.211,0.035 0.249,0.107 0.037,0.072 0.056,0.182 0.056,0.326 0,0.14 -0.019,0.247 -0.056,0.322 -0.038,0.074 -0.12,0.112 -0.249,0.112 h -3.948 z"
           id="path42"
           inkscape:connector-curvature="0" /><path
           style="fill:#ffffff;stroke:#ffffff;stroke-width:0.25;stroke-miterlimit:10"
           d="m 362.82,354.275 h 5.178 v -2.181 c 0,-0.155 0.046,-0.257 0.138,-0.305 0.091,-0.048 0.225,-0.072 0.401,-0.072 0.172,0 0.303,0.024 0.395,0.072 0.091,0.048 0.137,0.149 0.137,0.305 v 5.138 c 0,0.156 -0.046,0.258 -0.137,0.307 -0.092,0.048 -0.223,0.071 -0.395,0.071 -0.177,0 -0.311,-0.023 -0.401,-0.071 -0.092,-0.049 -0.138,-0.15 -0.138,-0.307 v -2.089 h -5.178 v 2.089 c 0,0.156 -0.045,0.258 -0.137,0.307 -0.092,0.048 -0.225,0.071 -0.402,0.071 -0.171,0 -0.303,-0.023 -0.394,-0.071 -0.091,-0.049 -0.136,-0.15 -0.136,-0.307 v -5.138 c 0,-0.155 0.045,-0.257 0.136,-0.305 0.091,-0.048 0.223,-0.072 0.394,-0.072 0.178,0 0.311,0.024 0.402,0.072 0.091,0.048 0.137,0.149 0.137,0.305 z"
           id="path44"
           inkscape:connector-curvature="0" /><path
           style="fill:#ffffff;stroke:#ffffff;stroke-width:0.25;stroke-miterlimit:10"
           d="m 373.53,351.726 c 0.155,0 0.282,0.024 0.382,0.072 0.1,0.048 0.182,0.118 0.245,0.209 l 3.506,5.001 c 0.038,0.059 0.057,0.121 0.057,0.185 0,0.061 -0.019,0.116 -0.053,0.169 -0.035,0.055 -0.081,0.1 -0.137,0.137 -0.056,0.038 -0.12,0.067 -0.188,0.089 -0.07,0.021 -0.141,0.032 -0.209,0.032 -0.076,0 -0.143,-0.013 -0.201,-0.036 -0.06,-0.024 -0.11,-0.065 -0.152,-0.125 l -0.949,-1.383 h -4.471 l -0.893,1.383 c -0.037,0.06 -0.088,0.101 -0.148,0.125 -0.062,0.023 -0.128,0.036 -0.197,0.036 -0.064,0 -0.131,-0.012 -0.201,-0.032 -0.07,-0.021 -0.133,-0.052 -0.189,-0.092 -0.056,-0.041 -0.102,-0.086 -0.136,-0.138 -0.035,-0.051 -0.053,-0.108 -0.053,-0.172 0,-0.055 0.019,-0.112 0.057,-0.178 l 3.296,-5.001 c 0.059,-0.091 0.14,-0.161 0.241,-0.209 0.101,-0.048 0.232,-0.072 0.393,-0.072 z m -1.616,3.481 h 3.32 l -1.704,-2.501 z"
           id="path46"
           inkscape:connector-curvature="0" /><path
           style="fill:#ffffff;stroke:#ffffff;stroke-width:0.25;stroke-miterlimit:10"
           d="m 379.584,357.232 c 0,0.156 -0.045,0.258 -0.137,0.307 -0.091,0.048 -0.225,0.071 -0.401,0.071 -0.172,0 -0.304,-0.023 -0.394,-0.071 -0.092,-0.049 -0.137,-0.15 -0.137,-0.307 v -5.138 c 0,-0.155 0.045,-0.257 0.137,-0.305 0.09,-0.048 0.222,-0.072 0.394,-0.072 0.177,0 0.311,0.024 0.401,0.072 0.092,0.048 0.137,0.149 0.137,0.305 z"
           id="path48"
           inkscape:connector-curvature="0" /><path
           style="fill:#ffffff;stroke:#ffffff;stroke-width:0.25;stroke-miterlimit:10"
           d="m 387.689,357.61 c -0.075,0 -0.137,-0.003 -0.186,-0.008 -0.048,-0.006 -0.094,-0.019 -0.136,-0.04 -0.044,-0.021 -0.089,-0.05 -0.138,-0.084 -0.049,-0.034 -0.107,-0.082 -0.177,-0.141 l -5.001,-4.214 v 4.108 c 0,0.156 -0.045,0.258 -0.137,0.307 -0.091,0.048 -0.225,0.071 -0.402,0.071 -0.171,0 -0.303,-0.023 -0.394,-0.071 -0.091,-0.049 -0.137,-0.15 -0.137,-0.307 v -5.138 c 0,-0.149 0.043,-0.25 0.129,-0.301 0.086,-0.051 0.212,-0.076 0.378,-0.076 0.177,0 0.316,0.022 0.418,0.068 0.102,0.045 0.215,0.122 0.338,0.229 l 4.928,4.198 v -4.118 c 0,-0.155 0.046,-0.257 0.137,-0.305 0.092,-0.048 0.223,-0.072 0.395,-0.072 0.178,0 0.311,0.024 0.402,0.072 0.091,0.048 0.137,0.149 0.137,0.305 v 5.138 c 0,0.156 -0.046,0.258 -0.137,0.307 -0.09,0.049 -0.229,0.072 -0.417,0.072 z"
           id="path50"
           inkscape:connector-curvature="0" /><path
           style="fill:#ffffff;stroke:#ffffff;stroke-width:0.25;stroke-miterlimit:10"
           d="m 391.532,355.135 v 1.335 c 0,0.139 -0.038,0.23 -0.116,0.272 -0.078,0.044 -0.194,0.064 -0.35,0.064 -0.156,0 -0.271,-0.021 -0.346,-0.064 -0.075,-0.042 -0.113,-0.134 -0.113,-0.272 v -1.335 h -1.342 c -0.141,0 -0.23,-0.039 -0.273,-0.117 -0.043,-0.077 -0.064,-0.193 -0.064,-0.349 0,-0.156 0.021,-0.272 0.064,-0.348 0.043,-0.073 0.133,-0.111 0.273,-0.111 h 1.342 v -1.351 c 0,-0.14 0.038,-0.229 0.113,-0.274 0.074,-0.042 0.189,-0.063 0.346,-0.063 0.155,0 0.271,0.021 0.35,0.063 0.078,0.045 0.116,0.135 0.116,0.274 v 1.351 h 1.343 c 0.139,0 0.23,0.038 0.273,0.111 0.043,0.075 0.064,0.191 0.064,0.348 0,0.155 -0.021,0.271 -0.064,0.349 -0.043,0.078 -0.135,0.117 -0.273,0.117 z"
           id="path52"
           inkscape:connector-curvature="0" /></g></g><rect
       x="280.98999"
       y="275.673"
       style="fill:#2f9bb0;stroke:#2f9bb0;stroke-miterlimit:10"
       width="11.208"
       height="159.99899"
       id="rect58" /></g><g
     id="g562"
     transform="translate(-280.48999,-275.1043)"><circle
       style="display:none;fill:#ffffff;stroke:#42abce;stroke-width:0.25;stroke-miterlimit:10"
       cx="345.91699"
       cy="360.53101"
       r="42.569"
       id="circle62" /><circle
       style="fill:#42abce;stroke:#42abce;stroke-width:0.25;stroke-miterlimit:10"
       cx="348.66101"
       cy="360.26401"
       r="42.568001"
       id="circle64" /><circle
       style="fill:#42abce;stroke:#42abce;stroke-width:0.25;stroke-miterlimit:10"
       cx="348.758"
       cy="360.10999"
       r="40.806"
       id="circle66" /><g
       id="g244"><path
         style="fill:#ffffff"
         d="m 383.575,372.229 2.396,0.87 -0.426,1.179 c -0.104,0.276 -0.215,0.448 -0.339,0.516 -0.127,0.07 -0.311,0.058 -0.556,-0.031 -0.296,-0.107 -0.429,-0.288 -0.394,-0.542 l -0.011,-0.003 c -0.143,0.257 -0.381,0.325 -0.72,0.204 -0.245,-0.091 -0.396,-0.206 -0.457,-0.345 -0.06,-0.142 -0.042,-0.344 0.053,-0.606 z m 0.219,0.591 -0.184,0.501 -0.055,0.159 c -0.055,0.154 -0.07,0.263 -0.044,0.328 0.024,0.064 0.107,0.121 0.247,0.171 0.146,0.054 0.245,0.061 0.302,0.023 0.057,-0.037 0.12,-0.156 0.192,-0.356 l 0.212,-0.581 z m 1.006,0.367 -0.203,0.557 c -0.063,0.182 -0.085,0.303 -0.063,0.367 0.02,0.066 0.103,0.123 0.247,0.175 0.192,0.069 0.328,-0.004 0.406,-0.221 l 0.239,-0.65 z"
         id="path68"
         inkscape:connector-curvature="0" /><path
         style="fill:#ffffff"
         d="m 384.894,375.915 -1.943,-0.838 -0.473,1.098 -0.398,-0.171 0.663,-1.543 2.344,1.007 z"
         id="path70"
         inkscape:connector-curvature="0" /><path
         style="fill:#ffffff"
         d="m 383.818,378.294 c -0.208,0.413 -0.411,0.646 -0.608,0.696 -0.196,0.049 -0.536,-0.045 -1.013,-0.284 -0.522,-0.264 -0.822,-0.487 -0.896,-0.676 -0.076,-0.188 0.002,-0.51 0.232,-0.971 0.207,-0.415 0.408,-0.648 0.604,-0.702 0.194,-0.055 0.522,0.033 0.979,0.261 0.542,0.274 0.853,0.505 0.934,0.693 0.079,0.19 0,0.518 -0.232,0.983 z m -0.354,-0.219 c 0.146,-0.291 0.194,-0.479 0.145,-0.567 -0.051,-0.085 -0.298,-0.238 -0.739,-0.461 -0.328,-0.164 -0.538,-0.233 -0.635,-0.21 -0.094,0.024 -0.214,0.176 -0.356,0.456 -0.133,0.269 -0.175,0.449 -0.126,0.541 0.046,0.091 0.262,0.232 0.643,0.422 0.383,0.192 0.621,0.28 0.715,0.264 0.095,-0.016 0.213,-0.165 0.353,-0.445 z"
         id="path72"
         inkscape:connector-curvature="0" /><path
         style="fill:#ffffff"
         d="m 380.875,380.188 -0.243,0.418 -0.079,-0.044 c -0.306,-0.179 -0.47,-0.352 -0.496,-0.515 -0.024,-0.167 0.076,-0.44 0.3,-0.822 0.254,-0.434 0.481,-0.661 0.685,-0.676 0.199,-0.017 0.607,0.154 1.225,0.516 0.365,0.213 0.564,0.421 0.597,0.623 0.037,0.202 -0.072,0.519 -0.326,0.95 -0.181,0.313 -0.352,0.495 -0.509,0.546 -0.153,0.05 -0.372,-0.006 -0.652,-0.17 l -0.05,-0.027 0.245,-0.419 0.057,0.033 c 0.145,0.084 0.251,0.11 0.323,0.08 0.072,-0.031 0.167,-0.144 0.278,-0.336 0.152,-0.259 0.212,-0.434 0.179,-0.523 -0.032,-0.088 -0.207,-0.225 -0.518,-0.408 -0.423,-0.246 -0.685,-0.37 -0.792,-0.368 -0.103,0.002 -0.231,0.131 -0.381,0.386 -0.122,0.21 -0.179,0.355 -0.173,0.443 0.007,0.087 0.084,0.173 0.232,0.257 z"
         id="path74"
         inkscape:connector-curvature="0" /><path
         style="fill:#ffffff"
         d="m 381.544,382.198 -0.861,-0.58 -0.127,0.188 0.387,1.285 -0.337,0.499 -0.45,-1.546 -1.724,0.211 0.346,-0.515 1.437,-0.157 0.132,-0.192 -0.917,-0.617 0.271,-0.402 2.114,1.426 z"
         id="path76"
         inkscape:connector-curvature="0" /><path
         style="fill:#ffffff"
         d="m 378.089,384.179 -0.296,0.384 -0.069,-0.053 c -0.28,-0.217 -0.425,-0.409 -0.427,-0.575 -0.002,-0.166 0.132,-0.425 0.402,-0.777 0.307,-0.397 0.562,-0.593 0.761,-0.583 0.204,0.008 0.587,0.23 1.153,0.667 0.332,0.258 0.505,0.488 0.512,0.694 0.011,0.207 -0.139,0.507 -0.442,0.902 -0.221,0.289 -0.415,0.448 -0.575,0.477 -0.161,0.029 -0.369,-0.054 -0.625,-0.251 l -0.046,-0.035 0.295,-0.385 0.051,0.04 c 0.133,0.102 0.238,0.143 0.312,0.121 0.074,-0.022 0.182,-0.121 0.319,-0.296 0.182,-0.24 0.265,-0.404 0.242,-0.496 -0.021,-0.095 -0.177,-0.25 -0.463,-0.472 -0.385,-0.299 -0.63,-0.455 -0.737,-0.467 -0.103,-0.011 -0.245,0.102 -0.427,0.336 -0.146,0.188 -0.223,0.329 -0.228,0.416 -0.002,0.087 0.062,0.183 0.195,0.286 z"
         id="path78"
         inkscape:connector-curvature="0" /><path
         style="fill:#ffffff"
         d="m 377.389,387.515 -1.911,-1.686 0.319,-0.363 0.826,0.729 0.792,-0.897 -0.829,-0.73 0.322,-0.362 1.913,1.685 -0.319,0.365 -0.783,-0.689 -0.789,0.897 0.78,0.688 z"
         id="path80"
         inkscape:connector-curvature="0" /><path
         style="fill:#ffffff"
         d="m 374.438,387.562 0.783,-0.775 -0.231,-0.458 0.362,-0.362 1.194,2.41 -0.516,0.511 -2.41,-1.205 0.358,-0.354 z m 0.333,0.175 1.248,0.631 -0.627,-1.247 z"
         id="path82"
         inkscape:connector-curvature="0" /><path
         style="fill:#ffffff"
         d="m 374.826,390.015 -1.715,-1.889 0.356,-0.326 1.715,1.889 z"
         id="path84"
         inkscape:connector-curvature="0" /><path
         style="fill:#ffffff"
         d="m 372.602,391.885 -1.618,-1.969 0.635,-0.521 1.449,0.62 c 0.072,0.03 0.195,0.089 0.365,0.174 l 0.18,0.091 0.18,0.09 0.015,-0.013 -0.113,-0.125 -0.111,-0.125 -0.215,-0.256 -0.927,-1.131 0.374,-0.307 1.62,1.97 -0.634,0.521 -1.334,-0.578 c -0.118,-0.052 -0.261,-0.115 -0.423,-0.192 l -0.207,-0.1 -0.208,-0.099 -0.013,0.01 0.106,0.123 0.109,0.125 0.212,0.25 0.932,1.136 z"
         id="path86"
         inkscape:connector-curvature="0" /><path
         style="fill:#ffffff"
         d="m 370.229,390.862 0.435,0.61 0.593,-0.424 0.234,0.325 -0.597,0.424 0.433,0.611 -0.348,0.247 -0.436,-0.61 -0.604,0.429 -0.228,-0.325 0.602,-0.428 -0.433,-0.61 z"
         id="path88"
         inkscape:connector-curvature="0" /><path
         style="fill:#ffffff"
         d="m 366.635,392.791 1.195,2.251 -1.108,0.589 c -0.26,0.137 -0.459,0.19 -0.597,0.156 -0.138,-0.031 -0.267,-0.165 -0.392,-0.395 -0.146,-0.278 -0.122,-0.501 0.072,-0.667 l -0.005,-0.008 c -0.277,0.097 -0.5,-0.015 -0.671,-0.333 -0.122,-0.229 -0.157,-0.418 -0.107,-0.562 0.051,-0.146 0.199,-0.283 0.444,-0.413 z m -0.237,0.587 -0.469,0.247 -0.148,0.084 c -0.146,0.075 -0.229,0.146 -0.254,0.212 -0.023,0.064 -0.002,0.163 0.07,0.294 0.07,0.135 0.14,0.208 0.208,0.219 0.065,0.01 0.192,-0.035 0.38,-0.135 l 0.549,-0.289 z m 0.503,0.946 -0.522,0.278 c -0.171,0.09 -0.27,0.165 -0.298,0.229 -0.026,0.061 -0.002,0.16 0.067,0.296 0.097,0.18 0.247,0.216 0.451,0.108 l 0.609,-0.325 z"
         id="path90"
         inkscape:connector-curvature="0" /><path
         style="fill:#ffffff"
         d="m 365.128,396.416 -0.882,-1.924 -1.087,0.496 -0.182,-0.394 1.529,-0.699 1.061,2.319 z"
         id="path92"
         inkscape:connector-curvature="0" /><path
         style="fill:#ffffff"
         d="m 362.737,397.458 c -0.433,0.169 -0.737,0.205 -0.918,0.11 -0.182,-0.097 -0.365,-0.393 -0.561,-0.892 -0.21,-0.544 -0.281,-0.911 -0.212,-1.102 0.07,-0.191 0.346,-0.378 0.824,-0.565 0.434,-0.167 0.739,-0.206 0.919,-0.115 0.182,0.091 0.365,0.375 0.549,0.852 0.221,0.566 0.297,0.945 0.229,1.138 -0.069,0.194 -0.344,0.387 -0.83,0.574 z m -0.116,-0.4 c 0.307,-0.117 0.466,-0.224 0.488,-0.322 0.021,-0.099 -0.06,-0.377 -0.238,-0.839 -0.132,-0.34 -0.243,-0.535 -0.328,-0.58 -0.088,-0.048 -0.275,-0.014 -0.571,0.101 -0.279,0.108 -0.433,0.211 -0.457,0.312 -0.026,0.102 0.04,0.349 0.195,0.745 0.152,0.398 0.271,0.624 0.352,0.676 0.083,0.051 0.269,0.022 0.559,-0.093 z"
         id="path94"
         inkscape:connector-curvature="0" /><path
         style="fill:#ffffff"
         d="m 359.291,396.884 -0.464,0.148 -0.026,-0.086 c -0.106,-0.337 -0.113,-0.575 -0.02,-0.714 0.09,-0.139 0.348,-0.273 0.772,-0.408 0.479,-0.15 0.798,-0.165 0.958,-0.043 0.161,0.121 0.348,0.522 0.563,1.205 0.127,0.4 0.136,0.688 0.024,0.862 -0.109,0.173 -0.402,0.337 -0.877,0.486 -0.348,0.111 -0.597,0.131 -0.746,0.065 -0.148,-0.07 -0.273,-0.256 -0.369,-0.566 l -0.02,-0.053 0.464,-0.148 0.02,0.062 c 0.05,0.16 0.111,0.252 0.186,0.278 0.075,0.026 0.219,0.002 0.433,-0.063 0.285,-0.09 0.446,-0.18 0.483,-0.269 0.035,-0.088 -0.002,-0.305 -0.111,-0.65 -0.146,-0.465 -0.26,-0.733 -0.339,-0.803 -0.079,-0.068 -0.26,-0.058 -0.542,0.031 -0.229,0.073 -0.37,0.144 -0.423,0.211 -0.055,0.069 -0.057,0.186 -0.004,0.346 z"
         id="path96"
         inkscape:connector-curvature="0" /><path
         style="fill:#ffffff"
         d="m 358.43,398.826 -0.25,-1.01 -0.218,0.057 -0.578,1.212 -0.583,0.142 0.704,-1.449 -1.42,-1.001 0.604,-0.148 1.17,0.849 0.226,-0.055 -0.263,-1.073 0.468,-0.114 0.61,2.477 z"
         id="path98"
         inkscape:connector-curvature="0" /><path
         style="fill:#ffffff"
         d="m 354.553,397.972 -0.479,0.085 -0.015,-0.087 c -0.063,-0.35 -0.04,-0.586 0.069,-0.713 0.109,-0.126 0.381,-0.225 0.818,-0.304 0.496,-0.09 0.815,-0.063 0.957,0.079 0.143,0.141 0.28,0.563 0.405,1.268 0.074,0.415 0.043,0.702 -0.086,0.859 -0.133,0.157 -0.443,0.282 -0.936,0.369 -0.358,0.063 -0.605,0.053 -0.743,-0.032 -0.143,-0.088 -0.238,-0.287 -0.298,-0.608 l -0.011,-0.055 0.479,-0.085 0.011,0.063 c 0.029,0.164 0.079,0.265 0.149,0.297 0.069,0.037 0.216,0.035 0.438,-0.006 0.295,-0.053 0.466,-0.121 0.514,-0.204 0.046,-0.083 0.037,-0.302 -0.026,-0.66 -0.088,-0.479 -0.166,-0.758 -0.234,-0.839 -0.069,-0.078 -0.249,-0.091 -0.542,-0.038 -0.236,0.041 -0.385,0.094 -0.446,0.155 -0.061,0.062 -0.078,0.175 -0.048,0.342 z"
         id="path100"
         inkscape:connector-curvature="0" /><path
         style="fill:#ffffff"
         d="m 351.779,399.975 -0.284,-2.536 0.481,-0.052 0.122,1.095 1.188,-0.134 -0.12,-1.094 0.479,-0.056 0.284,2.534 -0.48,0.055 -0.116,-1.035 -1.188,0.136 0.116,1.034 z"
         id="path102"
         inkscape:connector-curvature="0" /><path
         style="fill:#ffffff"
         d="m 349.573,398.028 1.098,-0.05 0.136,-0.496 0.512,-0.025 -0.73,2.588 -0.727,0.035 -0.978,-2.509 0.503,-0.023 z m 0.127,0.353 0.5,1.308 0.372,-1.35 z"
         id="path104"
         inkscape:connector-curvature="0" /><path
         style="fill:#ffffff"
         d="m 348.211,400.104 -0.003,-2.55 0.483,-0.003 0.005,2.553 z"
         id="path106"
         inkscape:connector-curvature="0" /><path
         style="fill:#ffffff"
         d="m 345.298,400.003 0.122,-2.548 0.82,0.039 0.66,1.433 c 0.033,0.07 0.083,0.197 0.153,0.374 l 0.072,0.187 0.072,0.188 h 0.018 v -0.168 l 0.004,-0.166 0.011,-0.335 0.07,-1.46 0.485,0.022 -0.124,2.549 -0.818,-0.04 -0.602,-1.325 c -0.052,-0.115 -0.113,-0.258 -0.184,-0.424 l -0.087,-0.212 -0.086,-0.214 -0.018,-0.001 -0.002,0.164 -0.002,0.164 -0.011,0.33 -0.072,1.468 z"
         id="path108"
         inkscape:connector-curvature="0" /><path
         style="fill:#ffffff"
         d="m 344.227,397.649 -0.088,0.744 0.724,0.085 -0.046,0.396 -0.726,-0.086 -0.088,0.744 -0.424,-0.051 0.087,-0.743 -0.734,-0.088 0.046,-0.396 0.735,0.088 0.089,-0.744 z"
         id="path110"
         inkscape:connector-curvature="0" /><path
         style="fill:#ffffff"
         d="m 340.274,396.668 -0.625,2.472 -1.216,-0.307 c -0.286,-0.074 -0.468,-0.168 -0.547,-0.284 -0.081,-0.118 -0.09,-0.304 -0.026,-0.556 0.079,-0.306 0.245,-0.454 0.501,-0.447 l 0.002,-0.009 c -0.271,-0.116 -0.36,-0.347 -0.273,-0.697 0.063,-0.253 0.162,-0.416 0.298,-0.489 0.136,-0.074 0.337,-0.075 0.605,-0.008 z m -0.833,1.314 -0.572,-0.145 c -0.187,-0.049 -0.311,-0.056 -0.372,-0.028 -0.063,0.026 -0.111,0.115 -0.148,0.265 -0.051,0.197 0.034,0.326 0.26,0.381 l 0.672,0.17 z m 0.265,-1.038 -0.514,-0.131 -0.166,-0.039 c -0.157,-0.039 -0.267,-0.043 -0.33,-0.012 -0.062,0.033 -0.109,0.12 -0.146,0.265 -0.037,0.148 -0.035,0.249 0.006,0.302 0.044,0.052 0.169,0.103 0.374,0.156 l 0.6,0.152 z"
         id="path112"
         inkscape:connector-curvature="0" /><path
         style="fill:#ffffff"
         d="m 336.736,398.348 0.639,-2.019 -1.142,-0.361 0.132,-0.414 1.603,0.508 -0.77,2.433 z"
         id="path114"
         inkscape:connector-curvature="0" /><path
         style="fill:#ffffff"
         d="m 334.259,397.513 c -0.433,-0.167 -0.685,-0.343 -0.754,-0.535 -0.068,-0.19 -0.007,-0.536 0.184,-1.037 0.207,-0.544 0.402,-0.866 0.581,-0.959 0.18,-0.093 0.51,-0.049 0.991,0.135 0.433,0.167 0.685,0.344 0.757,0.53 0.074,0.19 0.02,0.523 -0.162,1 -0.219,0.568 -0.416,0.901 -0.597,0.998 -0.18,0.098 -0.515,0.054 -1,-0.132 z m 0.183,-0.375 c 0.305,0.116 0.497,0.146 0.577,0.087 0.081,-0.058 0.208,-0.317 0.386,-0.78 0.131,-0.343 0.181,-0.559 0.148,-0.651 -0.035,-0.093 -0.197,-0.194 -0.49,-0.308 -0.282,-0.106 -0.464,-0.133 -0.549,-0.075 -0.087,0.057 -0.205,0.284 -0.358,0.683 -0.153,0.399 -0.217,0.645 -0.192,0.738 0.026,0.092 0.183,0.193 0.478,0.306 z"
         id="path116"
         inkscape:connector-curvature="0" /><path
         style="fill:#ffffff"
         d="m 332.083,394.774 -0.439,-0.204 0.035,-0.078 c 0.148,-0.323 0.302,-0.504 0.464,-0.546 0.161,-0.042 0.443,0.031 0.846,0.217 0.457,0.21 0.706,0.414 0.744,0.611 0.034,0.197 -0.097,0.622 -0.395,1.271 -0.175,0.384 -0.36,0.603 -0.56,0.657 -0.196,0.056 -0.522,-0.021 -0.978,-0.229 -0.33,-0.152 -0.529,-0.304 -0.595,-0.454 -0.065,-0.149 -0.03,-0.371 0.105,-0.666 l 0.021,-0.054 0.441,0.202 -0.026,0.061 c -0.069,0.152 -0.087,0.261 -0.048,0.33 0.037,0.067 0.157,0.151 0.361,0.244 0.273,0.124 0.452,0.166 0.54,0.124 0.083,-0.041 0.201,-0.229 0.352,-0.558 0.206,-0.442 0.3,-0.717 0.289,-0.819 -0.011,-0.106 -0.153,-0.222 -0.422,-0.343 -0.219,-0.102 -0.372,-0.144 -0.457,-0.128 -0.086,0.016 -0.164,0.101 -0.234,0.254 z"
         id="path118"
         inkscape:connector-curvature="0" /><path
         style="fill:#ffffff"
         d="m 330.154,395.641 0.492,-0.914 -0.201,-0.107 -1.238,0.513 -0.528,-0.286 1.491,-0.601 -0.379,-1.696 0.547,0.293 0.298,1.417 0.203,0.11 0.522,-0.973 0.429,0.229 -1.212,2.244 z"
         id="path120"
         inkscape:connector-curvature="0" /><path
         style="fill:#ffffff"
         d="m 327.839,392.396 -0.411,-0.257 0.043,-0.074 c 0.188,-0.302 0.365,-0.461 0.532,-0.483 0.164,-0.018 0.433,0.088 0.811,0.325 0.427,0.266 0.646,0.501 0.656,0.701 0.011,0.201 -0.17,0.604 -0.551,1.211 -0.224,0.356 -0.436,0.55 -0.639,0.579 -0.203,0.029 -0.519,-0.088 -0.942,-0.352 -0.309,-0.193 -0.485,-0.368 -0.529,-0.524 -0.048,-0.159 0.016,-0.373 0.188,-0.648 l 0.028,-0.052 0.411,0.259 -0.033,0.055 c -0.09,0.142 -0.118,0.249 -0.09,0.323 0.028,0.072 0.138,0.168 0.328,0.288 0.254,0.157 0.427,0.221 0.519,0.19 0.09,-0.029 0.229,-0.199 0.422,-0.505 0.258,-0.415 0.387,-0.674 0.39,-0.78 0.002,-0.104 -0.123,-0.235 -0.374,-0.391 -0.204,-0.127 -0.351,-0.189 -0.438,-0.186 -0.088,0.005 -0.175,0.079 -0.265,0.223 z"
         id="path122"
         inkscape:connector-curvature="0" /><path
         style="fill:#ffffff"
         d="m 324.444,392.027 1.489,-2.071 0.392,0.283 -0.643,0.895 0.971,0.7 0.643,-0.895 0.394,0.281 -1.488,2.071 -0.395,-0.284 0.608,-0.845 -0.971,-0.697 -0.608,0.844 z"
         id="path124"
         inkscape:connector-curvature="0" /><path
         style="fill:#ffffff"
         d="m 324.105,389.096 0.851,0.701 0.434,-0.276 0.396,0.326 -2.281,1.425 -0.56,-0.462 0.962,-2.516 0.388,0.32 z m -0.139,0.345 -0.505,1.307 1.181,-0.749 z"
         id="path126"
         inkscape:connector-curvature="0" /><path
         style="fill:#ffffff"
         d="m 321.709,389.723 1.71,-1.893 0.358,0.324 -1.712,1.892 z"
         id="path128"
         inkscape:connector-curvature="0" /><path
         style="fill:#ffffff"
         d="m 319.618,387.689 1.802,-1.806 0.58,0.581 -0.473,1.505 c -0.023,0.075 -0.069,0.201 -0.138,0.378 l -0.072,0.188 -0.072,0.187 0.014,0.012 0.113,-0.124 0.114,-0.121 0.231,-0.239 1.034,-1.036 0.344,0.342 -1.802,1.806 -0.582,-0.581 0.446,-1.383 c 0.037,-0.123 0.087,-0.27 0.148,-0.439 l 0.079,-0.216 0.078,-0.216 -0.013,-0.013 -0.111,0.12 -0.112,0.121 -0.229,0.235 -1.038,1.04 z"
         id="path130"
         inkscape:connector-curvature="0" /><path
         style="fill:#ffffff"
         d="m 320.408,385.232 -0.564,0.493 0.481,0.552 -0.3,0.261 -0.481,-0.551 -0.564,0.493 -0.281,-0.322 0.563,-0.493 -0.485,-0.558 0.3,-0.262 0.487,0.559 0.564,-0.493 z"
         id="path132"
         inkscape:connector-curvature="0" /><path
         style="fill:#ffffff"
         d="m 318.132,381.845 -2.124,1.414 -0.695,-1.044 c -0.162,-0.245 -0.233,-0.438 -0.214,-0.579 0.018,-0.141 0.138,-0.283 0.354,-0.428 0.262,-0.175 0.485,-0.172 0.671,0.005 l 0.009,-0.005 c -0.125,-0.268 -0.037,-0.501 0.263,-0.701 0.216,-0.143 0.399,-0.199 0.549,-0.163 0.148,0.035 0.302,0.169 0.454,0.402 z m -1.501,0.416 -0.327,-0.491 c -0.107,-0.16 -0.192,-0.251 -0.256,-0.271 -0.066,-0.021 -0.162,0.012 -0.289,0.097 -0.171,0.113 -0.19,0.265 -0.062,0.458 l 0.383,0.576 z m 0.894,-0.594 -0.295,-0.441 -0.096,-0.14 c -0.093,-0.137 -0.171,-0.214 -0.239,-0.23 -0.065,-0.019 -0.161,0.014 -0.284,0.097 -0.129,0.084 -0.194,0.162 -0.196,0.229 -0.005,0.066 0.053,0.19 0.17,0.366 l 0.344,0.515 z"
         id="path134"
         inkscape:connector-curvature="0" /><path
         style="fill:#ffffff"
         d="m 314.383,380.724 1.826,-1.07 -0.604,-1.03 0.374,-0.22 0.849,1.45 -2.2,1.29 z"
         id="path136"
         inkscape:connector-curvature="0" /><path
         style="fill:#ffffff"
         d="m 313.104,378.442 c -0.21,-0.414 -0.278,-0.713 -0.201,-0.902 0.076,-0.188 0.354,-0.404 0.83,-0.646 0.521,-0.266 0.88,-0.373 1.074,-0.323 0.196,0.051 0.411,0.306 0.646,0.764 0.209,0.414 0.277,0.714 0.205,0.904 -0.072,0.188 -0.335,0.398 -0.789,0.632 -0.543,0.275 -0.912,0.388 -1.113,0.34 -0.199,-0.049 -0.416,-0.304 -0.652,-0.769 z m 0.387,-0.155 c 0.146,0.29 0.269,0.441 0.369,0.451 0.099,0.01 0.37,-0.096 0.81,-0.32 0.328,-0.166 0.51,-0.295 0.547,-0.386 0.037,-0.091 -0.016,-0.275 -0.158,-0.555 -0.135,-0.269 -0.256,-0.411 -0.358,-0.426 -0.101,-0.014 -0.341,0.075 -0.722,0.267 -0.38,0.194 -0.593,0.334 -0.636,0.419 -0.044,0.087 0.004,0.271 0.148,0.55 z"
         id="path138"
         inkscape:connector-curvature="0" /><path
         style="fill:#ffffff"
         d="m 313.327,374.954 -0.192,-0.445 0.083,-0.034 c 0.323,-0.141 0.562,-0.172 0.708,-0.095 0.147,0.078 0.307,0.322 0.481,0.729 0.199,0.463 0.247,0.779 0.143,0.949 -0.105,0.174 -0.485,0.4 -1.144,0.681 -0.388,0.167 -0.672,0.204 -0.857,0.112 -0.184,-0.091 -0.372,-0.366 -0.571,-0.826 -0.144,-0.334 -0.19,-0.579 -0.138,-0.733 0.053,-0.157 0.228,-0.298 0.525,-0.426 l 0.052,-0.025 0.192,0.446 -0.061,0.027 c -0.153,0.065 -0.238,0.137 -0.258,0.214 -0.018,0.075 0.017,0.215 0.104,0.422 0.12,0.276 0.226,0.427 0.317,0.453 0.092,0.027 0.304,-0.031 0.636,-0.175 0.448,-0.194 0.702,-0.333 0.764,-0.418 0.063,-0.084 0.035,-0.263 -0.083,-0.536 -0.095,-0.22 -0.18,-0.354 -0.254,-0.399 -0.074,-0.046 -0.188,-0.036 -0.344,0.03 z"
         id="path140"
         inkscape:connector-curvature="0" /><path
         style="fill:#ffffff"
         d="m 311.311,374.295 0.978,-0.347 -0.074,-0.214 -1.264,-0.452 -0.201,-0.568 1.513,0.556 0.855,-1.512 0.208,0.586 -0.729,1.249 0.076,0.218 1.041,-0.369 0.162,0.455 -2.403,0.855 z"
         id="path142"
         inkscape:connector-curvature="0" /><path
         style="fill:#ffffff"
         d="m 311.774,370.344 -0.134,-0.468 0.084,-0.023 c 0.343,-0.098 0.581,-0.098 0.717,-0.001 0.136,0.096 0.265,0.357 0.385,0.784 0.138,0.484 0.143,0.804 0.018,0.961 -0.127,0.155 -0.533,0.332 -1.223,0.526 -0.404,0.116 -0.693,0.116 -0.863,0.002 -0.171,-0.114 -0.324,-0.413 -0.459,-0.894 -0.101,-0.351 -0.116,-0.596 -0.042,-0.745 0.07,-0.147 0.263,-0.265 0.573,-0.353 l 0.055,-0.019 0.133,0.468 -0.061,0.017 c -0.162,0.045 -0.256,0.105 -0.285,0.179 -0.028,0.074 -0.011,0.219 0.051,0.434 0.083,0.289 0.166,0.453 0.254,0.491 0.087,0.037 0.306,0.008 0.653,-0.092 0.471,-0.133 0.741,-0.239 0.813,-0.314 0.07,-0.077 0.065,-0.259 -0.015,-0.544 -0.066,-0.231 -0.134,-0.375 -0.199,-0.429 -0.068,-0.055 -0.184,-0.06 -0.346,-0.013 z"
         id="path144"
         inkscape:connector-curvature="0" /><path
         style="fill:#ffffff"
         d="m 309.505,367.784 2.495,-0.534 0.101,0.473 -1.076,0.23 0.249,1.17 1.078,-0.23 0.101,0.472 -2.495,0.534 -0.101,-0.474 1.017,-0.217 -0.249,-1.17 -1.017,0.218 z"
         id="path146"
         inkscape:connector-curvature="0" /><path
         style="fill:#ffffff"
         d="m 311.226,365.389 0.157,1.089 0.508,0.086 0.074,0.508 -2.646,-0.474 -0.104,-0.72 2.401,-1.219 0.072,0.498 z m -0.337,0.161 -1.253,0.626 1.378,0.24 z"
         id="path148"
         inkscape:connector-curvature="0" /><path
         style="fill:#ffffff"
         d="m 309.028,364.248 2.536,-0.257 0.048,0.481 -2.536,0.259 z"
         id="path150"
         inkscape:connector-curvature="0" /><path
         style="fill:#ffffff"
         d="m 308.842,361.331 2.548,-0.13 0.042,0.82 -1.36,0.8 c -0.068,0.039 -0.188,0.101 -0.359,0.188 l -0.179,0.092 -0.178,0.088 v 0.019 l 0.169,-0.016 0.166,-0.014 0.335,-0.021 1.46,-0.074 0.024,0.483 -2.548,0.129 -0.041,-0.818 1.257,-0.728 c 0.112,-0.065 0.247,-0.139 0.407,-0.224 l 0.201,-0.108 0.205,-0.107 -0.002,-0.019 -0.164,0.015 -0.164,0.013 -0.328,0.021 -1.467,0.074 z"
         id="path152"
         inkscape:connector-curvature="0" /><path
         style="fill:#ffffff"
         d="m 311.077,360.045 -0.75,-0.013 -0.012,0.73 -0.397,-0.007 0.011,-0.73 -0.748,-0.014 0.007,-0.428 0.75,0.014 0.014,-0.74 0.397,0.007 -0.013,0.74 0.747,0.014 z"
         id="path154"
         inkscape:connector-curvature="0" /><path
         style="fill:#ffffff"
         d="m 311.661,356.005 -2.524,-0.377 0.187,-1.24 c 0.044,-0.29 0.12,-0.481 0.228,-0.573 0.109,-0.091 0.293,-0.117 0.551,-0.079 0.311,0.046 0.477,0.198 0.494,0.453 l 0.009,10e-4 c 0.09,-0.282 0.311,-0.396 0.667,-0.342 0.256,0.039 0.429,0.121 0.516,0.247 0.088,0.126 0.109,0.328 0.068,0.604 z m -1.393,-0.697 0.088,-0.586 c 0.028,-0.19 0.026,-0.314 -0.007,-0.373 -0.035,-0.058 -0.129,-0.099 -0.28,-0.122 -0.203,-0.03 -0.318,0.07 -0.354,0.298 l -0.101,0.684 z m 1.06,0.159 0.079,-0.526 0.021,-0.168 c 0.024,-0.162 0.018,-0.271 -0.021,-0.329 -0.037,-0.059 -0.129,-0.098 -0.275,-0.12 -0.153,-0.023 -0.254,-0.012 -0.302,0.037 -0.046,0.047 -0.086,0.177 -0.118,0.387 l -0.09,0.612 z"
         id="path156"
         inkscape:connector-curvature="0" /><path
         style="fill:#ffffff"
         d="m 309.636,352.64 2.073,0.436 0.247,-1.17 0.422,0.089 -0.346,1.644 -2.495,-0.523 z"
         id="path158"
         inkscape:connector-curvature="0" /><path
         style="fill:#ffffff"
         d="m 310.218,350.101 c 0.122,-0.446 0.275,-0.714 0.459,-0.802 0.184,-0.089 0.531,-0.062 1.048,0.077 0.563,0.153 0.9,0.315 1.015,0.483 0.109,0.169 0.098,0.502 -0.038,0.999 -0.12,0.448 -0.271,0.717 -0.452,0.808 -0.18,0.092 -0.517,0.071 -1.011,-0.063 -0.586,-0.159 -0.938,-0.323 -1.052,-0.493 -0.116,-0.171 -0.105,-0.506 0.031,-1.009 z m 0.391,0.145 c -0.086,0.314 -0.095,0.508 -0.029,0.583 0.066,0.074 0.337,0.176 0.816,0.306 0.354,0.096 0.572,0.123 0.662,0.081 0.09,-0.043 0.175,-0.216 0.258,-0.519 0.079,-0.29 0.086,-0.475 0.021,-0.554 -0.066,-0.081 -0.305,-0.176 -0.716,-0.288 -0.413,-0.112 -0.664,-0.151 -0.754,-0.118 -0.09,0.037 -0.175,0.206 -0.258,0.509 z"
         id="path160"
         inkscape:connector-curvature="0" /><path
         style="fill:#ffffff"
         d="m 312.73,347.661 0.157,-0.46 0.083,0.028 c 0.337,0.115 0.531,0.25 0.588,0.407 0.058,0.156 0.012,0.444 -0.133,0.864 -0.162,0.476 -0.339,0.743 -0.534,0.798 -0.192,0.056 -0.627,-0.031 -1.303,-0.263 -0.4,-0.136 -0.635,-0.3 -0.711,-0.492 -0.074,-0.191 -0.03,-0.524 0.131,-0.998 0.12,-0.343 0.25,-0.555 0.394,-0.635 0.143,-0.08 0.365,-0.067 0.672,0.037 l 0.055,0.017 -0.155,0.46 -0.062,-0.022 c -0.159,-0.054 -0.271,-0.059 -0.334,-0.015 -0.066,0.045 -0.134,0.173 -0.208,0.385 -0.097,0.285 -0.12,0.467 -0.07,0.547 0.048,0.081 0.245,0.18 0.591,0.298 0.461,0.158 0.743,0.227 0.846,0.204 0.101,-0.022 0.201,-0.173 0.298,-0.454 0.076,-0.227 0.104,-0.384 0.081,-0.467 -0.024,-0.083 -0.116,-0.153 -0.275,-0.208 z"
         id="path162"
         inkscape:connector-curvature="0" /><path
         style="fill:#ffffff"
         d="m 311.674,345.826 0.96,0.399 0.088,-0.21 -0.635,-1.183 0.232,-0.555 0.747,1.426 1.649,-0.546 -0.238,0.573 -1.378,0.438 -0.09,0.212 1.02,0.425 -0.187,0.447 -2.354,-0.981 z"
         id="path164"
         inkscape:connector-curvature="0" /><path
         style="fill:#ffffff"
         d="m 314.672,343.202 0.215,-0.436 0.078,0.039 c 0.319,0.157 0.496,0.317 0.534,0.479 0.034,0.162 -0.046,0.443 -0.243,0.839 -0.223,0.452 -0.433,0.693 -0.632,0.724 -0.199,0.031 -0.619,-0.112 -1.26,-0.43 -0.378,-0.185 -0.593,-0.379 -0.641,-0.578 -0.051,-0.199 0.035,-0.523 0.258,-0.971 0.162,-0.327 0.317,-0.521 0.468,-0.582 0.153,-0.06 0.374,-0.02 0.665,0.125 l 0.053,0.024 -0.215,0.436 -0.059,-0.029 c -0.151,-0.074 -0.261,-0.093 -0.33,-0.058 -0.07,0.036 -0.155,0.154 -0.254,0.355 -0.134,0.27 -0.18,0.447 -0.14,0.534 0.039,0.087 0.221,0.21 0.547,0.372 0.437,0.215 0.708,0.319 0.813,0.311 0.104,-0.009 0.223,-0.146 0.352,-0.412 0.107,-0.215 0.153,-0.366 0.14,-0.452 -0.011,-0.087 -0.094,-0.167 -0.244,-0.243 z"
         id="path166"
         inkscape:connector-curvature="0" /><path
         style="fill:#ffffff"
         d="m 314.7,339.794 2.209,1.278 -0.243,0.419 -0.953,-0.553 -0.6,1.035 0.954,0.552 -0.243,0.42 -2.208,-1.279 0.242,-0.418 0.901,0.521 0.599,-1.034 -0.898,-0.522 z"
         id="path168"
         inkscape:connector-curvature="0" /><path
         style="fill:#ffffff"
         d="m 317.578,339.178 -0.614,0.914 0.319,0.405 -0.284,0.425 -1.647,-2.127 0.405,-0.603 2.6,0.707 -0.282,0.418 z m -0.358,-0.106 -1.35,-0.375 0.861,1.101 z"
         id="path170"
         inkscape:connector-curvature="0" /><path
         style="fill:#ffffff"
         d="m 316.728,336.838 2.051,1.516 -0.286,0.389 -2.054,-1.516 z"
         id="path172"
         inkscape:connector-curvature="0" /><path
         style="fill:#ffffff"
         d="m 318.534,334.57 1.977,1.614 -0.519,0.635 -1.546,-0.322 c -0.076,-0.015 -0.208,-0.049 -0.392,-0.1 l -0.194,-0.052 -0.192,-0.053 -0.011,0.014 0.136,0.101 0.131,0.1 0.26,0.208 1.136,0.927 -0.309,0.375 -1.975,-1.615 0.521,-0.635 1.421,0.304 c 0.125,0.028 0.275,0.063 0.45,0.106 l 0.224,0.057 0.223,0.057 0.011,-0.013 -0.131,-0.1 -0.131,-0.101 -0.256,-0.205 -1.138,-0.93 z"
         id="path174"
         inkscape:connector-curvature="0" /><path
         style="fill:#ffffff"
         d="m 321.066,335.105 -0.547,-0.514 -0.501,0.532 -0.291,-0.273 0.501,-0.531 -0.547,-0.513 0.296,-0.313 0.544,0.513 0.508,-0.538 0.29,0.272 -0.507,0.54 0.547,0.513 z"
         id="path176"
         inkscape:connector-curvature="0" /><path
         style="fill:#ffffff"
         d="m 324.209,332.505 -1.616,-1.972 0.969,-0.795 c 0.228,-0.186 0.411,-0.277 0.553,-0.271 0.143,0.005 0.298,0.109 0.462,0.31 0.199,0.245 0.221,0.467 0.063,0.669 l 0.004,0.007 c 0.254,-0.15 0.496,-0.086 0.724,0.193 0.166,0.201 0.238,0.377 0.217,0.53 -0.02,0.152 -0.138,0.316 -0.354,0.493 z m -0.564,-1.45 0.459,-0.376 c 0.148,-0.123 0.228,-0.216 0.243,-0.283 0.015,-0.065 -0.026,-0.157 -0.125,-0.276 -0.129,-0.159 -0.282,-0.164 -0.464,-0.018 l -0.533,0.438 z m 0.681,0.829 0.409,-0.337 0.129,-0.11 c 0.125,-0.104 0.195,-0.189 0.206,-0.258 0.011,-0.068 -0.031,-0.16 -0.125,-0.274 -0.099,-0.12 -0.182,-0.177 -0.249,-0.174 -0.068,0.004 -0.182,0.073 -0.348,0.208 l -0.479,0.393 z"
         id="path178"
         inkscape:connector-curvature="0" /><path
         style="fill:#ffffff"
         d="m 324.965,328.652 1.249,1.713 0.964,-0.704 0.256,0.35 -1.357,0.99 -1.5,-2.063 z"
         id="path180"
         inkscape:connector-curvature="0" /><path
         style="fill:#ffffff"
         d="m 327.095,327.163 c 0.392,-0.251 0.683,-0.347 0.88,-0.29 0.194,0.058 0.437,0.311 0.726,0.761 0.314,0.492 0.457,0.838 0.427,1.039 -0.031,0.2 -0.263,0.439 -0.695,0.716 -0.39,0.251 -0.683,0.35 -0.88,0.297 -0.194,-0.054 -0.429,-0.295 -0.706,-0.724 -0.328,-0.513 -0.479,-0.869 -0.45,-1.072 0.029,-0.203 0.261,-0.448 0.698,-0.727 z m 0.192,0.369 c -0.273,0.175 -0.411,0.313 -0.411,0.413 -0.002,0.1 0.132,0.358 0.398,0.774 0.199,0.309 0.346,0.476 0.439,0.505 0.094,0.028 0.273,-0.043 0.538,-0.213 0.254,-0.162 0.381,-0.294 0.385,-0.397 0.007,-0.103 -0.107,-0.334 -0.337,-0.692 -0.231,-0.359 -0.392,-0.556 -0.48,-0.592 -0.09,-0.035 -0.267,0.031 -0.532,0.202 z"
         id="path182"
         inkscape:connector-curvature="0" /><path
         style="fill:#ffffff"
         d="m 330.596,327.034 0.425,-0.236 0.044,0.076 c 0.17,0.311 0.225,0.543 0.161,0.697 -0.061,0.154 -0.286,0.337 -0.676,0.552 -0.439,0.245 -0.75,0.322 -0.932,0.234 -0.181,-0.087 -0.443,-0.444 -0.791,-1.069 -0.203,-0.368 -0.27,-0.649 -0.197,-0.841 0.074,-0.193 0.328,-0.41 0.766,-0.651 0.317,-0.177 0.556,-0.247 0.718,-0.21 0.159,0.036 0.316,0.195 0.474,0.479 l 0.031,0.05 -0.427,0.234 -0.032,-0.056 c -0.079,-0.146 -0.16,-0.225 -0.236,-0.235 -0.079,-0.01 -0.215,0.04 -0.411,0.148 -0.263,0.145 -0.402,0.265 -0.42,0.358 -0.018,0.093 0.061,0.298 0.238,0.616 0.236,0.427 0.4,0.667 0.489,0.719 0.093,0.052 0.268,0.007 0.527,-0.137 0.21,-0.118 0.335,-0.214 0.372,-0.292 0.039,-0.079 0.018,-0.192 -0.065,-0.339 z"
         id="path184"
         inkscape:connector-curvature="0" /><path
         style="fill:#ffffff"
         d="m 331.04,324.966 0.444,0.938 0.205,-0.098 0.323,-1.301 0.545,-0.257 -0.402,1.559 1.59,0.699 -0.562,0.266 -1.313,-0.599 -0.21,0.098 0.47,1 -0.438,0.206 -1.089,-2.306 z"
         id="path186"
         inkscape:connector-curvature="0" /><path
         style="fill:#ffffff"
         d="m 335.031,325.025 0.45,-0.179 0.033,0.081 c 0.131,0.33 0.155,0.567 0.071,0.711 -0.08,0.145 -0.327,0.299 -0.741,0.461 -0.468,0.186 -0.787,0.223 -0.953,0.113 -0.168,-0.11 -0.383,-0.498 -0.647,-1.162 -0.155,-0.392 -0.184,-0.679 -0.087,-0.859 0.098,-0.181 0.378,-0.364 0.842,-0.548 0.339,-0.133 0.586,-0.172 0.739,-0.116 0.155,0.057 0.29,0.235 0.408,0.537 l 0.024,0.054 -0.453,0.178 -0.023,-0.062 c -0.062,-0.155 -0.129,-0.242 -0.206,-0.262 -0.076,-0.021 -0.216,0.01 -0.426,0.093 -0.28,0.11 -0.434,0.211 -0.462,0.301 -0.03,0.09 0.022,0.305 0.155,0.643 0.182,0.453 0.311,0.713 0.396,0.775 0.084,0.064 0.263,0.041 0.538,-0.068 0.224,-0.089 0.359,-0.169 0.407,-0.242 0.048,-0.073 0.041,-0.188 -0.02,-0.345 z"
         id="path188"
         inkscape:connector-curvature="0" /><path
         style="fill:#ffffff"
         d="m 337.347,322.517 0.778,2.428 -0.461,0.148 -0.337,-1.05 -1.138,0.364 0.337,1.05 -0.461,0.147 -0.781,-2.428 0.462,-0.149 0.319,0.992 1.139,-0.365 -0.318,-0.991 z"
         id="path190"
         inkscape:connector-curvature="0" /><path
         style="fill:#ffffff"
         d="m 339.888,323.993 -1.069,0.265 -0.035,0.513 -0.496,0.124 0.208,-2.68 0.706,-0.174 1.452,2.268 -0.49,0.122 z m -0.195,-0.32 -0.748,-1.184 -0.101,1.394 z"
         id="path192"
         inkscape:connector-curvature="0" /><path
         style="fill:#ffffff"
         d="m 340.823,321.69 0.501,2.5 -0.475,0.095 -0.503,-2.501 z"
         id="path194"
         inkscape:connector-curvature="0" /><path
         style="fill:#ffffff"
         d="m 343.69,321.223 0.379,2.522 -0.812,0.123 -0.928,-1.277 c -0.046,-0.062 -0.12,-0.175 -0.223,-0.336 l -0.106,-0.17 -0.107,-0.168 -0.017,0.001 0.03,0.167 0.03,0.163 0.053,0.331 0.217,1.446 -0.478,0.072 -0.378,-2.522 0.81,-0.122 0.848,1.18 c 0.075,0.106 0.164,0.232 0.265,0.383 l 0.127,0.19 0.127,0.192 0.016,-0.003 -0.028,-0.162 -0.031,-0.162 -0.052,-0.324 -0.219,-1.452 z"
         id="path196"
         inkscape:connector-curvature="0" /><path
         style="fill:#ffffff"
         d="m 345.215,323.315 -0.053,-0.747 -0.729,0.05 -0.028,-0.397 0.73,-0.049 -0.052,-0.748 0.428,-0.029 0.051,0.747 0.739,-0.051 0.026,0.398 -0.739,0.05 0.053,0.747 z"
         id="path198"
         inkscape:connector-curvature="0" /><path
         style="fill:#ffffff"
         d="m 349.361,323.503 0.129,-2.548 1.253,0.064 c 0.293,0.016 0.489,0.073 0.595,0.172 0.099,0.099 0.145,0.278 0.131,0.538 -0.018,0.315 -0.15,0.494 -0.404,0.537 v 0.009 c 0.289,0.061 0.424,0.27 0.406,0.629 -0.015,0.26 -0.078,0.439 -0.196,0.538 -0.116,0.099 -0.315,0.141 -0.595,0.128 z m 0.503,-0.383 0.528,0.028 0.173,0.005 c 0.162,0.008 0.271,-0.01 0.324,-0.053 0.055,-0.044 0.087,-0.139 0.094,-0.287 0.009,-0.155 -0.016,-0.254 -0.065,-0.295 -0.055,-0.042 -0.186,-0.07 -0.398,-0.081 l -0.618,-0.031 z m 0.055,-1.071 0.595,0.031 c 0.189,0.01 0.312,-0.005 0.367,-0.045 0.055,-0.04 0.087,-0.136 0.094,-0.29 0.011,-0.204 -0.099,-0.312 -0.33,-0.323 l -0.691,-0.036 z"
         id="path200"
         inkscape:connector-curvature="0" /><path
         style="fill:#ffffff"
         d="m 352.497,321.16 -0.228,2.104 1.188,0.129 -0.046,0.431 -1.671,-0.182 0.275,-2.535 z"
         id="path202"
         inkscape:connector-curvature="0" /><path
         style="fill:#ffffff"
         d="m 355.095,321.491 c 0.457,0.077 0.739,0.203 0.844,0.376 0.105,0.174 0.114,0.525 0.024,1.051 -0.097,0.577 -0.226,0.928 -0.383,1.056 -0.157,0.127 -0.49,0.148 -0.995,0.062 -0.457,-0.078 -0.741,-0.201 -0.851,-0.372 -0.109,-0.17 -0.12,-0.506 -0.035,-1.012 0.101,-0.599 0.229,-0.963 0.388,-1.096 0.157,-0.129 0.494,-0.151 1.008,-0.065 z m -0.106,0.403 c -0.323,-0.055 -0.516,-0.045 -0.583,0.028 -0.068,0.073 -0.145,0.353 -0.228,0.841 -0.06,0.362 -0.063,0.584 -0.014,0.668 0.051,0.085 0.229,0.153 0.538,0.205 0.298,0.051 0.481,0.039 0.556,-0.034 0.072,-0.074 0.145,-0.32 0.217,-0.739 0.069,-0.421 0.085,-0.676 0.041,-0.761 -0.043,-0.087 -0.218,-0.156 -0.527,-0.208 z"
         id="path204"
         inkscape:connector-curvature="0" /><path
         style="fill:#ffffff"
         d="m 357.765,323.75 0.473,0.111 -0.022,0.085 c -0.078,0.345 -0.196,0.554 -0.345,0.625 -0.149,0.072 -0.44,0.056 -0.873,-0.046 -0.49,-0.116 -0.771,-0.267 -0.847,-0.453 -0.074,-0.187 -0.03,-0.629 0.136,-1.324 0.097,-0.41 0.236,-0.661 0.418,-0.754 0.184,-0.093 0.519,-0.082 1.006,0.034 0.354,0.083 0.577,0.192 0.672,0.327 0.094,0.134 0.103,0.358 0.028,0.674 l -0.014,0.056 -0.473,-0.112 0.018,-0.063 c 0.035,-0.163 0.031,-0.273 -0.02,-0.333 -0.05,-0.06 -0.184,-0.116 -0.402,-0.167 -0.293,-0.069 -0.477,-0.075 -0.553,-0.017 -0.074,0.058 -0.155,0.263 -0.238,0.615 -0.112,0.476 -0.153,0.763 -0.121,0.863 0.033,0.1 0.193,0.184 0.481,0.252 0.234,0.056 0.392,0.067 0.473,0.035 0.081,-0.032 0.142,-0.131 0.179,-0.296 z"
         id="path206"
         inkscape:connector-curvature="0" /><path
         style="fill:#ffffff"
         d="m 359.479,322.518 -0.302,0.994 0.216,0.066 1.115,-0.745 0.575,0.175 -1.345,0.884 0.702,1.586 -0.593,-0.181 -0.57,-1.329 -0.222,-0.068 -0.321,1.056 -0.463,-0.141 0.745,-2.44 z"
         id="path208"
         inkscape:connector-curvature="0" /><path
         style="fill:#ffffff"
         d="m 362.386,325.246 0.454,0.173 -0.03,0.082 c -0.127,0.333 -0.267,0.524 -0.427,0.576 -0.157,0.05 -0.443,-10e-4 -0.859,-0.159 -0.47,-0.177 -0.73,-0.364 -0.78,-0.559 -0.051,-0.195 0.05,-0.626 0.304,-1.295 0.148,-0.394 0.319,-0.625 0.514,-0.694 0.192,-0.069 0.525,-0.016 0.991,0.162 0.341,0.128 0.549,0.265 0.623,0.411 0.076,0.146 0.059,0.369 -0.057,0.672 l -0.02,0.055 -0.455,-0.173 0.023,-0.06 c 0.06,-0.156 0.068,-0.268 0.026,-0.333 -0.043,-0.065 -0.168,-0.138 -0.378,-0.217 -0.282,-0.106 -0.464,-0.135 -0.547,-0.088 -0.083,0.047 -0.188,0.24 -0.314,0.579 -0.173,0.458 -0.25,0.737 -0.229,0.84 0.017,0.103 0.166,0.206 0.443,0.312 0.226,0.085 0.379,0.117 0.464,0.095 0.085,-0.02 0.157,-0.111 0.217,-0.269 z"
         id="path210"
         inkscape:connector-curvature="0" /><path
         style="fill:#ffffff"
         d="m 365.792,324.948 -1.058,2.322 -0.439,-0.2 0.457,-1.003 -1.09,-0.497 -0.457,1.004 -0.439,-0.201 1.057,-2.321 0.441,0.2 -0.431,0.948 1.087,0.496 0.433,-0.948 z"
         id="path212"
         inkscape:connector-curvature="0" /><path
         style="fill:#ffffff"
         d="m 366.681,327.752 -0.969,-0.522 -0.37,0.355 -0.452,-0.243 1.957,-1.842 0.641,0.344 -0.453,2.654 -0.443,-0.238 z m 0.071,-0.368 0.243,-1.378 -1.011,0.963 z"
         id="path214"
         inkscape:connector-curvature="0" /><path
         style="fill:#ffffff"
         d="m 368.92,326.672 -1.311,2.189 -0.417,-0.248 1.31,-2.189 z"
         id="path216"
         inkscape:connector-curvature="0" /><path
         style="fill:#ffffff"
         d="m 371.366,328.262 -1.417,2.123 -0.682,-0.457 0.17,-1.567 c 0.011,-0.08 0.028,-0.212 0.063,-0.401 l 0.033,-0.197 0.032,-0.196 -0.013,-0.011 -0.088,0.144 -0.087,0.142 -0.184,0.282 -0.812,1.216 -0.402,-0.269 1.417,-2.121 0.683,0.455 -0.169,1.444 c -0.013,0.128 -0.035,0.282 -0.062,0.459 l -0.034,0.227 -0.035,0.228 0.013,0.011 0.088,-0.141 0.087,-0.14 0.18,-0.276 0.815,-1.222 z"
         id="path218"
         inkscape:connector-curvature="0" /><path
         style="fill:#ffffff"
         d="m 371.078,330.834 0.457,-0.593 -0.577,-0.447 0.242,-0.315 0.579,0.448 0.455,-0.594 0.342,0.262 -0.46,0.593 0.589,0.452 -0.245,0.315 -0.586,-0.452 -0.457,0.592 z"
         id="path220"
         inkscape:connector-curvature="0" /><path
         style="fill:#ffffff"
         d="m 374.235,333.968 1.824,-1.782 0.877,0.896 c 0.203,0.21 0.311,0.387 0.316,0.528 0.007,0.142 -0.083,0.304 -0.269,0.485 -0.226,0.221 -0.446,0.26 -0.66,0.121 l -0.007,0.007 c 0.173,0.24 0.129,0.485 -0.129,0.737 -0.186,0.182 -0.356,0.269 -0.51,0.262 -0.153,-0.008 -0.326,-0.11 -0.522,-0.311 z m 0.63,0.061 0.37,0.38 0.12,0.119 c 0.115,0.116 0.205,0.177 0.275,0.181 0.07,0.005 0.157,-0.044 0.263,-0.148 0.111,-0.108 0.161,-0.195 0.15,-0.262 -0.009,-0.066 -0.087,-0.176 -0.236,-0.328 l -0.431,-0.443 z m 0.768,-0.749 0.411,0.424 c 0.136,0.137 0.236,0.21 0.304,0.218 0.066,0.008 0.155,-0.041 0.265,-0.148 0.146,-0.143 0.138,-0.297 -0.023,-0.462 l -0.483,-0.495 z"
         id="path222"
         inkscape:connector-curvature="0" /><path
         style="fill:#ffffff"
         d="m 378.135,334.383 -1.599,1.39 0.785,0.901 -0.328,0.285 -1.103,-1.266 1.925,-1.675 z"
         id="path224"
         inkscape:connector-curvature="0" /><path
         style="fill:#ffffff"
         d="m 379.808,336.379 c 0.284,0.366 0.404,0.65 0.365,0.85 -0.042,0.198 -0.273,0.462 -0.695,0.789 -0.464,0.357 -0.796,0.529 -0.997,0.517 -0.201,-0.014 -0.46,-0.224 -0.774,-0.631 -0.284,-0.366 -0.409,-0.649 -0.372,-0.848 0.035,-0.199 0.256,-0.455 0.66,-0.767 0.479,-0.372 0.825,-0.552 1.028,-0.542 0.203,0.009 0.467,0.22 0.785,0.632 z m -0.353,0.223 c -0.198,-0.257 -0.348,-0.382 -0.445,-0.373 -0.102,0.006 -0.346,0.162 -0.739,0.464 -0.289,0.224 -0.444,0.384 -0.462,0.481 -0.021,0.097 0.065,0.271 0.256,0.518 0.186,0.237 0.328,0.354 0.431,0.35 0.104,-0.003 0.324,-0.136 0.661,-0.397 0.339,-0.26 0.52,-0.437 0.546,-0.53 0.026,-0.093 -0.056,-0.263 -0.248,-0.513 z"
         id="path226"
         inkscape:connector-curvature="0" /><path
         style="fill:#ffffff"
         d="m 380.242,339.854 0.27,0.403 -0.072,0.049 c -0.293,0.198 -0.521,0.273 -0.68,0.224 -0.158,-0.049 -0.361,-0.258 -0.608,-0.626 -0.28,-0.417 -0.387,-0.72 -0.314,-0.908 0.069,-0.188 0.404,-0.481 0.997,-0.881 0.348,-0.236 0.621,-0.326 0.819,-0.27 0.197,0.056 0.436,0.291 0.716,0.705 0.203,0.302 0.293,0.534 0.271,0.696 -0.021,0.163 -0.166,0.334 -0.435,0.515 l -0.049,0.033 -0.269,-0.402 0.053,-0.037 c 0.14,-0.093 0.21,-0.179 0.212,-0.257 0.004,-0.079 -0.055,-0.21 -0.182,-0.396 -0.168,-0.249 -0.3,-0.378 -0.396,-0.387 -0.094,-0.009 -0.291,0.089 -0.593,0.291 -0.404,0.273 -0.628,0.458 -0.671,0.553 -0.044,0.094 0.017,0.266 0.181,0.511 0.136,0.2 0.243,0.315 0.326,0.346 0.081,0.032 0.19,0 0.33,-0.094 z"
         id="path228"
         inkscape:connector-curvature="0" /><path
         style="fill:#ffffff"
         d="m 382.34,340.116 -0.896,0.523 0.113,0.198 1.325,0.207 0.302,0.521 -1.585,-0.264 -0.558,1.646 -0.315,-0.537 0.481,-1.363 -0.116,-0.2 -0.953,0.558 -0.245,-0.418 2.202,-1.288 z"
         id="path230"
         inkscape:connector-curvature="0" /><path
         style="fill:#ffffff"
         d="m 382.626,344.091 0.217,0.435 -0.076,0.039 c -0.319,0.159 -0.552,0.205 -0.704,0.135 -0.149,-0.069 -0.326,-0.303 -0.523,-0.699 -0.228,-0.45 -0.293,-0.763 -0.196,-0.94 0.094,-0.177 0.464,-0.426 1.102,-0.747 0.377,-0.188 0.658,-0.242 0.847,-0.161 0.19,0.081 0.396,0.344 0.621,0.791 0.162,0.326 0.223,0.567 0.182,0.725 -0.044,0.158 -0.21,0.309 -0.501,0.454 l -0.05,0.028 -0.219,-0.435 0.061,-0.029 c 0.146,-0.075 0.228,-0.151 0.243,-0.228 0.013,-0.078 -0.03,-0.217 -0.132,-0.418 -0.135,-0.267 -0.249,-0.412 -0.339,-0.434 -0.094,-0.02 -0.304,0.05 -0.627,0.213 -0.436,0.219 -0.683,0.373 -0.737,0.461 -0.057,0.088 -0.018,0.266 0.114,0.53 0.108,0.215 0.201,0.343 0.275,0.387 0.078,0.04 0.192,0.023 0.343,-0.053 z"
         id="path232"
         inkscape:connector-curvature="0" /><path
         style="fill:#ffffff"
         d="m 385.331,346.182 -2.353,0.988 -0.187,-0.446 1.018,-0.428 -0.466,-1.102 -1.018,0.427 -0.186,-0.446 2.351,-0.989 0.19,0.447 -0.96,0.403 0.462,1.103 0.96,-0.404 z"
         id="path234"
         inkscape:connector-curvature="0" /><path
         style="fill:#ffffff"
         d="m 384.083,348.842 -0.356,-1.041 -0.515,0.009 -0.168,-0.484 2.689,-0.026 0.234,0.688 -2.132,1.642 -0.162,-0.475 z m 0.302,-0.222 1.112,-0.849 -1.399,0.022 z"
         id="path236"
         inkscape:connector-curvature="0" /><path
         style="fill:#ffffff"
         d="m 386.455,349.563 -2.447,0.72 -0.135,-0.465 2.446,-0.718 z"
         id="path238"
         inkscape:connector-curvature="0" /><path
         style="fill:#ffffff"
         d="m 387.177,352.398 -2.481,0.596 -0.192,-0.798 1.191,-1.035 c 0.059,-0.051 0.166,-0.134 0.317,-0.251 l 0.159,-0.121 0.16,-0.123 -0.007,-0.018 -0.16,0.046 -0.161,0.045 -0.324,0.081 -1.423,0.343 -0.114,-0.471 2.482,-0.596 0.189,0.798 -1.102,0.946 c -0.097,0.084 -0.217,0.182 -0.356,0.295 l -0.18,0.143 -0.182,0.144 0.005,0.016 0.159,-0.043 0.158,-0.043 0.318,-0.082 1.429,-0.342 z"
         id="path240"
         inkscape:connector-curvature="0" /><path
         style="fill:#ffffff"
         d="m 385.216,354.079 0.738,-0.123 -0.12,-0.721 0.392,-0.065 0.122,0.72 0.739,-0.125 0.07,0.421 -0.739,0.125 0.125,0.729 -0.394,0.066 -0.123,-0.729 -0.739,0.124 z"
         id="path242"
         inkscape:connector-curvature="0" /></g><circle
       style="fill:none;stroke:#ffffff;stroke-width:0.5;stroke-miterlimit:10"
       cx="348.32401"
       cy="360.78699"
       r="34.512001"
       id="circle246" /><path
       style="fill:none;stroke:#ffffff;stroke-width:0.30000001;stroke-miterlimit:10"
       d="m 389.567,357.352 -2.996,-1.664 h -6.878 l -2.771,-2.662 c 0,0 -3.385,-11.147 -10.993,-15.816 -9.197,-6.203 -16.63,-5.593 -16.63,-5.593 v 3.993"
       id="path248"
       inkscape:connector-curvature="0" /><path
       style="fill:none;stroke:#ffffff;stroke-width:0.30000001;stroke-miterlimit:10"
       d="m 389.567,358.85 -2.885,-1.83 -8.373,0.054 -2.696,-2.818 c 0,0 -3.018,-11.047 -10.007,-15.817 -8.542,-5.934 -15.297,-5.712 -15.297,-5.712 v 5.577"
       id="path250"
       inkscape:connector-curvature="0" /><path
       style="fill:none;stroke:#ffffff;stroke-width:0.30000001;stroke-miterlimit:10"
       d="m 389.567,359.866 -2.773,-1.459 -8.931,0.055 -2.843,-3.047 c 0,0 -2.897,-10.242 -9.525,-15.367 -9.149,-6.933 -14.365,-6.268 -14.365,-6.268 v 6.934"
       id="path252"
       inkscape:connector-curvature="0" /><path
       style="fill:none;stroke:#ffffff;stroke-width:0.30000001;stroke-miterlimit:10"
       d="m 389.567,360.847 -3.051,-1.554 -10.431,-0.005 -1.828,-2.433 c 0,0 -2.498,-9.934 -8.426,-15.081 -8.188,-6.961 -12.852,-6.293 -12.852,-6.293 v 6.962"
       id="path254"
       inkscape:connector-curvature="0" /><path
       style="fill:none;stroke:#ffffff;stroke-width:0.30000001;stroke-miterlimit:10"
       d="m 389.271,361.914 -2.644,-1.511 -11.33,0.106 -2.093,-2.436 c 0,0 -0.221,-8.798 -7.542,-14.976 -7.599,-6.876 -13.035,-6.854 -13.035,-6.854 l -0.011,7.4"
       id="path256"
       inkscape:connector-curvature="0" /><path
       style="fill:none;stroke:#ffffff;stroke-width:0.30000001;stroke-miterlimit:10"
       d="m 389.564,363.463 -3.68,-1.947 -11.328,0.106 -2.095,-2.436 c 0,0 -0.221,-8.799 -7.542,-14.977 -7.6,-6.876 -13.035,-6.855 -13.035,-6.855 l -0.012,7.402"
       id="path258"
       inkscape:connector-curvature="0" /><path
       style="fill:none;stroke:#ffffff;stroke-width:0.30000001;stroke-miterlimit:10"
       d="m 389.315,364.645 -2.799,-1.523 -13.145,-0.112 -2.087,-2.385 c 0,0 -0.244,-9.971 -7.563,-16.147 -7.602,-6.877 -12.924,-6.723 -12.924,-6.723 l -0.011,7.401"
       id="path260"
       inkscape:connector-curvature="0" /><path
       style="fill:none;stroke:#ffffff;stroke-width:0.30000001;stroke-miterlimit:10"
       d="m 389.315,365.828 -2.688,-1.764 -14.306,-0.278 -2.086,-2.384 c 0,0 0.085,-10.129 -7.234,-16.307 -7.602,-6.876 -13.252,-6.564 -13.252,-6.564 l -0.011,7.401"
       id="path262"
       inkscape:connector-curvature="0" /><polyline
       style="fill:none;stroke:#ffffff;stroke-width:0.30000001;stroke-miterlimit:10"
       points="388.9,367.496 385.29,366.255    371.931,365.932  "
       id="polyline264" /><path
       style="fill:none;stroke:#ffffff;stroke-width:0.30000001;stroke-miterlimit:10"
       d="m 388.625,368.667 -3.162,-0.998 -13.478,-0.276 -2.941,2.717 c 0,0 -2.051,5.713 -6.766,8.654 -4.715,2.938 -11.148,5.102 -11.148,5.102"
       id="path266"
       inkscape:connector-curvature="0" /><path
       style="fill:none;stroke:#ffffff;stroke-width:0.30000001;stroke-miterlimit:10"
       d="m 388.625,368.117 -3.301,-1.033 -14.089,-0.276 -2.939,2.718 c 0,0 -2.051,5.712 -6.766,8.652 -4.715,2.94 -11.148,5.102 -11.148,5.102"
       id="path268"
       inkscape:connector-curvature="0" /><path
       style="fill:none;stroke:#ffffff;stroke-width:0.30000001;stroke-miterlimit:10"
       d="m 388.29,369.611 -3.051,-1.168 h -12.511 l -2.94,2.719 c 0,0 -2.052,5.713 -6.767,8.654 -4.715,2.939 -11.148,5.102 -11.148,5.102"
       id="path270"
       inkscape:connector-curvature="0" /><path
       style="fill:none;stroke:#ffffff;stroke-width:0.30000001;stroke-miterlimit:10"
       d="m 388.071,370.796 -2.554,-1.186 h -12.205 l -2.941,2.717 c 0,0 -2.049,5.187 -6.649,8.542 -4.492,3.272 -11.104,4.549 -11.104,4.549"
       id="path272"
       inkscape:connector-curvature="0" /><g
       id="g278"><path
         style="fill:none;stroke:#ffffff;stroke-width:0.30000001;stroke-miterlimit:10"
         d="m 387.736,371.685 -2.497,-0.888 h -11.264 l -2.939,2.717 c 0,0 -1.837,4.406 -6.372,7.855 -4.883,3.715 -13.09,4.659 -13.09,4.659"
         id="path274"
         inkscape:connector-curvature="0" /><path
         style="fill:none;stroke:#ffffff;stroke-width:0.30000001;stroke-miterlimit:10"
         d="m 351.574,385.418 v 1.939 l 1.946,-0.302 c 0,0 6.873,-1.308 11.754,-5.023 4.533,-3.449 6.665,-7.493 6.665,-7.493 l 2.941,-2.716 h 10.415 l 2.44,1.003"
         id="path276"
         inkscape:connector-curvature="0" /></g><line
       style="fill:none;stroke:#ffffff;stroke-width:0.30000001;stroke-miterlimit:10"
       x1="354.569"
       y1="376.681"
       x2="354.569"
       y2="381.755"
       id="line280" /><line
       style="fill:none;stroke:#ffffff;stroke-width:0.30000001;stroke-miterlimit:10"
       x1="355.39999"
       y1="376.681"
       x2="355.39999"
       y2="380.202"
       id="line282" /><path
       style="fill:none;stroke:#ffffff;stroke-width:0.30000001;stroke-miterlimit:10"
       d="m 352.238,382.255 c 0,0 2.2,-0.5 3.941,-1.053 1.887,-0.603 3.549,-1.611 3.549,-1.611 h -4.826"
       id="path284"
       inkscape:connector-curvature="0" /><path
       style="fill:none;stroke:#ffffff;stroke-width:0.30000001;stroke-miterlimit:10"
       d="m 350.31,384.641 v 4.049 c 0,0 7.199,-0.61 11.803,-3.271 4.643,-2.684 8.913,-7.904 8.913,-7.904"
       id="path286"
       inkscape:connector-curvature="0" /><path
       style="fill:none;stroke:#ffffff;stroke-width:0.30000001;stroke-miterlimit:10"
       d="m 349.079,385.804 v 4.317 c 0,0 7.929,0 13.033,-3.271 4.514,-2.894 9.818,-8.436 9.818,-8.436"
       id="path288"
       inkscape:connector-curvature="0" /><path
       style="fill:none;stroke:#ffffff;stroke-width:0.30000001;stroke-miterlimit:10"
       d="m 373.205,378.393 c 0,0 -8.571,10.42 -16.002,11.728 -6.894,1.212 -11.396,1.896 -18.886,-0.432 -7.487,-2.331 -22.497,-13.078 -20.381,-32.337 1.413,-12.875 10.958,-26.724 30.587,-27.232 22.762,1.179 29.062,21.742 29.062,21.742"
       id="path290"
       inkscape:connector-curvature="0" /><path
       style="fill:none;stroke:#ffffff;stroke-width:0.30000001;stroke-miterlimit:10"
       d="M 343.364,336.243 V 331.6 c 0,0 -24.747,5.233 -24.124,29.077 0.774,29.732 29.839,29.444 29.839,29.444"
       id="path292"
       inkscape:connector-curvature="0" /><path
       style="fill:none;stroke:#ffffff;stroke-width:0.30000001;stroke-miterlimit:10"
       d="m 342.312,336.664 -0.111,-3.495 c 0,0 -21.761,5.36 -21.747,27.074 0.015,29.295 28.539,29.001 28.539,29.001"
       id="path294"
       inkscape:connector-curvature="0" /><path
       style="fill:none;stroke:#ffffff;stroke-width:0.30000001;stroke-miterlimit:10"
       d="m 341.259,337.355 v -2.744 c 0,0 -19.795,5.103 -19.795,25.065 0,28.716 27.529,28.428 27.529,28.428"
       id="path296"
       inkscape:connector-curvature="0" /><path
       style="fill:none;stroke:#ffffff;stroke-width:0.30000001;stroke-miterlimit:10"
       d="m 340.981,344.04 v -8.576 c 0,0 -7,2.363 -13.534,9.741 -5.159,5.824 -5.159,15.656 -5.159,15.656 l 2.274,2.427 h 21.188"
       id="path298"
       inkscape:connector-curvature="0" /><path
       style="fill:none;stroke:#ffffff;stroke-width:0.30000001;stroke-miterlimit:10"
       d="m 340.537,344.477 v -7.757 c 0,0 -5.001,0.378 -11.537,7.757 -5.159,5.823 -5.854,15.33 -5.854,15.33 l 2.274,2.427 h 21.188"
       id="path300"
       inkscape:connector-curvature="0" /><path
       style="fill:none;stroke:#ffffff;stroke-width:0.30000001;stroke-miterlimit:10"
       d="m 340.48,345.095 0.055,-7.105 c 0,0 -3.937,0.539 -10.092,6.487 -5.597,5.404 -6.246,14.175 -6.246,14.175 l 2.274,2.427 h 21.188"
       id="path302"
       inkscape:connector-curvature="0" /><path
       style="fill:none;stroke:#ffffff;stroke-width:0.30000001;stroke-miterlimit:10"
       d="m 340.537,346.259 v -7.155 c 0,0 -2.1,-0.575 -8.255,5.373 -5.596,5.404 -6.665,13.361 -6.665,13.361 l 2.273,2.426 h 21.188"
       id="path304"
       inkscape:connector-curvature="0" /><path
       style="fill:none;stroke:#ffffff;stroke-width:0.30000001;stroke-miterlimit:10"
       d="m 334.021,343.764 c 0,0 6.156,-5.948 0,0 -5.596,5.404 -7.487,12.975 -7.487,12.975 l 2.274,2.426 h 21.188"
       id="path306"
       inkscape:connector-curvature="0" /><path
       style="fill:none;stroke:#ffffff;stroke-width:0.30000001;stroke-miterlimit:10"
       d="m 340.592,347.258 -0.055,-7.156 c 0,0 -2.271,0.111 -5.661,3.772 -5.283,5.709 -6.764,11.938 -6.764,11.938 l 2.273,2.427 h 21.188"
       id="path308"
       inkscape:connector-curvature="0" /><path
       style="fill:none;stroke:#ffffff;stroke-width:0.30000001;stroke-miterlimit:10"
       d="m 339.844,340.721 c 0,0 0.637,0.167 -2.497,2.875 -5.885,5.088 -8.082,11.367 -8.082,11.367 l 2.274,2.426 h 21.188"
       id="path310"
       inkscape:connector-curvature="0" /><path
       style="fill:none;stroke:#ffffff;stroke-width:0.30000001;stroke-miterlimit:10"
       d="m 339.844,342.395 c -5.887,5.088 -8.736,11.366 -8.736,11.366 l 2.274,2.426 h 18.856"
       id="path312"
       inkscape:connector-curvature="0" /><polyline
       style="fill:none;stroke:#ffffff;stroke-width:0.30000001;stroke-miterlimit:10"
       points="340.994,349.677 334.603,349.534    332.66,352.461 334.603,354.856 340.994,355.133  "
       id="polyline314" /><line
       style="fill:none;stroke:#ffffff;stroke-width:0.30000001;stroke-miterlimit:10"
       x1="334.603"
       y1="349.534"
       x2="334.603"
       y2="354.85599"
       id="line316" /><line
       style="fill:none;stroke:#ffffff;stroke-width:0.30000001;stroke-miterlimit:10"
       x1="335.92801"
       y1="349.534"
       x2="335.92801"
       y2="354.91299"
       id="line318" /><path
       style="fill:none;stroke:#ffffff;stroke-width:0.30000001;stroke-miterlimit:10"
       d="m 342.394,365.061 -17.221,-0.417 -2.412,2.026 c 0,0 1.997,6.752 5.352,10.844 3.524,4.299 7.489,6.351 7.489,6.351"
       id="path320"
       inkscape:connector-curvature="0" /><path
       style="fill:none;stroke:#ffffff;stroke-width:0.30000001;stroke-miterlimit:10"
       d="m 342.103,365.723 -15.569,-0.245 -1.861,1.915 c 0,0 0.945,5.49 4.496,9.289 3.492,3.731 7.088,6.092 7.088,6.092"
       id="path322"
       inkscape:connector-curvature="0" /><path
       style="fill:none;stroke:#ffffff;stroke-width:0.30000001;stroke-miterlimit:10"
       d="m 339.73,366.833 -12.366,-0.195 -1.479,1.52 c 0,0 0.75,4.36 3.571,7.378 2.772,2.964 5.629,4.838 5.629,4.838"
       id="path324"
       inkscape:connector-curvature="0" /><path
       style="fill:none;stroke:#ffffff;stroke-width:0.30000001;stroke-miterlimit:10"
       d="m 340.308,367.758 -11.279,-0.179 -1.348,1.387 c 0,0 0.685,3.977 3.259,6.729 2.528,2.705 5.133,4.414 5.133,4.414"
       id="path326"
       inkscape:connector-curvature="0" /><path
       style="fill:none;stroke:#ffffff;stroke-width:0.30000001;stroke-miterlimit:10"
       d="m 340.417,368.822 -9.941,-0.155 -1.352,2.129 c 0,0 0.854,2.239 3.121,4.665 2.229,2.383 4.439,4.248 4.439,4.248"
       id="path328"
       inkscape:connector-curvature="0" /><path
       style="fill:none;stroke:#ffffff;stroke-width:0.30000001;stroke-miterlimit:10"
       d="m 340.648,370.01 h -8.071 l -1.789,1.583 c 0,0 0.652,1.498 3.232,3.785 2.578,2.288 7.293,3.035 7.293,3.035"
       id="path330"
       inkscape:connector-curvature="0" /><path
       style="fill:#ffffff;stroke:#ffffff;stroke-width:0.5;stroke-miterlimit:10"
       d="m 334.771,377.748 -0.168,-6.737 h 1.449 v 7.402 c 0,0 -1.036,-0.67 -1.281,-0.665 z"
       id="path332"
       inkscape:connector-curvature="0" /><rect
       x="330.88699"
       y="358.85001"
       style="fill:#ffffff;stroke:#ffffff;stroke-width:0.25;stroke-miterlimit:10"
       width="3.9890001"
       height="1.553"
       id="rect334" /><rect
       x="330.88699"
       y="361.07901"
       style="fill:#ffffff;stroke:#ffffff;stroke-width:0.25;stroke-miterlimit:10"
       width="3.9890001"
       height="1.228"
       id="rect336" /><rect
       x="330.88699"
       y="363.19699"
       style="fill:#ffffff;stroke:#ffffff;stroke-width:0.25;stroke-miterlimit:10"
       width="3.9890001"
       height="1.448"
       id="rect338" /><rect
       x="330.814"
       y="365.18799"
       style="fill:#ffffff;stroke:#ffffff;stroke-width:0.25;stroke-miterlimit:10"
       width="3.9890001"
       height="1.45"
       id="rect340" /><rect
       x="330.66599"
       y="367.39301"
       style="fill:#ffffff;stroke:#ffffff;stroke-width:0.25;stroke-miterlimit:10"
       width="3.9909999"
       height="1.449"
       id="rect342" /><line
       style="fill:none;stroke:#ffffff;stroke-miterlimit:10"
       x1="332.021"
       y1="358.23901"
       x2="332.021"
       y2="370.30301"
       id="line344" /><line
       style="fill:none;stroke:#ffffff;stroke-miterlimit:10"
       x1="333.55099"
       y1="358.23901"
       x2="333.55099"
       y2="370.01001"
       id="line346" /><path
       style="fill:none;stroke:#ffffff;stroke-width:0.30000001;stroke-miterlimit:10"
       d="m 381.553,352.723 0.304,2.19 h -1.553 c 0,0 -3.16,-25.848 -33.001,-26.735 -11.369,-0.338 -31.157,9.478 -31.17,31.226 -0.018,25.197 19.241,33.812 32.191,34.11 21.614,0.499 30.038,-20.008 30.038,-20.008"
       id="path348"
       inkscape:connector-curvature="0" /><path
       style="fill:none;stroke:#ffffff;stroke-width:0.30000001;stroke-miterlimit:10"
       d="m 377.586,351.861 h 0.999 c 0,0 -6.088,-22.75 -30.926,-22.74 -19.982,0.007 -30.199,16.214 -30.54,31.282 -0.295,13.033 7.553,31.478 31.542,31.892 22.806,0.393 28.925,-19.468 28.925,-19.468"
       id="path350"
       inkscape:connector-curvature="0" /><path
       style="fill:none;stroke:#ffffff;stroke-width:0.30000001;stroke-miterlimit:10"
       d="m 358.508,342.395 c 3.449,2.966 5.325,4.521 8.161,8.855 2.646,4.046 2.655,10.463 2.655,10.463 l 1.948,2.558 15.301,0.374 2.513,1.748"
       id="path352"
       inkscape:connector-curvature="0" /><path
       style="fill:none;stroke:#ffffff;stroke-width:0.30000001;stroke-miterlimit:10"
       d="m 357.064,343.305 c 3.449,2.966 5.325,4.522 8.159,8.855 2.648,4.045 2.816,10.073 2.816,10.073 l 2.137,2.955 15.231,0.29 3.595,1.415"
       id="path354"
       inkscape:connector-curvature="0" /><path
       style="fill:none;stroke:#ffffff;stroke-width:0.30000001;stroke-miterlimit:10"
       d="m 356.234,344.207 c 0,0 6.044,4.493 8.32,9.54 2.272,5.047 1.607,8.818 1.607,8.818 l 3.162,4.242 -1.721,2.034 c 0,0 -1.387,3.219 -2.883,5.346 -1.382,1.963 -6.213,5.03 -6.213,5.03"
       id="path356"
       inkscape:connector-curvature="0" /><path
       style="fill:none;stroke:#ffffff;stroke-width:0.30000001;stroke-miterlimit:10"
       d="m 354.867,343.984 c 0,0 6.084,4.521 8.373,9.601 2.287,5.079 1.618,8.875 1.618,8.875 l 3.182,4.268 -1.729,2.046 c 0,0 -1.397,3.238 -2.904,5.38 -1.389,1.975 -6.249,5.062 -6.249,5.062"
       id="path358"
       inkscape:connector-curvature="0" /><path
       style="fill:none;stroke:#ffffff;stroke-width:0.30000001;stroke-miterlimit:10"
       d="m 354.386,344.481 c 0,0 5.752,4.403 7.917,9.348 2.162,4.945 1.528,8.641 1.528,8.641 l 3.007,4.157 -1.634,1.992 c 0,0 -1.318,3.154 -2.744,5.24 -1.314,1.922 -5.911,4.93 -5.911,4.93"
       id="path360"
       inkscape:connector-curvature="0" /><path
       style="fill:none;stroke:#ffffff;stroke-width:0.30000001;stroke-miterlimit:10"
       d="m 353.563,345.258 c 0,0 5.694,4.203 7.836,8.925 2.141,4.722 1.515,8.25 1.515,8.25 l 2.979,3.968 -1.62,1.903 c 0,0 -1.308,3.009 -2.718,5.001 -1.299,1.835 -5.85,4.706 -5.85,4.706"
       id="path362"
       inkscape:connector-curvature="0" /><path
       style="fill:none;stroke:#ffffff;stroke-width:0.30000001;stroke-miterlimit:10"
       d="m 352.342,345.258 c 0,0 5.696,4.203 7.837,8.925 2.144,4.722 1.516,8.25 1.516,8.25 l 2.979,3.968 -1.62,1.903 c 0,0 -1.306,3.009 -2.719,5.001 -1.297,1.835 -5.848,4.706 -5.848,4.706"
       id="path364"
       inkscape:connector-curvature="0" /><path
       style="fill:none;stroke:#ffffff;stroke-width:0.30000001;stroke-miterlimit:10"
       d="m 351.13,345.335 c 0,0 5.694,4.204 7.838,8.926 2.141,4.721 1.513,8.249 1.513,8.249 l 2.979,3.969 -1.618,1.904 c 0,0 -1.308,3.008 -2.718,5.001 -1.299,1.835 -5.853,4.707 -5.853,4.707"
       id="path366"
       inkscape:connector-curvature="0" /><path
       style="fill:none;stroke:#ffffff;stroke-width:0.30000001;stroke-miterlimit:10"
       d="m 350.069,345.335 c 0,0 5.694,4.204 7.835,8.926 2.144,4.721 1.516,8.249 1.516,8.249 l 2.979,3.969 -1.62,1.904 c 0,0 -1.306,3.008 -2.716,5.001 -1.302,1.835 -5.853,4.707 -5.853,4.707"
       id="path368"
       inkscape:connector-curvature="0" /><path
       style="fill:none;stroke:#ffffff;stroke-width:0.30000001;stroke-miterlimit:10"
       d="m 348.989,345.335 c 0,0 5.696,4.204 7.837,8.926 2.144,4.721 1.516,8.249 1.516,8.249 l 2.979,3.969 -1.62,1.904 c 0,0 -1.306,3.008 -2.716,5.001 -1.302,1.835 -5.853,4.707 -5.853,4.707"
       id="path370"
       inkscape:connector-curvature="0" /><path
       style="fill:none;stroke:#ffffff;stroke-width:0.30000001;stroke-miterlimit:10"
       d="m 347.837,345.335 c 0,0 5.696,4.204 7.837,8.926 2.142,4.721 1.514,8.249 1.514,8.249 l 2.98,3.969 -1.62,1.904 c 0,0 -1.306,3.008 -2.716,5.001 -1.302,1.835 -5.853,4.707 -5.853,4.707"
       id="path372"
       inkscape:connector-curvature="0" /><path
       style="fill:none;stroke:#ffffff;stroke-width:0.30000001;stroke-miterlimit:10"
       d="m 346.815,345.335 c 0,0 5.694,4.204 7.838,8.926 2.141,4.721 1.515,8.249 1.515,8.249 l 2.977,3.969 -1.62,1.904 c 0,0 -1.306,3.008 -2.716,5.001 -1.3,1.835 -5.85,4.707 -5.85,4.707"
       id="path374"
       inkscape:connector-curvature="0" /><path
       style="fill:none;stroke:#ffffff;stroke-width:0.30000001;stroke-miterlimit:10"
       d="m 345.709,345.335 c 0,0 5.694,4.204 7.835,8.926 2.144,4.721 1.516,8.249 1.516,8.249 l 2.979,3.969 -1.62,1.904 c 0,0 -1.304,3.008 -2.717,5.001 -1.299,1.835 -5.85,4.707 -5.85,4.707"
       id="path376"
       inkscape:connector-curvature="0" /><path
       style="fill:none;stroke:#ffffff;stroke-width:0.30000001;stroke-miterlimit:10"
       d="m 344.622,345.335 c 0,0 5.694,4.204 7.838,8.926 2.141,4.721 1.513,8.249 1.513,8.249 l 2.979,3.969 -1.62,1.904 c 0,0 -1.306,3.008 -2.716,5.001 -1.3,1.835 -5.853,4.707 -5.853,4.707"
       id="path378"
       inkscape:connector-curvature="0" /><rect
       x="352.98001"
       y="365.18799"
       style="fill:#ffffff;stroke:#ffffff;stroke-width:0.25;stroke-miterlimit:10"
       width="3.2539999"
       height="2.135"
       id="rect380" /><rect
       x="368.65701"
       y="365.91299"
       style="fill:#ffffff;stroke:#ffffff;stroke-width:0.25;stroke-miterlimit:10"
       width="4.1609998"
       height="1.118"
       id="rect382" /><rect
       x="374.314"
       y="363.28799"
       style="fill:#ffffff;stroke:#ffffff;stroke-width:0.15000001;stroke-miterlimit:10"
       width="5.0469999"
       height="5.9330001"
       id="rect384" /><rect
       x="382.24799"
       y="358.85001"
       style="fill:#ffffff;stroke:#ffffff;stroke-width:0.15000001;stroke-miterlimit:10"
       width="3.2149999"
       height="1.414"
       id="rect386" /><rect
       x="382.24799"
       y="361.20801"
       style="fill:#ffffff;stroke:#ffffff;stroke-width:0.15000001;stroke-miterlimit:10"
       width="3.2149999"
       height="1.413"
       id="rect388" /><rect
       x="382.24799"
       y="363.21301"
       style="fill:#ffffff;stroke:#ffffff;stroke-width:0.15000001;stroke-miterlimit:10"
       width="3.2149999"
       height="1.415"
       id="rect390" /><g
       id="g404"><rect
         x="344.62201"
         y="331.60001"
         style="fill:none;stroke:#ffffff;stroke-width:0.25;stroke-miterlimit:10"
         width="3.2149999"
         height="4.6430001"
         id="rect392" /><line
         style="fill:none;stroke:#ffffff;stroke-width:0.25;stroke-miterlimit:10"
         x1="344.62201"
         y1="332.72501"
         x2="347.659"
         y2="332.72501"
         id="line394" /><line
         style="fill:none;stroke:#ffffff;stroke-width:0.25;stroke-miterlimit:10"
         x1="344.74701"
         y1="333.76199"
         x2="347.78601"
         y2="333.76199"
         id="line396" /><line
         style="fill:none;stroke:#ffffff;stroke-width:0.25;stroke-miterlimit:10"
         x1="344.74701"
         y1="334.61099"
         x2="347.78601"
         y2="334.61099"
         id="line398" /><line
         style="fill:none;stroke:#ffffff;stroke-width:0.25;stroke-miterlimit:10"
         x1="346.267"
         y1="332.28201"
         x2="346.267"
         y2="335.85901"
         id="line400" /><line
         style="fill:none;stroke:#ffffff;stroke-width:0.25;stroke-miterlimit:10"
         x1="347.35699"
         y1="332.28201"
         x2="347.35699"
         y2="335.85901"
         id="line402" /></g><g
       id="g418"><rect
         x="344.62201"
         y="385.03601"
         style="fill:none;stroke:#ffffff;stroke-width:0.25;stroke-miterlimit:10"
         width="3.2149999"
         height="4.6440001"
         id="rect406" /><line
         style="fill:none;stroke:#ffffff;stroke-width:0.25;stroke-miterlimit:10"
         x1="344.62201"
         y1="386.16101"
         x2="347.659"
         y2="386.16101"
         id="line408" /><line
         style="fill:none;stroke:#ffffff;stroke-width:0.25;stroke-miterlimit:10"
         x1="344.74701"
         y1="387.198"
         x2="347.78601"
         y2="387.198"
         id="line410" /><line
         style="fill:none;stroke:#ffffff;stroke-width:0.25;stroke-miterlimit:10"
         x1="344.62201"
         y1="388.048"
         x2="347.84799"
         y2="388.048"
         id="line412" /><line
         style="fill:none;stroke:#ffffff;stroke-width:0.25;stroke-miterlimit:10"
         x1="346.267"
         y1="385.71899"
         x2="346.267"
         y2="389.29599"
         id="line414" /><line
         style="fill:none;stroke:#ffffff;stroke-width:0.25;stroke-miterlimit:10"
         x1="347.35699"
         y1="385.71899"
         x2="347.35699"
         y2="389.29599"
         id="line416" /></g><g
       id="g452"><rect
         x="378.328"
         y="373.353"
         transform="matrix(-0.8883,-0.4592,0.4592,-0.8883,543.7158,882.9403)"
         style="fill:#ffffff;stroke:#ffffff;stroke-width:0.25;stroke-miterlimit:10"
         width="1.783"
         height="4.0089998"
         id="rect420" /><rect
         x="375.36099"
         y="378.19699"
         transform="matrix(-0.8336,-0.5524,0.5524,-0.8336,479.8911,904.9683)"
         style="fill:#ffffff;stroke:#ffffff;stroke-width:0.25;stroke-miterlimit:10"
         width="1.783"
         height="4.0100002"
         id="rect422" /><rect
         x="371.53601"
         y="383.03201"
         transform="matrix(-0.7013,-0.7128,0.7128,-0.7013,359.1585,920.5554)"
         style="fill:#ffffff;stroke:#ffffff;stroke-width:0.25;stroke-miterlimit:10"
         width="1.784"
         height="4.0089998"
         id="rect424" /><rect
         x="367.146"
         y="386.685"
         transform="matrix(-0.5475,-0.8368,0.8368,-0.5475,244.274,909.4711)"
         style="fill:#ffffff;stroke:#ffffff;stroke-width:0.25;stroke-miterlimit:10"
         width="1.786"
         height="4.007"
         id="rect426" /><rect
         x="361.88599"
         y="389.875"
         transform="matrix(-0.4152,-0.9097,0.9097,-0.4152,156.9008,884.62)"
         style="fill:#ffffff;stroke:#ffffff;stroke-width:0.25;stroke-miterlimit:10"
         width="1.785"
         height="4.0089998"
         id="rect428" /><rect
         x="356.401"
         y="391.948"
         transform="matrix(-0.2865,-0.9581,0.9581,-0.2865,82.2408,849.1494)"
         style="fill:#ffffff;stroke:#ffffff;stroke-width:0.25;stroke-miterlimit:10"
         width="1.786"
         height="4.0100002"
         id="rect430" /><rect
         x="350.64899"
         y="392.92401"
         transform="matrix(-0.0405,-0.9992,0.9992,-0.0405,-28.8275,762.1715)"
         style="fill:#ffffff;stroke:#ffffff;stroke-width:0.25;stroke-miterlimit:10"
         width="1.785"
         height="4.007"
         id="rect432" /><rect
         x="344.81601"
         y="392.923"
         transform="matrix(0.0219,-0.9998,0.9998,0.0219,-56.6967,731.9032)"
         style="fill:#ffffff;stroke:#ffffff;stroke-width:0.25;stroke-miterlimit:10"
         width="1.784"
         height="4.0100002"
         id="rect434" /><rect
         x="339.021"
         y="392.02301"
         transform="matrix(0.1949,-0.9808,0.9808,0.1949,-112.7948,650.6478)"
         style="fill:#ffffff;stroke:#ffffff;stroke-width:0.25;stroke-miterlimit:10"
         width="1.784"
         height="4.0089998"
         id="rect436" /><rect
         x="333.323"
         y="389.97101"
         transform="matrix(0.4351,-0.9004,0.9004,0.4351,-164.1349,522.3308)"
         style="fill:#ffffff;stroke:#ffffff;stroke-width:0.25;stroke-miterlimit:10"
         width="1.784"
         height="4.0100002"
         id="rect438" /><rect
         x="327.80301"
         y="387.04901"
         transform="matrix(0.5547,-0.8321,0.8321,0.5547,-177.3434,446.7366)"
         style="fill:#ffffff;stroke:#ffffff;stroke-width:0.25;stroke-miterlimit:10"
         width="1.785"
         height="4.0089998"
         id="rect440" /><rect
         x="323.306"
         y="383.41299"
         transform="matrix(0.718,-0.6961,0.6961,0.718,-176.8459,334.3682)"
         style="fill:#ffffff;stroke:#ffffff;stroke-width:0.25;stroke-miterlimit:10"
         width="1.785"
         height="4.0089998"
         id="rect442" /><rect
         x="319.56"
         y="378.918"
         transform="matrix(0.8246,-0.5658,0.5658,0.8246,-159.294,248.1259)"
         style="fill:#ffffff;stroke:#ffffff;stroke-width:0.25;stroke-miterlimit:10"
         width="1.785"
         height="4.0089998"
         id="rect444" /><rect
         x="316.19901"
         y="373.62399"
         transform="matrix(0.8902,-0.4555,0.4555,0.8902,-136.2979,185.676)"
         style="fill:#ffffff;stroke:#ffffff;stroke-width:0.25;stroke-miterlimit:10"
         width="1.783"
         height="4.0079999"
         id="rect446" /><rect
         x="314.159"
         y="367.827"
         transform="matrix(0.9682,-0.2501,0.2501,0.9682,-82.4903,90.5584)"
         style="fill:#ffffff;stroke:#ffffff;stroke-width:0.25;stroke-miterlimit:10"
         width="1.784"
         height="4.0100002"
         id="rect448" /><rect
         x="313.24799"
         y="361.91599"
         transform="matrix(1,-0.009,0.009,1,-3.2719,2.8502)"
         style="fill:#ffffff;stroke:#ffffff;stroke-width:0.25;stroke-miterlimit:10"
         width="1.785"
         height="4.0079999"
         id="rect450" /></g><g
       id="g488"><rect
         x="378.47101"
         y="344.17401"
         transform="matrix(-0.8882,0.4594,-0.4594,-0.8882,875.3641,479.3591)"
         style="fill:#ffffff;stroke:#ffffff;stroke-width:0.25;stroke-miterlimit:10"
         width="1.7819999"
         height="4.0079999"
         id="rect454" /><rect
         x="380.66"
         y="349.858"
         transform="matrix(-0.9935,0.1141,-0.1141,-0.9935,800.7499,657.9069)"
         style="fill:#ffffff;stroke:#ffffff;stroke-width:0.25;stroke-miterlimit:10"
         width="1.785"
         height="4.0089998"
         id="rect456" /><rect
         x="375.36099"
         y="338.716"
         transform="matrix(-0.8335,0.5525,-0.5525,-0.8335,878.1175,416.8064)"
         style="fill:#ffffff;stroke:#ffffff;stroke-width:0.25;stroke-miterlimit:10"
         width="1.783"
         height="4.0100002"
         id="rect458" /><rect
         x="371.604"
         y="334.49301"
         transform="matrix(-0.7012,0.713,-0.713,-0.7012,873.6013,306.8721)"
         style="fill:#ffffff;stroke:#ffffff;stroke-width:0.25;stroke-miterlimit:10"
         width="1.784"
         height="4.0089998"
         id="rect460" /><rect
         x="367.215"
         y="330.84"
         transform="matrix(-0.5471,0.8371,-0.8371,-0.5471,848.1112,206.8113)"
         style="fill:#ffffff;stroke:#ffffff;stroke-width:0.25;stroke-miterlimit:10"
         width="1.783"
         height="4.0110002"
         id="rect462" /><rect
         x="361.95401"
         y="327.651"
         transform="matrix(-0.4146,0.91,-0.91,-0.4146,813.27,136.1421)"
         style="fill:#ffffff;stroke:#ffffff;stroke-width:0.25;stroke-miterlimit:10"
         width="1.783"
         height="4.0079999"
         id="rect464" /><rect
         x="356.47"
         y="325.577"
         transform="matrix(-0.2877,0.9577,-0.9577,-0.2877,773.907,79.5735)"
         style="fill:#ffffff;stroke:#ffffff;stroke-width:0.25;stroke-miterlimit:10"
         width="1.785"
         height="4.0089998"
         id="rect466" /><rect
         x="350.64899"
         y="324.603"
         transform="matrix(-0.0405,0.9992,-0.9992,-0.0405,692.1218,-11.4136)"
         style="fill:#ffffff;stroke:#ffffff;stroke-width:0.25;stroke-miterlimit:10"
         width="1.784"
         height="4.007"
         id="rect468" /><rect
         x="344.44299"
         y="324.603"
         transform="matrix(0.0219,0.9998,-0.9998,0.0219,664.3021,-25.7966)"
         style="fill:#ffffff;stroke:#ffffff;stroke-width:0.25;stroke-miterlimit:10"
         width="1.784"
         height="4.007"
         id="rect470" /><rect
         x="338.40799"
         y="325.50299"
         transform="matrix(0.1948,0.9808,-0.9808,0.1948,594.4377,-69.0923)"
         style="fill:#ffffff;stroke:#ffffff;stroke-width:0.25;stroke-miterlimit:10"
         width="1.785"
         height="4.0089998"
         id="rect472" /><rect
         x="332.496"
         y="327.55399"
         transform="matrix(0.4351,0.9004,-0.9004,0.4351,485.0435,-114.0142)"
         style="fill:#ffffff;stroke:#ffffff;stroke-width:0.25;stroke-miterlimit:10"
         width="1.784"
         height="4.0079999"
         id="rect474" /><rect
         x="327.22198"
         y="330.47699"
         transform="matrix(0.555,0.8319,-0.8319,0.555,422.6111,-124.9821)"
         style="fill:#ffffff;stroke:#ffffff;stroke-width:0.25;stroke-miterlimit:10"
         width="1.784"
         height="4.007"
         id="rect476" /><rect
         x="322.99701"
         y="334.23901"
         transform="matrix(0.7177,0.6964,-0.6964,0.7177,325.5818,-130.6197)"
         style="fill:#ffffff;stroke:#ffffff;stroke-width:0.25;stroke-miterlimit:10"
         width="1.785"
         height="4.0079999"
         id="rect478" /><rect
         x="319.091"
         y="339.116"
         transform="matrix(0.8246,0.5658,-0.5658,0.8246,249.128,-121.1916)"
         style="fill:#ffffff;stroke:#ffffff;stroke-width:0.25;stroke-miterlimit:10"
         width="1.785"
         height="4.007"
         id="rect480" /><rect
         x="316.267"
         y="344.173"
         transform="matrix(0.8908,0.4544,-0.4544,0.8908,191.953,-106.3178)"
         style="fill:#ffffff;stroke:#ffffff;stroke-width:0.25;stroke-miterlimit:10"
         width="1.783"
         height="4.0079999"
         id="rect482" /><rect
         x="314.228"
         y="349.698"
         transform="matrix(0.9681,0.2506,-0.2506,0.9681,98.2088,-67.7555)"
         style="fill:#ffffff;stroke:#ffffff;stroke-width:0.25;stroke-miterlimit:10"
         width="1.784"
         height="4.0089998"
         id="rect484" /><rect
         x="313.31699"
         y="355.60999"
         transform="matrix(1,0.0093,-0.0093,1,3.341,-2.9081)"
         style="fill:#ffffff;stroke:#ffffff;stroke-width:0.25;stroke-miterlimit:10"
         width="1.784"
         height="4.0079999"
         id="rect486" /></g><rect
       x="368.52301"
       y="338.79901"
       transform="matrix(0.7443,-0.6679,0.6679,0.7443,-132.8493,333.6017)"
       style="fill:#ffffff;stroke:#ffffff;stroke-width:0.15000001;stroke-miterlimit:10"
       width="1.349"
       height="2.9560001"
       id="rect490" /><rect
       x="368.43799"
       y="342.155"
       transform="matrix(0.8266,-0.5628,0.5628,0.8266,-129.3096,267.2509)"
       style="fill:#ffffff;stroke:#ffffff;stroke-width:0.15000001;stroke-miterlimit:10"
       width="1.238"
       height="2.6440001"
       id="rect492" /><rect
       x="368.43799"
       y="345.37601"
       transform="matrix(0.8262,-0.5633,0.5633,0.8262,-131.174,268.1355)"
       style="fill:#ffffff;stroke:#ffffff;stroke-width:0.15000001;stroke-miterlimit:10"
       width="1.239"
       height="2.645"
       id="rect494" /><rect
       x="367.78"
       y="348.82001"
       transform="matrix(0.8545,-0.5194,0.5194,0.8545,-128.2697,242.2633)"
       style="fill:#ffffff;stroke:#ffffff;stroke-width:0.15000001;stroke-miterlimit:10"
       width="1.235"
       height="2.645"
       id="rect496" /><rect
       x="326.73999"
       y="378.97601"
       transform="matrix(0.7429,-0.6694,0.6694,0.7429,-170.4964,316.9618)"
       style="fill:#ffffff;stroke:#ffffff;stroke-width:0.15000001;stroke-miterlimit:10"
       width="1.347"
       height="2.9579999"
       id="rect498" /><rect
       x="326.58899"
       y="375.91501"
       transform="matrix(0.8257,-0.564,0.564,0.8257,-155.7615,250.2969)"
       style="fill:#ffffff;stroke:#ffffff;stroke-width:0.15000001;stroke-miterlimit:10"
       width="1.237"
       height="2.645"
       id="rect500" /><rect
       x="326.58899"
       y="372.80099"
       transform="matrix(0.8252,-0.5649,0.5649,0.8252,-154.1265,250.2245)"
       style="fill:#ffffff;stroke:#ffffff;stroke-width:0.15000001;stroke-miterlimit:10"
       width="1.238"
       height="2.6459999"
       id="rect502" /><rect
       x="327.06299"
       y="369.474"
       transform="matrix(0.8544,-0.5197,0.5197,0.8544,-144.9682,224.2798)"
       style="fill:#ffffff;stroke:#ffffff;stroke-width:0.15000001;stroke-miterlimit:10"
       width="1.2359999"
       height="2.6440001"
       id="rect504" /><rect
       x="365.60599"
       y="355.77499"
       style="fill:#ffffff;stroke:#ffffff;stroke-width:0.15000001;stroke-miterlimit:10"
       width="2.793"
       height="1.245"
       id="rect506" /><rect
       x="365.60599"
       y="357.39001"
       style="fill:#ffffff;stroke:#ffffff;stroke-width:0.15000001;stroke-miterlimit:10"
       width="2.793"
       height="1.182"
       id="rect508" /><rect
       x="365.60599"
       y="359.16501"
       style="fill:#ffffff;stroke:#ffffff;stroke-width:0.15000001;stroke-miterlimit:10"
       width="2.793"
       height="1.238"
       id="rect510" /><rect
       x="366.21701"
       y="353.13699"
       style="fill:#ffffff;stroke:#ffffff;stroke-width:0.15000001;stroke-miterlimit:10"
       width="2.1830001"
       height="1.997"
       id="rect512" /><rect
       x="366.21701"
       y="351.40701"
       style="fill:#ffffff;stroke:#ffffff;stroke-width:0.15000001;stroke-miterlimit:10"
       width="1.122"
       height="1.054"
       id="rect514" /><rect
       x="358.03799"
       y="379.70901"
       style="fill:#ffffff;stroke:#ffffff;stroke-width:0.15000001;stroke-miterlimit:10"
       width="2.1300001"
       height="1.493"
       id="rect516" /><rect
       x="363.983"
       y="381.06201"
       transform="matrix(0.7768,-0.6297,0.6297,0.7768,-158.7596,315.3682)"
       style="fill:#ffffff;stroke:#ffffff;stroke-width:0.15000001;stroke-miterlimit:10"
       width="3.175"
       height="1.23"
       id="rect518" /><rect
       x="369.867"
       y="377.87701"
       transform="matrix(0.6331,-0.7741,0.7741,0.6331,-157.0016,426.199)"
       style="fill:#ffffff;stroke:#ffffff;stroke-width:0.15000001;stroke-miterlimit:10"
       width="2.4530001"
       height="1.684"
       id="rect520" /><rect
       x="367.798"
       y="381.11401"
       transform="matrix(0.658,-0.753,0.753,0.658,-161.2641,408.4343)"
       style="fill:#ffffff;stroke:#ffffff;stroke-width:0.15000001;stroke-miterlimit:10"
       width="2.4519999"
       height="1.285"
       id="rect522" /><rect
       x="360.595"
       y="380.98599"
       transform="matrix(0.8968,-0.4425,0.4425,0.8968,-131.492,199.5947)"
       style="fill:#ffffff;stroke:#ffffff;stroke-width:0.15000001;stroke-miterlimit:10"
       width="2.8340001"
       height="1.232"
       id="rect524" /><rect
       x="329.60901"
       y="339.289"
       transform="matrix(0.7762,-0.6304,0.6304,0.7762,-140.1807,284.857)"
       style="fill:#ffffff;stroke:#ffffff;stroke-width:0.15000001;stroke-miterlimit:10"
       width="3.1719999"
       height="1.23"
       id="rect526" /><rect
       x="334.34799"
       y="350.76001"
       transform="matrix(0.9998,-0.0178,0.0178,0.9998,-6.1993,6.0209)"
       style="fill:#ffffff;stroke:#ffffff;stroke-width:0.15000001;stroke-miterlimit:10"
       width="1.756"
       height="1.202"
       id="rect528" /><rect
       x="334.44901"
       y="352.737"
       transform="matrix(0.9998,-0.0175,0.0175,0.9998,-6.1447,5.9347)"
       style="fill:#ffffff;stroke:#ffffff;stroke-width:0.15000001;stroke-miterlimit:10"
       width="1.7539999"
       height="1.2029999"
       id="rect530" /><rect
       x="326.45401"
       y="339.00699"
       transform="matrix(0.658,-0.753,0.753,0.658,-143.6969,362.8845)"
       style="fill:#ffffff;stroke:#ffffff;stroke-width:0.15000001;stroke-miterlimit:10"
       width="2.4530001"
       height="1.286"
       id="rect532" /><rect
       x="333.18399"
       y="339.29001"
       transform="matrix(0.8971,-0.4418,0.4418,0.8971,-115.7504,182.8178)"
       style="fill:#ffffff;stroke:#ffffff;stroke-width:0.15000001;stroke-miterlimit:10"
       width="2.8380001"
       height="1.229"
       id="rect534" /><rect
       x="346.267"
       y="386.98901"
       style="fill:#ffffff;stroke:#ffffff;stroke-width:0.15000001;stroke-miterlimit:10"
       width="1.5700001"
       height="1.038"
       id="rect536" /><rect
       x="346.267"
       y="388.535"
       style="fill:#ffffff;stroke:#ffffff;stroke-width:0.15000001;stroke-miterlimit:10"
       width="1.5700001"
       height="1.036"
       id="rect538" /><rect
       x="346.229"
       y="331.55399"
       style="fill:#ffffff;stroke:#ffffff;stroke-width:0.15000001;stroke-miterlimit:10"
       width="1.706"
       height="1.038"
       id="rect540" /><rect
       x="346.36301"
       y="333.617"
       style="fill:#ffffff;stroke:#ffffff;stroke-width:0.15000001;stroke-miterlimit:10"
       width="1.572"
       height="1.038"
       id="rect542" /><g
       id="g560"><g
         id="g556"><g
           id="g548"><path
             style="fill:#ffffff"
             d="m 327.922,384.417 -0.103,-8.872 5.937,-0.067 -0.343,-30.033 -5.938,0.068 -0.103,-8.805 25.461,-0.292 c 5.686,-0.066 9.908,0.9 12.661,2.893 2.755,1.993 4.15,4.856 4.194,8.587 0.015,1.457 -0.086,2.72 -0.298,3.792 -0.216,1.071 -0.568,2.033 -1.061,2.879 -0.489,0.849 -1.165,1.595 -2.021,2.241 -0.857,0.647 -2.91,1.24 -4.179,1.754 1.233,0.351 3.387,0.814 4.489,1.416 1.096,0.603 2.062,1.376 2.894,2.322 0.828,0.947 1.486,2.066 1.98,3.358 0.494,1.29 0.75,2.755 0.771,4.393 0.052,4.824 -1.348,8.357 -4.217,10.596 -2.862,2.242 -7.592,3.397 -14.192,3.474 z m 17.642,-38.907 0.118,10.238 4.164,-0.047 c 1.817,-0.021 3.041,-0.5 3.667,-1.441 0.628,-0.939 0.934,-2.229 0.914,-3.868 -0.02,-1.592 -0.455,-2.815 -1.306,-3.671 -0.853,-0.856 -1.939,-1.274 -3.258,-1.26 z m 5.804,29.766 c 1.454,-0.016 2.733,-0.545 3.836,-1.582 1.106,-1.037 1.646,-2.488 1.625,-4.352 -0.021,-1.729 -0.515,-3.158 -1.483,-4.285 -0.966,-1.125 -2.409,-1.679 -4.318,-1.657 l -5.257,0.062 0.138,11.875 z"
             id="path544"
             inkscape:connector-curvature="0" /><rect
             x="340.552"
             y="340.83401"
             transform="matrix(0.9999,-0.0116,0.0116,0.9999,-4.1354,4.0721)"
             style="fill:#ffffff;stroke:#ffffff;stroke-width:0.5;stroke-miterlimit:10"
             width="19.783001"
             height="38.376999"
             id="rect546" /></g><g
           id="g554"><rect
             x="337.87"
             y="355.96799"
             transform="matrix(0.9999,-0.0114,0.0114,0.9999,-4.0927,4.0211)"
             style="fill:#42abce;stroke:#42abce;stroke-width:0.25;stroke-miterlimit:10"
             width="22.604"
             height="7.0089998"
             id="rect550" /><rect
             x="337.82501"
             y="355.983"
             transform="matrix(0.0137,0.9999,-0.9999,0.0137,703.7853,5.4539)"
             style="fill:#42abce;stroke:#42abce;stroke-width:0.25;stroke-miterlimit:10"
             width="22.605"
             height="7.0079999"
             id="rect552" /></g></g><circle
         style="display:none;fill:none;stroke:#ffffff;stroke-miterlimit:10"
         cx="348.83499"
         cy="360.875"
         r="56.139"
         id="circle558" /></g></g><g
     id="g568"
     transform="translate(-280.48999,-275.1043)"><path
       style="fill:#20566b"
       d="m 404.478,305.723 c -1.431,-2.115 -4.437,-4.696 -10.662,-5.183 -1.393,-0.109 -2.927,-0.164 -4.56,-0.164 -4.169,0 -7.964,0.361 -9.269,0.5 0.256,-1.988 1.195,-9.712 0.937,-14.273 -0.259,-4.573 -2.224,-7.404 -4.149,-9.099 0.166,0.081 0.366,0.18 0.612,0.301 1.636,0.807 11.136,10.761 14.659,14.529 5.735,6.019 7.744,7.881 9.074,9.113 0.644,0.597 1.108,1.028 1.755,1.716 0.791,0.846 1.29,1.742 1.603,2.56 z"
       id="path564"
       inkscape:connector-curvature="0" /><path
       style="fill:#20566b"
       d="m 379.154,279.728 c 3.096,2.857 8.861,8.845 12.622,12.868 5.741,6.025 7.756,7.892 9.089,9.127 0.304,0.282 0.561,0.52 0.811,0.76 -1.797,-1.129 -4.312,-2.042 -7.831,-2.316 -1.402,-0.11 -2.946,-0.166 -4.589,-0.166 -3.762,0 -7.221,0.293 -8.836,0.454 0.32,-2.539 1.125,-9.525 0.879,-13.874 -0.166,-2.924 -1.038,-5.163 -2.145,-6.853 m -6.192,-4.073 c 0.232,0.091 0.445,0.174 0.641,0.25 -0.399,-0.176 -0.641,-0.25 -0.641,-0.25 z m 0.641,0.25 c 1.755,0.777 6.54,3.541 6.947,10.718 0.298,5.265 -0.997,14.678 -0.997,14.678 0,0 4.53,-0.551 9.703,-0.551 1.488,0 3.028,0.046 4.53,0.163 10.634,0.831 11.578,7.753 11.578,7.753 0,0 0.274,-3.101 -2.216,-5.76 -1.949,-2.078 -2.205,-1.779 -10.829,-10.83 0,0 -12.711,-13.595 -14.767,-14.609 -2.429,-1.196 -0.569,-0.254 -3.949,-1.562 z"
       id="path566"
       inkscape:connector-curvature="0" /></g></svg>