<?xml version="1.0" encoding="iso-8859-1"?>
<!-- Generator: Adobe Illustrator 19.0.0, SVG Export Plug-In . SVG Version: 6.00 Build 0)  -->
<svg version="1.1" id="Capa_1" xmlns="http://www.w3.org/2000/svg" xmlns:xlink="http://www.w3.org/1999/xlink" x="0px" y="0px"
	 viewBox="0 0 512 512" style="enable-background:new 0 0 512 512;" xml:space="preserve">
<path style="fill:#44C973;" d="M67.423,473.951c-16.928,0-30.7-13.772-30.7-30.7v-158.6c0-14.229-11.117-25.933-25.309-26.647v-4.01
	c14.192-0.714,25.309-12.419,25.309-26.647v-158.6c0-16.928,13.772-30.7,30.7-30.7h377.153c16.928,0,30.7,13.772,30.7,30.7v158.6
	c0,14.229,11.117,25.933,25.31,26.647v4.01c-14.192,0.714-25.31,12.419-25.31,26.647v158.6c0,16.928-13.772,30.7-30.7,30.7
	L67.423,473.951L67.423,473.951z"/>
<path d="M501.961,245.921c-0.39,0-0.779,0.021-1.169,0.033c-9.819-0.598-17.484-8.727-17.484-18.606v-81.278
	c0-5.544-4.496-10.039-10.039-10.039c-5.544,0-10.039,4.496-10.039,10.039v81.277c0,11.333,4.868,21.556,12.66,28.652
	c-7.792,7.096-12.66,17.319-12.66,28.652v158.6c0,10.285-8.368,18.653-18.653,18.653c-5.544,0-10.039,4.496-10.039,10.039
	s4.496,10.039,10.039,10.039c21.356,0,38.731-17.375,38.731-38.731V284.652c0-9.88,7.665-18.008,17.484-18.606
	c0.39,0.012,0.779,0.033,1.169,0.033c5.544,0,10.039-4.576,10.039-10.12S507.504,245.921,501.961,245.921z"/>
<path d="M483.308,68.749c0-21.356-17.375-38.731-38.731-38.731c-5.544,0-10.039,4.496-10.039,10.039s4.496,10.039,10.039,10.039
	c10.285,0,18.653,8.368,18.653,18.653v16.585c0,5.544,4.496,10.039,10.039,10.039c5.544,0,10.039-4.496,10.039-10.039V68.749z"/>
<path d="M48.771,227.348v-158.6c0-10.285,8.368-18.653,18.653-18.653c5.545,0,10.039-4.496,10.039-10.039
	s-4.495-10.039-10.039-10.039c-21.356,0-38.731,17.375-38.731,38.731v158.6c0,9.878-7.663,18.005-17.48,18.606
	c-0.391-0.012-0.782-0.033-1.173-0.033C4.495,245.921,0,250.497,0,256.04c0,5.544,4.495,10.039,10.039,10.039
	c0.392,0,0.782-0.021,1.173-0.033c9.817,0.6,17.48,8.728,17.48,18.606v158.6c0,21.356,17.375,38.731,38.731,38.731
	c5.545,0,10.039-4.496,10.039-10.039s-4.495-10.039-10.039-10.039c-10.285,0-18.653-8.368-18.653-18.653v-158.6
	c0-11.333-4.868-21.556-12.66-28.652C43.902,248.904,48.771,238.681,48.771,227.348z"/>
<path d="M141.452,169.713c5.545,0,10.039-4.496,10.039-10.039V74.209c0-4.061-2.447-7.721-6.197-9.275
	c-3.752-1.551-8.071-0.695-10.941,2.176l-34.384,34.384c-3.92,3.92-3.92,10.277,0,14.198c3.92,3.919,10.277,3.919,14.197,0
	l17.245-17.246v61.227C131.412,165.217,135.907,169.713,141.452,169.713z"/>
<path d="M141.452,447.83c5.545,0,10.039-4.496,10.039-10.039v-85.465c0-4.061-2.447-7.721-6.197-9.275
	c-3.752-1.552-8.071-0.695-10.94,2.176L99.97,379.611c-3.92,3.92-3.921,10.277,0,14.198c3.921,3.919,10.278,3.92,14.197,0
	l17.246-17.246v61.228C131.412,443.336,135.907,447.83,141.452,447.83z"/>
<path d="M229.914,447.83c5.545,0,10.039-4.496,10.039-10.039v-85.465c0-4.061-2.447-7.721-6.197-9.275
	c-3.753-1.552-8.07-0.695-10.941,2.176l-34.383,34.383c-3.92,3.92-3.92,10.277,0,14.198c3.92,3.919,10.277,3.919,14.198,0
	l17.245-17.245v61.227C219.875,443.336,224.369,447.83,229.914,447.83z"/>
<path d="M404.932,308.647c5.544,0,10.039-4.496,10.039-10.039v-85.465c0-4.061-2.447-7.721-6.197-9.275
	c-3.752-1.551-8.071-0.694-10.941,2.176l-34.383,34.383c-3.92,3.92-3.92,10.277,0,14.198c3.921,3.919,10.276,3.919,14.198,0
	l17.245-17.245v61.227C394.893,304.152,399.387,308.647,404.932,308.647z"/>
<path d="M245.683,97.13c0-18.175-14.786-32.961-32.961-32.961s-32.96,14.786-32.96,32.961v39.623
	c0,18.175,14.786,32.96,32.961,32.96s32.961-14.786,32.961-32.96L245.683,97.13L245.683,97.13z M225.604,136.753
	c0,7.103-5.779,12.881-12.882,12.881c-7.104,0-12.882-5.779-12.882-12.881V97.13c0-7.103,5.779-12.882,12.882-12.882
	c7.104,0,12.882,5.78,12.882,12.882V136.753z"/>
<path d="M311.939,169.713c5.544,0,10.039-4.496,10.039-10.039V74.209c0-4.061-2.447-7.721-6.197-9.275
	c-3.752-1.551-8.069-0.695-10.941,2.176l-34.384,34.384c-3.92,3.92-3.92,10.277,0,14.198c3.921,3.919,10.276,3.919,14.198,0
	L301.9,98.447v61.227C301.899,165.217,306.394,169.713,311.939,169.713z"/>
<path d="M420.7,97.13c0-18.175-14.786-32.961-32.96-32.961c-18.174,0-32.961,14.787-32.961,32.961v39.623
	c0,18.175,14.787,32.96,32.961,32.96c18.174,0,32.96-14.786,32.96-32.96V97.13z M400.622,136.753
	c0,7.103-5.779,12.881-12.881,12.881c-7.103,0-12.882-5.779-12.882-12.881V97.13c0-7.103,5.78-12.882,12.882-12.882
	c7.103,0,12.881,5.78,12.881,12.882V136.753z"/>
<path d="M157.22,236.064c0-18.175-14.786-32.96-32.961-32.96c-18.174,0-32.96,14.786-32.96,32.96v39.624
	c0,18.175,14.786,32.96,32.96,32.96c18.175,0,32.961-14.786,32.961-32.96V236.064z M137.142,275.687
	c0,7.103-5.779,12.881-12.882,12.881c-7.104,0-12.881-5.779-12.881-12.881v-39.624c0-7.103,5.779-12.881,12.881-12.881
	c7.103,0,12.882,5.779,12.882,12.881V275.687z"/>
<path d="M245.683,236.064c0-18.175-14.786-32.96-32.961-32.96s-32.961,14.786-32.961,32.96v39.624
	c0,18.175,14.786,32.96,32.961,32.96s32.961-14.786,32.961-32.96V236.064z M225.604,275.687c0,7.103-5.779,12.881-12.882,12.881
	c-7.104,0-12.882-5.779-12.882-12.881v-39.624c0-7.103,5.779-12.881,12.882-12.881c7.104,0,12.882,5.779,12.882,12.881V275.687z"/>
<path d="M334.145,236.064c0-18.175-14.786-32.96-32.96-32.96c-18.174,0-32.96,14.786-32.96,32.96v39.624
	c0,18.175,14.786,32.96,32.96,32.96c18.174,0,32.96-14.786,32.96-32.96V236.064z M314.067,275.687
	c0,7.103-5.779,12.881-12.881,12.881s-12.881-5.779-12.881-12.881v-39.624c0-7.103,5.779-12.881,12.881-12.881
	s12.881,5.779,12.881,12.881V275.687z"/>
<path d="M301.186,447.83c18.175,0,32.96-14.787,32.96-32.961v-39.623c0-18.175-14.786-32.96-32.96-32.96
	c-18.174,0-32.96,14.786-32.96,32.96v39.623C268.226,433.045,283.011,447.83,301.186,447.83z M288.304,375.247
	c0-7.103,5.779-12.881,12.881-12.881s12.881,5.779,12.881,12.881v39.623c0,7.103-5.779,12.882-12.881,12.882
	s-12.881-5.78-12.881-12.882V375.247z"/>
<path d="M354.78,414.87c0,18.175,14.787,32.961,32.961,32.961c18.174,0,32.96-14.787,32.96-32.961v-39.623
	c0-18.175-14.786-32.96-32.96-32.96c-18.174,0-32.961,14.786-32.961,32.96V414.87z M374.858,375.247
	c0-7.103,5.78-12.881,12.882-12.881c7.103,0,12.881,5.779,12.881,12.881v39.623c0,7.103-5.779,12.882-12.881,12.882
	c-7.103,0-12.882-5.78-12.882-12.882V375.247z"/>
<path d="M473.349,104.91c-12.919,0-12.941,20.078,0,20.078C486.268,124.988,486.29,104.91,473.349,104.91z"/>
<g>
</g>
<g>
</g>
<g>
</g>
<g>
</g>
<g>
</g>
<g>
</g>
<g>
</g>
<g>
</g>
<g>
</g>
<g>
</g>
<g>
</g>
<g>
</g>
<g>
</g>
<g>
</g>
<g>
</g>
</svg>
