<?xml version="1.0" encoding="UTF-8" standalone="no"?>
<!-- Generator: Adobe Illustrator 16.0.0, SVG Export Plug-In . SVG Version: 6.00 Build 0)  -->

<svg
   xmlns:dc="http://purl.org/dc/elements/1.1/"
   xmlns:cc="http://creativecommons.org/ns#"
   xmlns:rdf="http://www.w3.org/1999/02/22-rdf-syntax-ns#"
   xmlns:svg="http://www.w3.org/2000/svg"
   xmlns="http://www.w3.org/2000/svg"
   xmlns:sodipodi="http://sodipodi.sourceforge.net/DTD/sodipodi-0.dtd"
   xmlns:inkscape="http://www.inkscape.org/namespaces/inkscape"
   version="1.1"
   x="0px"
   y="0px"
   width="98.313622"
   height="159.51967"
   viewBox="0 0 98.313622 159.51967"
   xml:space="preserve"
   id="svg103"
   sodipodi:docname="Blazing_Icon.svg"
   inkscape:version="0.92.2 (5c3e80d, 2017-08-06)"><metadata
     id="metadata109"><rdf:RDF><cc:Work
         rdf:about=""><dc:format>image/svg+xml</dc:format><dc:type
           rdf:resource="http://purl.org/dc/dcmitype/StillImage" /><dc:title></dc:title></cc:Work></rdf:RDF></metadata><defs
     id="defs107" /><sodipodi:namedview
     pagecolor="#ffffff"
     bordercolor="#666666"
     borderopacity="1"
     objecttolerance="10"
     gridtolerance="10"
     guidetolerance="10"
     inkscape:pageopacity="0"
     inkscape:pageshadow="2"
     inkscape:window-width="1600"
     inkscape:window-height="837"
     id="namedview105"
     showgrid="false"
     fit-margin-top="0"
     fit-margin-left="0"
     fit-margin-right="0"
     fit-margin-bottom="0"
     inkscape:zoom="0.2979798"
     inkscape:cx="-528.32854"
     inkscape:cy="39.699712"
     inkscape:window-x="-8"
     inkscape:window-y="-8"
     inkscape:window-maximized="1"
     inkscape:current-layer="svg103" /><g
     id="flames_1_"
     transform="translate(-288.98956,-276.18004)"><path
       style="display:none;fill:#40b3ce;stroke:#20566b;stroke-miterlimit:10"
       d="m 321.008,413.294 c 0,0 -2.43,2.261 7.837,14.646 6.405,7.727 6.405,7.727 6.405,7.727 h 16 c 0,0 0,0 6.5,-9 8.391,-11.617 5.103,-12.176 5.103,-12.176 l -19.494,2.918 z"
       id="path82"
       inkscape:connector-curvature="0" /><g
       style="display:none"
       id="g92"><path
         style="display:inline;fill:#20566b;stroke:#20566b;stroke-miterlimit:10"
         d="m 366.123,405.834 c 0,2.685 -10.997,3.296 -24.562,3.296 -13.565,0 -24.561,-2.177 -24.561,-4.861 0,-2.687 10.997,-4.863 24.562,-4.863 13.565,0 24.561,3.741 24.561,6.428 z"
         id="path84"
         inkscape:connector-curvature="0" /><path
         style="display:inline;fill:#2f9bb0;stroke:#2f9bb0;stroke-miterlimit:10"
         d="m 317.543,405.834 c 0,0 6.168,20.879 25.291,20.832 19.123,-0.047 23.289,-19.597 23.289,-19.597 0,0 -8.038,1.992 -23.289,2.431 -13.017,0.374 -25.291,-3.666 -25.291,-3.666 z"
         id="path86"
         inkscape:connector-curvature="0" /><path
         style="display:inline;fill:none;stroke:#20566b;stroke-miterlimit:10"
         d="m 319.833,412.546 c -0.949,-0.316 6.852,4.862 23.525,4.862 17.273,0 21.245,-3.784 21.245,-3.784"
         id="path88"
         inkscape:connector-curvature="0" /><path
         style="display:inline;fill:none;stroke:#20566b;stroke-miterlimit:10"
         d="m 317.543,408.536 c 0,0 15.903,4.01 24.178,4.01 16.279,0 24.562,-3.296 24.562,-3.296"
         id="path90"
         inkscape:connector-curvature="0" /></g><path
       style="fill:#20566b;stroke:#40b3ce;stroke-width:2;stroke-miterlimit:10"
       d="m 306.024,368.713 c -0.752,-1.328 -0.428,-4.052 -0.742,-5.35 -0.555,-2.281 -1.556,-4.157 -3.771,-5.196 -2.736,-1.283 -10.633,-0.535 -11.344,3.865 7.583,-0.114 7.354,10.166 7.586,15.861 0.133,3.289 -0.591,6.533 -1.182,9.73 -1.099,5.965 -1.895,11.4 -1.895,17.528 0,5.43 -0.497,11.963 2.293,16.828 3.251,5.673 7.389,6.652 13.293,9.762 5.851,3.083 16.142,2.916 22.558,2.918 9.185,0.001 19.631,0.357 28.711,-1.105 8.226,-1.326 13.283,-8.837 15.791,-12.019 4.294,-5.449 3.259,-8.723 4.512,-15.381 0.702,-3.727 5.233,-6.949 4.355,-10.671 -0.982,-4.165 -3.598,-7.816 -5.402,-11.648 -2.386,-5.065 -2.651,-10.282 -2.645,-15.813 0.004,-3.234 -0.281,-7.335 0.286,-10.254 -0.455,0.864 -1.559,1.559 -2.229,2.291 -1.587,1.734 -2.274,3.597 -2.933,5.81 -0.798,2.681 -1.742,5.439 -1.891,8.238 -0.189,3.587 0.678,6.672 1.689,9.894 0.571,1.818 0.94,4.165 0.404,5.999 -0.886,3.037 -3.263,2.218 -3.53,-0.462 -0.438,-4.374 -1.799,-8.065 -2.728,-12.31 -0.855,-3.913 -1.518,-8.282 0.732,-11.717 1.52,-2.318 2.812,-3.202 2.815,-6.18 0.006,-4.287 -1.235,-7.96 -1.795,-12.118 -0.212,-1.569 -1.157,-6.083 0.753,-6.732 -4.248,-3.16 -6.218,8.054 -6.849,10.482 -0.473,1.822 -0.945,4.847 -2.968,5.57 -3.34,1.193 -3.416,-4.095 -3.056,-6.257 0.596,-3.573 3.275,-6.283 4.327,-9.596 1.191,-3.75 0.845,-6.414 -0.922,-9.802 -1.125,-2.156 -3.104,-4.496 -3.801,-6.936 -0.691,-2.421 -0.768,-4.973 -1.226,-7.527 -0.27,-1.504 -0.411,-2.946 -0.488,-4.547 -2.232,2.802 -3.041,4.247 -3.663,8.156 -0.659,4.127 2.073,7.286 2.87,11.28 0.257,1.291 3.348,7.587 -2.656,9.032 -5.056,1.216 -2.701,-9.256 -2.675,-10.058 0.161,-5.051 -1.797,-9.72 -3.781,-15.82 -6.598,-20.273 3.985,-30.937 -11.189,-37.089 -3.496,-1.417 3.648,5.539 2.129,14.765 -2.037,12.355 6.483,38.554 2.178,39.993 -0.149,0.05 -0.745,-0.58 -0.753,-0.414 -3.61,0.47 -4.903,-2.856 -5.37,-5.63 -0.637,-3.792 2.912,-11.448 1.816,-15.082 -0.497,-1.644 -4.182,-8.817 -6.358,-8.819 -1.435,0 -1.024,19.469 -1.024,22.645 0.001,8.358 1.26,14.926 5.376,22.213 1.938,3.431 3.62,6.832 4.058,10.722 0.203,1.804 0.479,5.331 -1.482,6.318 -2.951,1.486 -4.336,-3.645 -4.776,-5.602 -1.068,-4.737 -0.481,-16.438 -8.065,-16.091 -0.677,4.718 3.748,11.435 0.988,15.789 -0.898,1.418 -3.215,2.216 -4.46,0.509 -1.217,-1.672 -0.477,-6.281 -0.456,-8.267 0.062,-5.975 3.146,-13.489 0.626,-19.134 -1.507,-3.374 -6.803,-4.908 -10.396,-4.667 -0.335,1.713 1.996,2.977 2.905,4.224 1.319,1.808 1.604,3.971 1.736,6.173 0.312,5.163 -0.581,6.272 -2.049,11.19 -0.973,3.264 -1.278,6.711 -1.185,10.107 0.079,2.885 1.192,6.237 0.614,9.065 -0.282,1.383 -1.899,2.843 -3.247,1.835 -0.165,-0.126 -0.304,-0.295 -0.419,-0.498 z"
       id="path94"
       inkscape:connector-curvature="0" /><path
       style="fill:#2f9bb0;stroke:#40b3ce;stroke-width:0.25;stroke-miterlimit:10"
       d="m 303.496,377.854 c 0,0 -4.103,19.328 -0.513,31.889 3.589,12.561 13.928,23.11 30.659,22.456 11.688,-0.458 21.814,-2.398 30.966,-10.459 13.33,-11.741 9.023,-22.479 9.023,-22.479 0,0 -0.875,10.06 -4.307,8.842 -1.918,-0.681 -1.742,-10.1 -2.256,-14.868 -0.513,-4.768 -3.572,-5.585 -4.409,-13.945 -0.149,-1.488 -0.103,-6.152 -0.103,-6.152 0,0 -1.79,-1.708 -1.948,2.256 -0.157,3.963 -0.57,2.096 -0.513,6.152 0.052,3.64 -0.781,6.961 -2.805,7.537 -1.798,0.511 -1.895,-1.109 -1.81,-3.076 0.188,-4.327 1.997,-2.868 3.067,-7.29 0.335,-1.38 0.182,-2.619 -0.541,-6.385 -0.74,-3.854 0.037,-7.089 0.037,-7.089 0,0 -2.975,1.589 -3.999,3.794 -1.025,2.204 1.014,8.742 -2.07,8.851 -3.722,0.131 -0.714,-5.298 -0.52,-11.106 0.166,-4.95 0.4,-7.307 -0.896,-8.613 -2.231,-2.248 -3.178,-10.355 -3.178,-10.355 0,0 -2.461,4.922 0.409,8.817 2.871,3.896 1.538,6.768 1.538,6.768 0,0 -1.076,3.282 -3.384,2.461 -2.307,-0.821 -2.454,-10.039 -2.454,-10.039 0,0 -0.571,-7.545 -2.365,-11.289 -1.794,-3.743 -5.355,-3.383 -5.355,-3.383 0,0 7.62,13.598 3.1,25.633 -4.053,10.791 -6.409,11.126 -8.203,9.639 -1.794,-1.488 0.616,-4.818 -0.819,-8.921 -1.436,-4.102 -4.204,-4.821 -4.204,-4.821 0,0 -1.334,9.642 -3.59,9.333 -2.255,-0.309 -3.178,-1.53 -6.664,-6.152 -1.564,-2.075 -1.59,-3.181 -1.59,-3.181 0,0 -2.512,5.795 0.924,12.869 3.435,7.074 0.717,14.51 -1.538,15.381 -2.256,0.87 -7.229,0.253 -7.792,-3.384 -1.094,-7.086 -1.897,-9.691 -1.897,-9.691 z"
       id="path96"
       inkscape:connector-curvature="0" /><path
       style="fill:#40b3ce;stroke:#40b3ce;stroke-width:0.25;stroke-miterlimit:10"
       d="m 303.496,393.081 c 0,0 1.898,4.153 2.308,12.766 0.242,5.106 12.766,24.763 25.839,25.686 20.426,1.441 21.307,-4.922 25.649,-8.613 4.342,-3.691 6.496,-10.612 6.496,-10.612 0,0 -7.147,6.152 -6.496,5.383 0.322,-0.381 2.158,-5.011 5.573,-13.073 2.305,-5.442 -0.461,-15.688 -0.461,-15.688 0,0 -1.23,12.458 -7.537,11.689 -6.306,-0.769 -4.93,-1.894 -2.614,-8.151 0.605,-1.637 -0.154,-9.178 -0.154,-9.178 0,0 -2.367,1.312 -2.307,3.025 0.06,1.713 0.615,4.307 -1.692,4.614 -2.307,0.308 -0.308,-7.383 -0.308,-7.383 0,0 0.753,-5.412 0.356,-8.208 -0.458,-3.225 1.695,-6.199 1.388,-7.737 -0.161,-0.805 -3.034,3.558 -3.384,5.947 -0.649,4.437 -2.205,7.383 -4.358,7.075 -2.153,-0.308 -1.846,-7.229 -1.846,-7.229 l 0.769,-6.613 c 0,0 -2.854,5.534 -2.768,8.767 0.086,3.232 -0.308,14.816 -4.307,15.842 -3.021,0.774 -0.718,-10.048 -3.486,-11.074 -0.789,-0.292 0.251,1.39 0.103,2.769 -0.133,1.218 -1.432,2.138 -2.308,2.138 -1.999,0 -8.613,-10.597 -8.613,-10.597 0,0 6.613,20.252 -0.461,24.637 -5.2,3.224 -6.152,2.741 -8.459,-0.95 -2.308,-3.694 -6.922,-5.232 -6.922,-5.232 z"
       id="path98"
       inkscape:connector-curvature="0" /><path
       style="fill:#ffffff"
       d="m 343.714,385.221 c 0,0 -1.845,0.989 -2.15,4.091 -0.75,7.591 -2.408,9.303 -3.691,8.69 -1.283,-0.613 0,-5.845 0,-5.845 0,0 -1.765,0.316 -2.101,2.46 -0.337,2.145 -0.745,7.767 -0.745,7.767 0,0 0.559,1.195 -1.252,1.197 -1.811,0.003 -2.638,-2.521 -2.824,-5.042 -0.102,-1.38 0.057,-5.069 -0.379,-6.614 -0.306,-1.083 -1.467,-0.461 -1.467,-0.461 0,0 1.27,12.66 -0.461,13.228 -3.219,1.055 -1.461,-13.92 -3.769,-9.459 -3.112,6.017 -0.761,16.459 -3.067,16.767 -2.308,0.308 -9.544,-3.232 -9.544,-3.232 0,0 5.269,19.34 19.818,20.961 17.556,1.956 21.017,-10.348 21.017,-10.348 0,0 -6.638,3.996 -6.845,2.307 -0.206,-1.689 6.943,-8.697 10.151,-10.535 1.606,-0.921 0.538,-5.769 0.538,-5.769 0,0 -3.999,7.075 -7.844,4.307 -3.845,-2.768 -2.146,-6.729 -1.584,-9.033 0.562,-2.304 -1.538,-3.479 -1.538,-3.479 0,0 -3.03,7.129 -3.799,5.744 -0.769,-1.383 1.536,-17.702 1.536,-17.702 z"
       id="path100"
       inkscape:connector-curvature="0" /></g></svg>