<?xml version="1.0" encoding="UTF-8" standalone="no"?>
<svg
   xmlns:dc="http://purl.org/dc/elements/1.1/"
   xmlns:cc="http://creativecommons.org/ns#"
   xmlns:rdf="http://www.w3.org/1999/02/22-rdf-syntax-ns#"
   xmlns:svg="http://www.w3.org/2000/svg"
   xmlns="http://www.w3.org/2000/svg"
   xmlns:sodipodi="http://sodipodi.sourceforge.net/DTD/sodipodi-0.dtd"
   xmlns:inkscape="http://www.inkscape.org/namespaces/inkscape"
   version="1.1"
   id="FINAL"
   x="0px"
   y="0px"
   width="44.990002"
   height="48.230999"
   viewBox="0 0 44.990002 48.230999"
   xml:space="preserve"
   sodipodi:docname="loading_logo_only.svg"
   inkscape:version="0.92.2 (5c3e80d, 2017-08-06)"><sodipodi:namedview
     pagecolor="#ffffff"
     bordercolor="#666666"
     borderopacity="1"
     objecttolerance="10"
     gridtolerance="10"
     guidetolerance="10"
     inkscape:pageopacity="0"
     inkscape:pageshadow="2"
     inkscape:window-width="1600"
     inkscape:window-height="837"
     id="namedview4647"
     showgrid="false"
     inkscape:zoom="2.4483597"
     inkscape:cx="-82.491471"
     inkscape:cy="-38.70706"
     inkscape:window-x="-8"
     inkscape:window-y="-8"
     inkscape:window-maximized="1"
     inkscape:current-layer="FINAL"
     fit-margin-top="0"
     fit-margin-left="0"
     fit-margin-right="0"
     fit-margin-bottom="0" /><metadata
     id="metadata49"><rdf:RDF><cc:Work
         rdf:about=""><dc:format>image/svg+xml</dc:format><dc:type
           rdf:resource="http://purl.org/dc/dcmitype/StillImage" /><dc:title></dc:title></cc:Work></rdf:RDF></metadata><defs
     id="defs47" /><path
     style="fill:#40b4cf;stroke-width:0.99771321"
     d="M 0,48.230999 V 39.30396 H 6.0033341 V 9.0893681 H 0 V 0.230999 h 25.742721 c 5.751278,0 10.007223,1.0190956 12.768837,3.0562916 2.760614,2.037196 4.14092,4.9332587 4.14092,8.6871924 0,1.465946 -0.116025,2.735834 -0.345076,3.810662 -0.230051,1.075822 -0.599133,2.038191 -1.104246,2.88412 -0.507112,0.847919 -1.196266,1.591342 -2.06946,2.231262 -0.875194,0.641911 -2.957657,1.214157 -4.244943,1.716738 1.242276,0.367233 3.416759,0.858867 4.521005,1.475897 1.104245,0.618026 2.07046,1.408223 2.898644,2.369597 0.828184,0.961373 1.482329,2.093923 1.966437,3.399639 C 44.757946,31.167119 45,32.643016 45,34.291085 c 0,4.852646 -1.461325,8.389625 -4.382974,10.608944 -2.922649,2.220315 -7.718715,3.33097 -14.390198,3.33097 z"
     id="letter-b"
     class="letter-b"
     inkscape:connector-curvature="0" /><rect
     x="12.784076"
     y="-24.425283"
     transform="matrix(0.00214665,0.9999977,-0.99999746,0.00225468,0,0)"
     style="fill:#f5fefe;stroke:#f5fefe;stroke-width:0.99373949;stroke-miterlimit:10"
     width="22.988407"
     height="6.9547462"
     id="vertical-bar" /><rect
     x="9.4987173"
     y="20.729717"
     style="fill:#f5fefe;stroke:#f5fefe;stroke-width:0.99743515;stroke-miterlimit:10"
     width="23.002565"
     height="7.0025649"
     id="horizontal-bar" /></svg>