<?xml version="1.0" encoding="UTF-8" standalone="no"?>
<!-- Generator: Adobe Illustrator 16.0.0, SVG Export Plug-In . SVG Version: 6.00 Build 0)  -->

<svg
   xmlns:dc="http://purl.org/dc/elements/1.1/"
   xmlns:cc="http://creativecommons.org/ns#"
   xmlns:rdf="http://www.w3.org/1999/02/22-rdf-syntax-ns#"
   xmlns:svg="http://www.w3.org/2000/svg"
   xmlns="http://www.w3.org/2000/svg"
   xmlns:sodipodi="http://sodipodi.sourceforge.net/DTD/sodipodi-0.dtd"
   xmlns:inkscape="http://www.inkscape.org/namespaces/inkscape"
   version="1.1"
   id="FINAL"
   x="0px"
   y="0px"
   width="512"
   height="512"
   viewBox="0 0 512 512"
   xml:space="preserve"
   sodipodi:docname="loading_logo_only.svg"
   inkscape:version="0.92.2 (5c3e80d, 2017-08-06)"><metadata
     id="metadata49"><rdf:RDF><cc:Work
         rdf:about=""><dc:format>image/svg+xml</dc:format><dc:type
           rdf:resource="http://purl.org/dc/dcmitype/StillImage" /><dc:title></dc:title></cc:Work></rdf:RDF></metadata><defs
     id="defs47" /><sodipodi:namedview
     pagecolor="#ffffff"
     bordercolor="#666666"
     borderopacity="1"
     objecttolerance="10"
     gridtolerance="10"
     guidetolerance="10"
     inkscape:pageopacity="0"
     inkscape:pageshadow="2"
     inkscape:window-width="1600"
     inkscape:window-height="837"
     id="namedview45"
     showgrid="false"
     fit-margin-top="0"
     fit-margin-left="0"
     fit-margin-right="0"
     fit-margin-bottom="0"
     inkscape:zoom="0.84281414"
     inkscape:cx="228.36086"
     inkscape:cy="243.23135"
     inkscape:window-x="-8"
     inkscape:window-y="-8"
     inkscape:window-maximized="1"
     inkscape:current-layer="FINAL" /><g
     id="g18"
     transform="matrix(11.380307,0,0,10.615579,-1600.2646,-3551.58)"><g
       id="g16"><g
         id="g8"><path
           style="fill:#40b4cf"
           d="m 140.617,382.794 v -8.97 h 6.002 v -30.36 h -6.002 v -8.901 h 25.737 c 5.75,0 10.005,1.024 12.766,3.071 2.76,2.047 4.14,4.957 4.14,8.729 0,1.473 -0.116,2.749 -0.345,3.829 -0.23,1.081 -0.599,2.048 -1.104,2.898 -0.507,0.852 -1.196,1.599 -2.069,2.242 -0.875,0.645 -2.957,1.22 -4.244,1.725 1.242,0.369 3.416,0.863 4.52,1.483 1.104,0.621 2.07,1.415 2.898,2.381 0.828,0.966 1.482,2.104 1.966,3.416 0.483,1.311 0.725,2.794 0.725,4.45 0,4.876 -1.461,8.43 -4.382,10.66 -2.922,2.231 -7.717,3.347 -14.387,3.347 z m 18.285,-39.123 v 10.35 h 4.21 c 1.838,0 3.08,-0.471 3.725,-1.414 0.645,-0.942 0.967,-2.242 0.967,-3.898 0,-1.609 -0.426,-2.852 -1.277,-3.726 -0.851,-0.874 -1.943,-1.312 -3.277,-1.312 z m 5.521,30.153 c 1.471,0 2.771,-0.518 3.898,-1.553 1.127,-1.035 1.69,-2.495 1.69,-4.382 0,-1.747 -0.483,-3.196 -1.449,-4.347 -0.966,-1.149 -2.415,-1.725 -4.347,-1.725 h -5.313 v 12.006 h 5.521 z"
           id="path4"
           inkscape:connector-curvature="0" /><rect
           x="153.666"
           y="339"
           style="fill:#40b4cf;stroke:#40b4cf;stroke-width:0.5;stroke-miterlimit:10"
           width="20"
           height="38.793999"
           id="rect6" /></g><g
         id="g14"><rect
           x="150.96201"
           y="354.28201"
           style="fill:#f5fefe;stroke:#f5fefe;stroke-miterlimit:10"
           width="22.851999"
           height="7.085"
           id="rect10" /><rect
           x="150.916"
           y="354.297"
           transform="matrix(0.0022,1,-1,0.0022,519.8195,194.7037)"
           style="fill:#f5fefe;stroke:#f5fefe;stroke-miterlimit:10"
           width="22.851"
           height="7.085"
           id="rect12" /></g></g></g></svg>