<?xml version="1.0" encoding="iso-8859-1"?>
<!-- Generator: Adobe Illustrator 19.0.0, SVG Export Plug-In . SVG Version: 6.00 Build 0)  -->
<svg version="1.1" id="Capa_1" xmlns="http://www.w3.org/2000/svg" xmlns:xlink="http://www.w3.org/1999/xlink" x="0px" y="0px"
	 viewBox="0 0 393.225 393.225" style="enable-background:new 0 0 393.225 393.225;" xml:space="preserve">
<path style="fill:#EBF0F3;" d="M130.786,170.796v-57.196c0-38.111,29.511-69.113,65.798-69.113s65.811,31.002,65.811,69.113v57.196
	h42.891V114.16C305.286,51.212,256.526,0,196.583,0C136.655,0,87.895,51.212,87.895,114.16v56.636H130.786z"/>
<path style="fill:#FCD462;" d="M339.005,179.247v195.247c0,10.345-8.387,18.732-18.732,18.732H72.952
	c-10.345,0-18.732-8.386-18.732-18.732V179.247c0-10.345,8.386-18.732,18.732-18.732h247.321
	C330.618,160.515,339.005,168.901,339.005,179.247z"/>
<g>
	<polygon style="fill:#3A556A;" points="186.248,393.198 173.76,393.198 173.76,266.378 147.321,237.765 156.492,229.29 
		186.248,261.494 	"/>
	<path style="fill:#3A556A;" d="M144.62,248.573c-14.341,0-26.012-11.671-26.012-26.015c0-14.348,11.671-26.018,26.012-26.018
		c14.348,0,26.018,11.671,26.018,26.018C170.638,236.902,158.967,248.573,144.62,248.573z M144.62,209.027
		c-7.457,0-13.524,6.07-13.524,13.53c0,7.46,6.067,13.527,13.524,13.527c7.463,0,13.53-6.067,13.53-13.527
		C158.15,215.098,152.083,209.027,144.62,209.027z"/>
	<polygon style="fill:#3A556A;" points="228.321,393.198 215.833,393.198 215.833,267.79 250.278,229.36 259.583,237.695 
		228.321,272.57 	"/>
	<path style="fill:#3A556A;" d="M263.254,248.573c-14.341,0-26.012-11.671-26.012-26.015c0-14.348,11.671-26.018,26.012-26.018
		c14.348,0,26.018,11.671,26.018,26.018C289.272,236.902,277.602,248.573,263.254,248.573z M263.254,209.027
		c-7.457,0-13.524,6.07-13.524,13.53c0,7.46,6.067,13.527,13.524,13.527c7.463,0,13.53-6.067,13.53-13.527
		C276.784,215.098,270.717,209.027,263.254,209.027z"/>
	<polygon style="fill:#3A556A;" points="262.217,393.198 249.73,393.198 249.73,337.189 279.321,302.546 288.821,310.655 
		262.217,341.799 	"/>
	<path style="fill:#3A556A;" d="M292.266,322.659c-14.341,0-26.012-11.671-26.012-26.015s11.671-26.015,26.012-26.015
		c14.348,0,26.018,11.671,26.018,26.015S306.614,322.659,292.266,322.659z M292.266,283.116c-7.457,0-13.524,6.067-13.524,13.527
		s6.067,13.527,13.524,13.527c7.463,0,13.53-6.067,13.53-13.527S299.73,283.116,292.266,283.116z"/>
	<polygon style="fill:#3A556A;" points="150.864,393.198 138.376,393.198 138.376,319.598 108.967,290.207 117.797,281.372 
		150.864,314.421 	"/>
	<path style="fill:#3A556A;" d="M100.913,302.887c-14.341,0-26.012-11.671-26.012-26.015c0-14.348,11.671-26.018,26.012-26.018
		c14.348,0,26.018,11.671,26.018,26.018C126.931,291.216,115.26,302.887,100.913,302.887z M100.913,263.341
		c-7.457,0-13.524,6.07-13.524,13.53s6.067,13.527,13.524,13.527c7.463,0,13.53-6.067,13.53-13.527S108.376,263.341,100.913,263.341
		z"/>
</g>
<g>
</g>
<g>
</g>
<g>
</g>
<g>
</g>
<g>
</g>
<g>
</g>
<g>
</g>
<g>
</g>
<g>
</g>
<g>
</g>
<g>
</g>
<g>
</g>
<g>
</g>
<g>
</g>
<g>
</g>
</svg>
