<?xml version="1.0" encoding="UTF-8" standalone="no"?>
<!DOCTYPE svg PUBLIC "-//W3C//DTD SVG 20010904//EN"
              "http://www.w3.org/TR/2001/REC-SVG-20010904/DTD/svg10.dtd">

<svg xmlns="http://www.w3.org/2000/svg"
     width="7.90179in" height="0.999875in"
     viewBox="0 0 569 72">
  <path id="B"
        fill="none" stroke="black" stroke-width="3"
        d="M 42.00,8.00
           C 46.06,8.05 49.65,8.20 52.72,11.28
             56.37,14.92 57.13,26.34 55.26,30.96
             54.41,33.08 53.58,33.57 52.00,35.00
             53.42,36.45 54.30,37.15 55.16,39.09
             58.22,46.02 58.08,60.59 49.98,63.85
             46.04,65.45 38.45,65.00 34.00,65.00
             34.00,65.00 3.00,65.00 3.00,65.00
             3.00,65.00 3.00,8.00 3.00,8.00
             3.00,8.00 42.00,8.00 42.00,8.00 Z
           M 38.00,31.00
           C 42.46,30.91 45.89,30.46 45.89,25.00
             45.89,23.79 45.66,22.34 44.98,21.31
             43.14,18.55 38.91,19.01 36.00,19.00
             36.00,19.00 14.00,19.00 14.00,19.00
             14.00,19.00 14.00,31.00 14.00,31.00
             14.00,31.00 38.00,31.00 38.00,31.00 Z
           M 36.00,54.00
           C 38.02,54.00 41.96,54.14 43.71,53.26
             46.70,51.75 46.89,43.99 44.40,42.02
             43.06,40.96 40.62,41.03 39.00,41.00
             39.00,41.00 14.00,41.00 14.00,41.00
             14.00,41.00 14.00,54.00 14.00,54.00
             14.00,54.00 36.00,54.00 36.00,54.00 Z" />
  <path id="L"
        fill="none" stroke="black" stroke-width="3"
        d="M 72.00,8.00
           C 72.00,8.00 72.00,39.00 72.00,39.00
             72.05,42.75 72.33,48.67 75.43,51.26
             77.88,53.31 81.97,53.00 85.00,53.00
             85.00,53.00 107.00,53.00 107.00,53.00
             107.00,53.00 107.00,65.00 107.00,65.00
             107.00,65.00 79.00,65.00 79.00,65.00
             74.64,64.94 69.79,64.41 66.39,61.35
             62.70,58.03 62.06,52.67 62.00,48.00
             62.00,48.00 62.00,8.00 62.00,8.00
             62.00,8.00 72.00,8.00 72.00,8.00 Z" />
  <path id="O"
        fill="none" stroke="black" stroke-width="3"
        d="M 146.00,8.00
           C 150.64,8.06 155.26,8.50 158.57,12.22
             162.02,16.10 161.99,22.12 162.00,27.00
             162.01,35.36 164.02,55.80 157.66,61.35
             153.58,64.91 148.08,64.99 143.00,65.00
             135.26,65.01 119.86,66.62 114.39,60.78
             110.73,56.86 110.06,48.23 110.00,43.00
             109.92,35.85 109.21,18.59 113.51,13.11
             115.68,10.34 117.82,9.55 121.00,8.53
             121.00,8.53 146.00,8.00 146.00,8.00 Z
           M 122.74,21.56
           C 120.05,24.50 120.98,38.57 121.00,43.00
             121.01,45.57 120.78,49.31 122.74,51.26
             125.36,53.89 137.05,53.01 141.00,53.00
             143.60,52.99 147.42,53.33 149.42,51.40
             150.92,49.95 151.44,47.00 151.71,45.00
             152.37,40.19 152.70,25.02 149.42,21.51
             146.05,17.91 132.83,18.81 128.00,19.30
             126.05,19.75 124.19,19.98 122.74,21.56 Z" />
  <path id="C"
        fill="none" stroke="black" stroke-width="3"
        d="M 186.00,65.00
           C 181.20,64.94 175.88,64.50 172.39,60.78
             168.73,56.86 168.06,48.23 168.00,43.00
             167.89,33.34 165.78,14.53 176.00,9.57
             179.51,7.87 183.22,8.01 187.00,8.00
             187.00,8.00 217.00,8.00 217.00,8.00
             217.00,8.00 217.00,19.00 217.00,19.00
             217.00,19.00 192.00,19.00 192.00,19.00
             188.60,19.04 184.14,19.21 181.51,21.70
             179.01,24.07 179.04,27.81 179.00,31.00
             178.93,36.81 177.42,48.78 183.11,51.98
             185.27,53.19 188.56,53.00 191.00,53.00
             191.00,53.00 217.00,53.00 217.00,53.00
             217.00,53.00 217.00,65.00 217.00,65.00
             217.00,65.00 186.00,65.00 186.00,65.00 Z" />
  <path id="K"
        fill="none" stroke="black" stroke-width="3"
        d="M 233.00,8.00
           C 233.00,8.00 233.00,34.00 233.00,34.00
             233.00,34.00 249.09,16.00 249.09,16.00
             249.09,16.00 257.28,8.57 257.28,8.57
             257.28,8.57 271.00,8.00 271.00,8.00
             271.00,8.00 246.00,36.00 246.00,36.00
             251.26,40.10 268.69,59.34 272.00,65.00
             272.00,65.00 258.04,64.40 258.04,64.40
             258.04,64.40 249.97,57.00 249.97,57.00
             249.97,57.00 233.00,38.00 233.00,38.00
             233.00,38.00 233.00,65.00 233.00,65.00
             233.00,65.00 223.00,65.00 223.00,65.00
             223.00,65.00 223.00,8.00 223.00,8.00
             223.00,8.00 233.00,8.00 233.00,8.00 Z" />
  <path id="C #1"
        fill="none" stroke="black" stroke-width="3"
        d="M 291.00,65.00
           C 286.31,64.94 279.98,64.33 276.65,60.61
             273.37,56.94 273.02,50.68 273.00,46.00
             272.96,36.68 270.54,15.48 279.10,10.09
             282.64,7.86 286.99,8.01 291.00,8.00
             291.00,8.00 322.00,8.00 322.00,8.00
             322.00,8.00 322.00,19.00 322.00,19.00
             322.00,19.00 296.00,19.00 296.00,19.00
             292.69,19.04 288.89,19.10 286.31,21.51
             282.74,24.84 283.91,38.94 284.00,44.00
             284.05,46.32 284.01,48.80 285.60,50.69
             287.87,53.38 291.82,52.99 295.00,53.00
             295.00,53.00 322.00,53.00 322.00,53.00
             322.00,53.00 322.00,65.00 322.00,65.00
             322.00,65.00 291.00,65.00 291.00,65.00 Z" />
  <path id="H"
        fill="none" stroke="black" stroke-width="3"
        d="M 338.00,8.00
           C 338.00,8.00 338.00,31.00 338.00,31.00
             338.00,31.00 370.00,31.00 370.00,31.00
             370.00,31.00 370.00,8.00 370.00,8.00
             370.00,8.00 381.00,8.00 381.00,8.00
             381.00,8.00 381.00,65.00 381.00,65.00
             381.00,65.00 370.00,65.00 370.00,65.00
             370.00,65.00 370.00,42.00 370.00,42.00
             370.00,42.00 338.00,42.00 338.00,42.00
             338.00,42.00 338.00,65.00 338.00,65.00
             338.00,65.00 327.00,65.00 327.00,65.00
             327.00,65.00 327.00,8.00 327.00,8.00
             327.00,8.00 338.00,8.00 338.00,8.00 Z" />
  <path id="A"
        fill="none" stroke="black" stroke-width="3"
        d="M 406.75,18.00
           C 409.44,12.64 412.57,5.56 419.99,7.32
             425.86,8.71 428.35,17.10 430.76,22.00
             430.76,22.00 452.00,65.00 452.00,65.00
             452.00,65.00 439.63,64.01 439.63,64.01
             439.63,64.01 431.79,53.02 431.79,53.02
             431.79,53.02 411.00,52.00 411.00,52.00
             411.00,52.00 402.64,53.60 402.64,53.60
             402.64,53.60 396.35,64.01 396.35,64.01
             396.35,64.01 384.00,65.00 384.00,65.00
             384.00,65.00 406.75,18.00 406.75,18.00 Z
           M 408.00,42.00
           C 408.00,42.00 428.00,42.00 428.00,42.00
             428.00,42.00 418.00,21.00 418.00,21.00
             418.00,21.00 408.00,42.00 408.00,42.00 Z" />
  <path id="I"
        fill="none" stroke="black" stroke-width="3"
        d="M 466.00,8.00
           C 466.00,8.00 466.00,65.00 466.00,65.00
             466.00,65.00 455.00,65.00 455.00,65.00
             455.00,65.00 455.00,8.00 455.00,8.00
             455.00,8.00 466.00,8.00 466.00,8.00 Z" />
  <path id="N"
        fill="none" stroke="black" stroke-width="3"
        d="M 473.00,15.00
           C 473.09,10.36 474.11,6.10 480.00,7.33
             484.48,8.27 488.90,14.55 491.75,18.00
             491.75,18.00 516.00,47.00 516.00,47.00
             516.00,47.00 516.00,8.00 516.00,8.00
             516.00,8.00 526.00,8.00 526.00,8.00
             526.00,8.00 526.00,57.00 526.00,57.00
             525.93,61.65 525.27,66.99 519.00,65.67
             514.56,64.73 510.06,58.40 507.13,55.00
             507.13,55.00 483.00,26.00 483.00,26.00
             483.00,26.00 483.00,65.00 483.00,65.00
             483.00,65.00 473.00,65.00 473.00,65.00
             473.00,65.00 473.00,15.00 473.00,15.00 Z" />
  <path id="+"
        fill="none" stroke="black" stroke-width="3"
        d="M 552.00,16.00
           C 552.00,16.00 552.00,31.00 552.00,31.00
             552.00,31.00 564.00,31.00 564.00,31.00
             564.00,31.00 564.00,40.00 564.00,40.00
             564.00,40.00 552.00,40.00 552.00,40.00
             552.00,40.00 552.00,55.00 552.00,55.00
             552.00,55.00 545.00,55.00 545.00,55.00
             545.00,55.00 545.00,40.00 545.00,40.00
             545.00,40.00 533.00,40.00 533.00,40.00
             533.00,40.00 533.00,31.00 533.00,31.00
             533.00,31.00 545.00,31.00 545.00,31.00
             545.00,31.00 545.00,16.00 545.00,16.00
             545.00,16.00 552.00,16.00 552.00,16.00 Z" />
</svg>
