<?xml version="1.0" encoding="UTF-8" standalone="no"?>
<svg
   xmlns:dc="http://purl.org/dc/elements/1.1/"
   xmlns:cc="http://creativecommons.org/ns#"
   xmlns:rdf="http://www.w3.org/1999/02/22-rdf-syntax-ns#"
   xmlns:svg="http://www.w3.org/2000/svg"
   xmlns="http://www.w3.org/2000/svg"
   xmlns:sodipodi="http://sodipodi.sourceforge.net/DTD/sodipodi-0.dtd"
   xmlns:inkscape="http://www.inkscape.org/namespaces/inkscape"
   width="8.3423634in"
   height="0.85908306in"
   viewBox="0 0 600.72524 61.861712"
   version="1.1"
   id="svg868"
   sodipodi:docname="logo_new_text_white_outline.svg"
   inkscape:version="0.92.2 (5c3e80d, 2017-08-06)">
  <metadata
     id="metadata874">
    <rdf:RDF>
      <cc:Work
         rdf:about="">
        <dc:format>image/svg+xml</dc:format>
        <dc:type
           rdf:resource="http://purl.org/dc/dcmitype/StillImage" />
        <dc:title></dc:title>
      </cc:Work>
    </rdf:RDF>
  </metadata>
  <defs
     id="defs872" />
  <sodipodi:namedview
     pagecolor="#ffffff"
     bordercolor="#666666"
     borderopacity="1"
     objecttolerance="10"
     gridtolerance="10"
     guidetolerance="10"
     inkscape:pageopacity="0"
     inkscape:pageshadow="2"
     inkscape:window-width="1600"
     inkscape:window-height="837"
     id="namedview870"
     showgrid="false"
     fit-margin-top="0"
     fit-margin-left="0"
     fit-margin-right="0"
     fit-margin-bottom="0"
     inkscape:zoom="0.52946422"
     inkscape:cx="397.43811"
     inkscape:cy="58.869698"
     inkscape:window-x="-8"
     inkscape:window-y="-8"
     inkscape:window-maximized="1"
     inkscape:current-layer="svg868" />
  <path
     id="B"
     d="m 40.5,2.4882906 c 4.06,0.05 7.65,0.2 10.72,3.28 3.65,3.64 4.41,15.0600004 2.54,19.6800004 -0.85,2.12 -1.68,2.61 -3.26,4.04 1.42,1.45 2.3,2.15 3.16,4.09 3.06,6.93 2.92,21.5 -5.18,24.76 -3.94,1.6 -11.53,1.15 -15.98,1.15 0,0 -31,0 -31,0 0,0 0,-57.0000004 0,-57.0000004 0,0 39,0 39,0 z m -4,23.0000004 c 4.46,-0.09 7.89,-0.54 7.89,-6 0,-1.21 -0.23,-2.66 -0.91,-3.69 -1.84,-2.76 -6.07,-2.3 -8.98,-2.31 0,0 -22,0 -22,0 0,0 0,12 0,12 0,0 24,0 24,0 z m -2,23 c 2.02,0 5.96,0.14 7.71,-0.74 2.99,-1.51 3.18,-9.27 0.69,-11.24 -1.34,-1.06 -3.78,-0.99 -5.4,-1.02 0,0 -25,0 -25,0 0,0 0,13 0,13 0,0 22,0 22,0 z"
     inkscape:connector-curvature="0"
     style="fill:none;stroke:#f1ffff;stroke-width:3;stroke-opacity:1" />
  <path
     id="L"
     d="m 70.5,2.4882906 c 0,0 0,31.0000004 0,31.0000004 0.05,3.75 0.33,9.67 3.43,12.26 2.45,2.05 6.54,1.74 9.57,1.74 0,0 22,0 22,0 0,0 0,12 0,12 0,0 -28,0 -28,0 -4.36,-0.06 -9.21,-0.59 -12.61,-3.65 -3.69,-3.32 -4.33,-8.68 -4.39,-13.35 0,0 0,-40.0000004 0,-40.0000004 0,0 10,0 10,0 z"
     inkscape:connector-curvature="0"
     style="fill:none;stroke:#f1ffff;stroke-width:3;stroke-opacity:1" />
  <path
     id="O"
     d="m 144.5,2.4882906 c 4.64,0.06 9.26,0.5 12.57,4.22 3.45,3.8800004 3.42,9.9000004 3.43,14.7800004 0.01,8.36 2.02,28.8 -4.34,34.35 -4.08,3.56 -9.58,3.64 -14.66,3.65 -7.74,0.01 -23.14,1.62 -28.61,-4.22 -3.66,-3.92 -4.33,-12.55 -4.39,-17.78 -0.08,-7.15 -0.79,-24.41 3.51,-29.8900004 2.17,-2.77 4.31,-3.56 7.49,-4.58 0,0 25,-0.53 25,-0.53 z M 121.24,16.048291 c -2.69,2.94 -1.76,17.01 -1.74,21.44 0.01,2.57 -0.22,6.31 1.74,8.26 2.62,2.63 14.31,1.75 18.26,1.74 2.6,-0.01 6.42,0.33 8.42,-1.6 1.5,-1.45 2.02,-4.4 2.29,-6.4 0.66,-4.81 0.99,-19.98 -2.29,-23.49 -3.37,-3.6 -16.59,-2.7 -21.42,-2.21 -1.95,0.45 -3.81,0.68 -5.26,2.26 z"
     inkscape:connector-curvature="0"
     style="fill:none;stroke:#f1ffff;stroke-width:3;stroke-opacity:1" />
  <path
     id="C"
     d="m 184.5,59.488291 c -4.8,-0.06 -10.12,-0.5 -13.61,-4.22 -3.66,-3.92 -4.33,-12.55 -4.39,-17.78 -0.11,-9.66 -2.22,-28.4700004 8,-33.4300004 3.51,-1.7 7.22,-1.56 11,-1.57 0,0 30,0 30,0 0,0 0,11.0000004 0,11.0000004 0,0 -25,0 -25,0 -3.4,0.04 -7.86,0.21 -10.49,2.7 -2.5,2.37 -2.47,6.11 -2.51,9.3 -0.07,5.81 -1.58,17.78 4.11,20.98 2.16,1.21 5.45,1.02 7.89,1.02 0,0 26,0 26,0 0,0 0,12 0,12 0,0 -31,0 -31,0 z"
     inkscape:connector-curvature="0"
     style="fill:none;stroke:#f1ffff;stroke-width:3;stroke-opacity:1" />
  <path
     id="K"
     d="m 231.5,2.4882906 c 0,0 0,26.0000004 0,26.0000004 0,0 16.09,-18 16.09,-18 0,0 8.19,-7.4300004 8.19,-7.4300004 0,0 13.72,-0.57 13.72,-0.57 0,0 -25,28.0000004 -25,28.0000004 5.26,4.1 22.69,23.34 26,29 0,0 -13.96,-0.6 -13.96,-0.6 0,0 -8.07,-7.4 -8.07,-7.4 0,0 -16.97,-19 -16.97,-19 0,0 0,27 0,27 0,0 -10,0 -10,0 0,0 0,-57.0000004 0,-57.0000004 0,0 10,0 10,0 z"
     inkscape:connector-curvature="0"
     style="fill:none;stroke:#f1ffff;stroke-width:3;stroke-opacity:1" />
  <path
     id="C #1"
     d="m 289.5,59.488291 c -4.69,-0.06 -11.02,-0.67 -14.35,-4.39 -3.28,-3.67 -3.63,-9.93 -3.65,-14.61 -0.04,-9.32 -2.46,-30.5200004 6.1,-35.9100004 3.54,-2.23 7.89,-2.08 11.9,-2.09 0,0 31,0 31,0 0,0 0,11.0000004 0,11.0000004 0,0 -26,0 -26,0 -3.31,0.04 -7.11,0.1 -9.69,2.51 -3.57,3.33 -2.4,17.43 -2.31,22.49 0.05,2.32 0.01,4.8 1.6,6.69 2.27,2.69 6.22,2.3 9.4,2.31 0,0 27,0 27,0 0,0 0,12 0,12 0,0 -31,0 -31,0 z"
     inkscape:connector-curvature="0"
     style="fill:none;stroke:#f1ffff;stroke-width:3;stroke-opacity:1" />
  <path
     id="H"
     d="m 336.5,2.4882906 c 0,0 0,23.0000004 0,23.0000004 0,0 32,0 32,0 0,0 0,-23.0000004 0,-23.0000004 0,0 11,0 11,0 0,0 0,57.0000004 0,57.0000004 0,0 -11,0 -11,0 0,0 0,-23 0,-23 0,0 -32,0 -32,0 0,0 0,23 0,23 0,0 -11,0 -11,0 0,0 0,-57.0000004 0,-57.0000004 0,0 11,0 11,0 z"
     inkscape:connector-curvature="0"
     style="fill:none;stroke:#f1ffff;stroke-width:3;stroke-opacity:1" />
  <path
     style="fill:none;stroke:#f1ffff;stroke-width:3;stroke-opacity:1"
     d="m 405.25,12.488291 c 2.17587,-4.2182084 4.36674,-9.6164687 9.49333,-10.807266 4.52159,-1.01696303 8.52453,2.3285337 10.42917,6.1510156 2.52506,4.9292994 4.64394,10.0591984 7.20835,14.9743654 6.03972,12.227295 12.07943,24.45459 18.11915,36.681885 l -12.37,-0.99 c -2.61333,-3.663333 -5.22677,-6.746466 -7.8401,-10.409799 -14.41091,-0.05852 -14.34877,-0.06195 -29.15,0 -2.09667,3.47 -4.19323,6.939799 -6.2899,10.409799 l -12.35,0.99 c 7.58333,-15.666667 15.16667,-31.333333 22.75,-47 z m 1.25,24 h 20 c -3.33333,-7 -6.66667,-14 -10,-21 -3.33333,7 -6.66667,14 -10,21 z"
     id="A"
     inkscape:connector-curvature="0"
     sodipodi:nodetypes="ccccccccccccccc" />
  <path
     id="I"
     d="m 464.5,2.4882906 c 0,0 0,57.0000004 0,57.0000004 0,0 -11,0 -11,0 0,0 0,-57.0000004 0,-57.0000004 0,0 11,0 11,0 z"
     inkscape:connector-curvature="0"
     style="fill:none;stroke:#f1ffff;stroke-width:3;stroke-opacity:1" />
  <path
     id="N"
     d="m 471.5,9.4882906 c 0.09,-4.64 1.11,-8.90000003 7,-7.67 4.48,0.94 8.9,7.22 11.75,10.6700004 0,0 24.25,29 24.25,29 0,0 0,-39.0000004 0,-39.0000004 0,0 10,0 10,0 0,0 0,49.0000004 0,49.0000004 -0.07,4.65 -0.73,9.99 -7,8.67 -4.44,-0.94 -8.94,-7.27 -11.87,-10.67 0,0 -24.13,-29 -24.13,-29 0,0 0,39 0,39 0,0 -10,0 -10,0 0,0 0,-50.0000004 0,-50.0000004 z"
     inkscape:connector-curvature="0"
     style="fill:none;stroke:#f1ffff;stroke-width:3;stroke-opacity:1" />
  <path
     style="fill:none;stroke:#f1ffff;stroke-width:3.00037503;stroke-miterlimit:4;stroke-dasharray:none;stroke-opacity:1"
     inkscape:connector-curvature="0"
     d="m 563.22214,8.3782106 c 0.003,-1.788658 -0.17784,-3.844136 1.2007,-5.2226899 1.92699,-1.9270084 9.51644,-2.0357106 11.07288,0.3952845 0.85975,1.3390254 1.0475,4.2245994 1.06728,5.8156164 0,0 0,15.3172544 0,15.3172544 0,0 17.29366,0 17.29366,0 1.26984,0.01977 2.71265,-0.0099 3.74038,0.859742 2.11972,1.788661 2.095,8.765424 0.34587,10.786313 -1.22042,1.403259 -3.38956,1.195735 -5.07447,1.200675 0,0 -16.30544,0 -16.30544,0 0,0 0,15.317254 0,15.317254 -0.0205,1.546549 -0.19268,4.451886 -1.06728,5.736559 -1.57621,2.317354 -9.17059,2.267941 -11.07288,0.434811 -1.38845,-1.334082 -1.19575,-3.419204 -1.2007,-5.183159 0,0 0,-16.305465 0,-16.305465 0,0 -16.79956,0 -16.79956,0 -1.65524,-0.005 -3.44886,0.182817 -4.68905,-1.141382 -1.98137,-2.124652 -1.89737,-9.575756 0.80045,-11.127246 1.1908,-0.681864 3.03381,-0.578102 4.3827,-0.578102 0,0 16.30546,0 16.30546,0 0,0 0,-16.3054654 0,-16.3054654 z"
     id="path1451" />
</svg>
