<?xml version="1.0" encoding="UTF-8" standalone="no"?>
<!-- Generator: Adobe Illustrator 16.0.0, SVG Export Plug-In . SVG Version: 6.00 Build 0)  -->

<svg
   xmlns:dc="http://purl.org/dc/elements/1.1/"
   xmlns:cc="http://creativecommons.org/ns#"
   xmlns:rdf="http://www.w3.org/1999/02/22-rdf-syntax-ns#"
   xmlns:svg="http://www.w3.org/2000/svg"
   xmlns="http://www.w3.org/2000/svg"
   xmlns:sodipodi="http://sodipodi.sourceforge.net/DTD/sodipodi-0.dtd"
   xmlns:inkscape="http://www.inkscape.org/namespaces/inkscape"
   version="1.1"
   x="0px"
   y="0px"
   width="264.05627"
   height="156.61925"
   viewBox="0 0 264.05627 156.61925"
   xml:space="preserve"
   id="svg128"
   sodipodi:docname="OpenSource_Icon.svg"
   inkscape:version="0.92.2 (5c3e80d, 2017-08-06)"><metadata
     id="metadata134"><rdf:RDF><cc:Work
         rdf:about=""><dc:format>image/svg+xml</dc:format><dc:type
           rdf:resource="http://purl.org/dc/dcmitype/StillImage" /><dc:title></dc:title></cc:Work></rdf:RDF></metadata><defs
     id="defs132" /><sodipodi:namedview
     pagecolor="#ffffff"
     bordercolor="#666666"
     borderopacity="1"
     objecttolerance="10"
     gridtolerance="10"
     guidetolerance="10"
     inkscape:pageopacity="0"
     inkscape:pageshadow="2"
     inkscape:window-width="1600"
     inkscape:window-height="837"
     id="namedview130"
     showgrid="false"
     fit-margin-top="0"
     fit-margin-left="0"
     fit-margin-right="0"
     fit-margin-bottom="0"
     inkscape:zoom="0.2979798"
     inkscape:cx="-102.14347"
     inkscape:cy="81.452062"
     inkscape:window-x="-8"
     inkscape:window-y="-8"
     inkscape:window-maximized="1"
     inkscape:current-layer="svg128" /><g
     id="_x32_"
     transform="translate(-173.22821,-320.83281)"><path
       style="fill:#ffffff;stroke:#40b3ce;stroke-width:0.5;stroke-miterlimit:10"
       d="m 267.462,451.531 -0.433,3.059 c 0,0 6.614,5.862 6.973,5.862 0.358,0 7.787,-4.83 7.787,-4.83 l -0.616,-4.83 -7.171,0.901 z"
       id="path7"
       inkscape:connector-curvature="0" /><polygon
       style="fill:#ffffff;stroke:#2f9bb0;stroke-width:0.25;stroke-miterlimit:10"
       points="274.214,474.343 291.685,458.375 281.585,454.025 274.001,460.452 267.029,454.025 255.831,459.172 "
       id="polygon9" /><polygon
       style="fill:#40b3ce"
       points="271.814,465.276 270.224,471.661 273.715,474.907 277.836,470.95 276.069,465.276 277.065,463.555 274.254,460.452 270.727,463.283 "
       id="polygon11" /><path
       style="fill:#20566b;stroke:#20566b;stroke-miterlimit:10"
       d="m 274.001,473.969 -16.933,-15.165 -11.82,3.196 6.348,14.313 47.404,0.634 c 0,0 4,-13.926 4,-14.197 0,-0.272 -11.885,-4.446 -11.885,-4.446 z"
       id="path13"
       inkscape:connector-curvature="0" /><path
       style="fill:#2f9bb0;stroke:#2f9bb0;stroke-width:0.5;stroke-miterlimit:10"
       d="m 285.093,415.202 3.667,0.95 c 0,0 -1.358,-6.384 -13.311,-6.928 -11.953,-0.542 -14.261,7.743 -15.755,11.684 -1.495,3.938 -0.156,11.155 0.679,17.384 1.092,8.149 7.606,13.718 7.606,13.718 0,0 2.832,2.716 5.898,2.58 3.065,-0.136 4.924,-1.145 7.548,-4.073 3.61,-4.034 5.116,-6.127 6.384,-11.274 1.27,-5.147 1.766,-5.025 2.309,-9.372 0.543,-4.345 0.038,-9.243 -1.223,-10.593 -1.261,-1.35 -3.802,-4.076 -3.802,-4.076 z"
       id="path15"
       inkscape:connector-curvature="0" /><path
       style="fill:#ffffff;stroke:#ffffff;stroke-width:0.5;stroke-miterlimit:10"
       d="m 277.17,446.441 c 0,0 -1.548,0.633 -2.604,0.633 -1.055,0 -2.376,-0.633 -2.376,-0.633 0,0 -3.079,2.354 -3.259,3.124 -0.182,0.77 3.831,1.132 5.763,1.222 1.933,0.09 5.156,-0.896 5.202,-1.713 0.044,-0.813 -2.726,-2.633 -2.726,-2.633 z"
       id="path17"
       inkscape:connector-curvature="0" /><path
       style="fill:#ffffff;stroke:#ffffff;stroke-width:0.5;stroke-miterlimit:10"
       d="m 284.414,421.179 c 0,0 -4.301,1.516 -7.198,1.29 -2.898,-0.226 -7.47,-1.382 -10.458,-2.104 -2.989,-0.726 -3.984,0.904 -4.89,2.579 -0.906,1.677 0,10.595 0,10.595 0,0 1.806,14.11 4.074,14.125 1.448,0.01 0.497,-2.034 3.463,-3.192 2.099,-0.818 4.384,0.611 5.288,0.68 0.905,0.068 2.629,-1.529 3.88,-1.221 3.327,0.813 1.358,4.395 4.346,2.512 2.988,-1.883 3.871,-10.707 4.414,-13.922 0.544,-3.215 -2.919,-11.342 -2.919,-11.342 z"
       id="path19"
       inkscape:connector-curvature="0" /><path
       style="fill:#ffffff;stroke:#40b3ce;stroke-width:0.25;stroke-miterlimit:10"
       d="m 259.969,434.995 c 0,0 -1.973,0.516 -1.769,2.55 0.204,2.038 0.888,2.785 1.769,3.6 0.88,0.815 1.295,0.564 1.295,0.564 z"
       id="path21"
       inkscape:connector-curvature="0" /><path
       style="fill:#ffffff;stroke:#40b3ce;stroke-width:0.25;stroke-miterlimit:10"
       d="m 290.688,434.995 c 0,0 1.971,0.516 1.768,2.55 -0.204,2.038 -0.888,2.785 -1.768,3.6 -0.881,0.815 -1.296,0.564 -1.296,0.564 z"
       id="path23"
       inkscape:connector-curvature="0" /></g><g
     id="Layer_2"
     inkscape:label="Layer_2"
     transform="translate(-173.22821,-320.83281)"><path
       style="fill:#20566b"
       d="m 215.497,459.43 29.373,1.101 c 0,0 2.824,-22.758 1.972,-29.483 -0.852,-6.729 -3.497,-12.215 -7.534,-13.991 -4.036,-1.778 -10.225,-2.983 -15.067,-1.504 -4.844,1.48 -4.574,6.479 -4.574,6.479 0,0 -8.321,8.179 -7.131,15.809 1.19,7.63 2.961,21.589 2.961,21.589 z"
       id="path26"
       inkscape:connector-curvature="0" /><g
       id="g32"><path
         style="fill:#ffffff;stroke:#2f9bb0;stroke-width:0.5;stroke-miterlimit:10"
         d="m 253.585,476.947 c 0.715,-7.895 -5.123,-16.821 -9.801,-16.672 -3.735,0.12 -10.584,4.824 -14.701,4.673 -4.139,-0.151 -6.576,-3.145 -10.135,-4.418 -5.751,-2.058 -12.839,-0.097 -14.906,6.035 -0.361,1.07 -1.121,10.382 0,10.382 3.693,0 49.543,0 49.543,0 z"
         id="path28"
         inkscape:connector-curvature="0" /><path
         style="fill:#ffffff;stroke:#2f9bb0;stroke-width:0.5;stroke-miterlimit:10"
         d="m 204.042,466.565 c -0.361,1.07 -1.482,9.839 -0.366,9.747"
         id="path30"
         inkscape:connector-curvature="0" /></g><path
       style="fill:#40b3ce"
       d="m 221.55,425.529 c -0.348,-0.245 -3.981,8.124 -4.195,9.046 -1.038,4.501 -0.863,9.498 0.518,13.904 1.076,3.435 5.426,4.531 5.426,4.531 l 0.225,3.068 -8.89,3.714 14.45,5.996 16.165,-5.259 -10.917,-3.26 -0.673,-3.984 c 0,0 2.282,-0.13 5.112,-4.901 2.154,-3.631 2.153,-4.993 2.153,-4.993 h 0.671 l -0.538,-8.795 c 0,0 -7.504,-0.62 -11.306,-3.295 -3.801,-2.675 -8.2,-5.772 -8.201,-5.772 z"
       id="path34"
       inkscape:connector-curvature="0" /></g><g
     id="_x33_"
     transform="translate(-173.22821,-320.83281)"><polygon
       style="fill:#2f9bb0;stroke:#2f9bb0;stroke-width:0.5;stroke-miterlimit:10"
       points="307.342,439.584 316.229,454.17 315.613,457.859 309.492,459.417 307.342,461.285 323.94,471.438 340.874,462.046 331.083,457.333 331.148,453.164 340.375,441 337.375,426.875 330.645,419.129 315.375,421.875 "
       id="polygon37" /><path
       style="fill:#40b3ce;stroke:#40b3ce;stroke-miterlimit:10"
       d="m 297.333,476.947 c 0,0 -0.602,-11.818 1.417,-14.697 2.019,-2.879 11.583,-2.81 11.583,-2.81 0,0 7.876,6.684 13.521,6.789 5.645,0.105 10.891,-6.789 10.891,-6.789 0,0 12.236,2.947 14.613,4.726 2.377,1.779 1.392,12.781 1.392,12.781 z"
       id="path39"
       inkscape:connector-curvature="0" /><path
       style="fill:#20566b;stroke:#20566b;stroke-miterlimit:10"
       d="m 315.015,420.939 c 0,0 -2.854,-0.922 -4.052,0 -1.198,0.921 -0.736,3.447 -0.736,3.447 0,0 -2.577,0.235 -3.177,1.525 -0.599,1.289 0,3.684 0,3.684 0,0 -1.245,0.46 -1.06,2.394 0.184,1.935 1.06,2.579 1.06,2.579 0,0 -1.06,1.198 -1.06,3.316 0,2.116 1.06,3.314 1.06,3.314 0,0 -1.245,1.012 -1.06,2.394 0.184,1.381 2.572,2.395 2.572,2.395 0,0 -1.65,0.736 -1.513,2.026 0.138,1.289 1.513,2.21 1.513,2.21 0,0 -1.558,2.579 -1.513,1.289 0.045,-1.289 1.513,1.29 1.513,1.29 0,0 -2.85,-0.553 -2.572,2.025 0.275,2.578 3.13,2.025 3.13,2.025 0,0 0.094,1.196 2.396,0 2.302,-1.195 2.025,0 2.025,0 0,0 1.659,1.196 3.5,0 1.841,-1.195 1.841,-3.684 1.841,-3.684 0,0 -7.643,-3.864 -6.998,-15.191 0.501,-8.828 6.078,-13.592 6.078,-13.592 l 11.418,5.024 c 0,0 5.617,2.761 6.631,4.42 1.013,1.661 -1.288,2.21 -1.288,2.21 0,0 1.021,-0.411 1.473,1.845 0.368,1.842 -1.289,1.84 -1.289,1.84 0,0 1.381,0.182 1.104,1.657 -0.277,1.475 -1.688,1.834 -1.688,1.834 l -0.115,2.666 -5.933,6.551 c 0,0 -0.188,4.115 1.105,4.42 1.293,0.305 0.62,-1.521 1.842,-1.657 1.697,-0.19 1.71,1.233 1.71,1.233 0,0 -0.052,-0.96 2.159,0.424 2.21,1.384 0.92,0.922 0.92,0.922 0,0 -0.092,0.46 2.947,0 3.038,-0.46 0,-1.29 0,-1.29 l 3.868,-0.089 c 0,0 1.288,-1.658 0.552,-2.858 -1.011,-1.648 -1.011,-1.648 -1.011,-1.648 1.237,-5.163 -0.071,-2.45 -0.278,-5.163 -0.083,-1.089 -0.438,3.756 -0.312,-2.969 0,0 1.417,-3.291 0.497,-4.396 -2.265,-2.719 -0.368,-5.715 -0.368,-5.715 0,0 0.379,-2.182 -0.646,-2.757 -2.843,-1.601 -0.46,-3.688 -0.46,-3.688 0,0 -0.523,-1.645 -1.382,-2.814 -1.163,-1.587 -2.302,-2.158 -2.302,-2.158 l 0.185,-1.289 c 0,0 -0.87,-1.877 -1.935,-3.312 -0.856,-1.152 -2.763,-1.014 -2.763,-1.014 0,0 -0.991,-1.513 -2.9,-2.307 -2.852,-1.184 -1.966,-0.843 -6.217,-0.843 -2.408,0 -5.709,1.027 -7.183,2.134 -1.472,1.105 -1.288,5.341 -1.288,5.341 z"
       id="path41"
       inkscape:connector-curvature="0" /></g><g
     id="_x34_"
     transform="translate(-173.22821,-320.83281)"><polygon
       style="fill:#40b3ce;stroke:#40b3ce;stroke-width:0.5;stroke-miterlimit:10"
       points="396.5,458.304 386.167,454.5 378.452,459.44 370.75,454.5 360.5,459.44 378.452,473.833 "
       id="polygon44" /><path
       style="fill:#ffffff;stroke:#ffffff;stroke-width:0.5;stroke-miterlimit:10"
       d="m 378.625,460.667 c 0,0 -4.042,3.25 -3.792,3.083 0.25,-0.167 1.5,1.667 1.5,1.667 0,0 -1.176,6.487 -1.084,6.572 0.092,0.085 2.751,3.429 2.751,3.429 l 4.083,-2.835 -1.583,-7.5 1.583,-1.5 z"
       id="path46"
       inkscape:connector-curvature="0" /><path
       style="fill:#2f9bb0;stroke:#2f9bb0;stroke-miterlimit:10"
       d="m 378.417,474.947 -17.167,-16.03 c 0,0 -3,0.521 -4.5,1.083 -1.5,0.562 -4,2.75 -5.5,4.75 -1.5,2 -1.892,12.197 -1.892,12.197 h 58.895 c 0,0 0.706,-6.781 -2.586,-11.614 -3.292,-4.833 -8.542,-7.029 -8.542,-7.029 z"
       id="path48"
       inkscape:connector-curvature="0" /><polygon
       style="fill:#20566b;stroke:#20566b;stroke-width:0.5;stroke-miterlimit:10"
       points="385.667,454.025 385,450.917 378.896,453 371.25,451.583 370.583,456 378.625,460.167 387.21,454.884 "
       id="polygon50" /><path
       style="fill:#20566b;stroke:#20566b;stroke-width:0.5;stroke-miterlimit:10"
       d="m 363.812,441.5 c 0.562,0.438 1.188,0.125 1.312,0 0.124,-0.125 -0.656,-3.5 -0.656,-3.5 l -0.656,-3.25 c 0,0 -1.13,-0.542 -1.375,0 -0.245,0.542 -0.812,1.242 -0.375,3.402 0.437,2.16 1.188,2.91 1.75,3.348 z"
       id="path52"
       inkscape:connector-curvature="0" /><path
       style="fill:#20566b;stroke:#20566b;stroke-width:0.5;stroke-miterlimit:10"
       d="m 393.131,441.5 c -0.562,0.438 -1.188,0.125 -1.312,0 -0.124,-0.125 0.656,-3.5 0.656,-3.5 l 0.656,-3.25 c 0,0 1.13,-0.542 1.375,0 0.245,0.542 0.812,1.242 0.375,3.402 -0.437,2.16 -1.188,2.91 -1.75,3.348 z"
       id="path54"
       inkscape:connector-curvature="0" /><path
       style="fill:#2f9bb0;stroke:#2f9bb0;stroke-width:0.25;stroke-miterlimit:10"
       d="m 378.5,454.5 c -7.134,0.396 -13.625,-12.625 -12.938,-10.688 0.687,1.937 -2.042,-9.75 -2.042,-9.75 0,0 -1.155,0.125 -1.619,-1.688 -0.464,-1.813 0.599,-2.125 0.599,-2.125 0,0 -1,0 -1.25,-1.438 -0.25,-1.438 1.125,-1.625 1.125,-1.625 0,0 -1.938,-0.812 -1.875,-2.062 0.063,-1.25 1.401,-1.562 1.401,-1.562 0,0 -1.401,0.25 -1.401,-1.5 0,-1.75 1.401,-1 1.401,-1 0,0 -0.589,-0.742 -0.464,-1.934 C 361.562,417.936 363,418 363,418 c 0,0 -0.875,-1.75 -0.625,-2.75 0.25,-1 1.5,-0.375 1.5,-0.375 0,0 -0.896,-1 -0.354,-2 0.542,-1 1.088,0 1.088,0 0,0 -0.046,-1.125 0.892,-1.812 0.938,-0.687 2,-0.013 2,-0.013 0,0 -0.812,-0.425 0.375,-1.237 1.187,-0.812 2.062,0 2.062,0 0,0 0.375,-0.688 1.062,-1.188 0.687,-0.5 1.312,0 1.312,0 0,0 0.062,-0.25 0.875,-0.688 0.813,-0.438 1.188,0.375 1.188,0.375 0,0 -0.375,-0.75 0.938,-1.125 1.313,-0.375 1.562,0.625 1.562,0.625 0,0 0.68,-0.875 1.59,-1.062 0.91,-0.187 0.91,0.812 0.91,0.812 0,0 1.25,-1.125 2.188,-0.812 0.938,0.313 1.25,1.375 1.25,1.375 0,0 0.535,-0.812 1.611,-0.438 1.076,0.374 0.826,1 0.826,1 0,0 1.375,-0.75 2.312,-0.312 0.937,0.438 0.375,1.25 0.375,1.25 0,0 1.125,-0.625 2,-0.062 0.875,0.563 0.5,1.5 0.5,1.5 0,0 0.484,-0.688 1.367,-0.188 0.883,0.5 0.518,1.938 0.518,1.938 0,0 0.99,-0.287 1.615,0.606 0.625,0.893 0,2.894 0,2.894 0,0 1.625,-0.125 2.062,1 0.437,1.125 -0.625,2.875 -0.438,2.875 0.187,0 0.75,0.25 1.188,1 0.438,0.75 -0.75,1.375 -0.75,1.375 0,0 0.625,1.25 0.75,2.062 0.125,0.812 -0.5,1.125 -0.5,1.125 0,0 0.875,1.375 0.875,2.125 0,0.75 -1.188,1.75 -1.188,1.75 0,0 1.148,1.432 0.625,1.875 -0.523,0.443 -1.438,1.188 -1.25,1.188 0.188,0 1.188,0.098 0.688,0.893 -0.5,0.795 -2.125,0.482 -2.125,0.482 0,0 -1.938,6.688 -3.062,9.75 -1.124,3.062 -5.178,10.291 -12.312,10.687 z"
       id="path56"
       inkscape:connector-curvature="0" /><path
       style="fill:#20566b;stroke:#20566b;stroke-width:0.5;stroke-miterlimit:10"
       d="m 378.896,446.719 c 0,0 -0.771,-0.781 -2.084,-0.594 -1.313,0.187 -2.259,0.685 -2.688,1.289 -0.601,0.846 -0.938,1.898 -0.938,1.898 0,0 3.438,2.125 6,2.062 2.562,-0.063 5.236,-2.332 5.236,-2.332 0,0 -0.793,-0.94 -1.254,-1.629 -0.422,-0.63 -0.826,-1.164 -1.92,-1.289 -1.099,-0.125 -2.352,0.595 -2.352,0.595 z"
       id="path58"
       inkscape:connector-curvature="0" /><path
       style="fill:#20566b;stroke:#20566b;stroke-width:0.5;stroke-miterlimit:10"
       d="m 369.583,419.747 c 0,0 4.517,3.062 10,2.667 5.483,-0.395 9.632,-0.83 9.632,-0.83 0,0 2.848,5.458 3.098,9.041 0.25,3.583 -4.562,16.455 -4.562,16.455 0,0 -2.583,-2 -4.5,-2.583 -1.917,-0.583 -4.354,0.333 -4.354,0.333 0,0 -3.563,-0.833 -5.146,-0.333 -1.583,0.5 -3.167,2.917 -3.167,2.917 -4.521,-5.289 -5.646,-11.715 -5.946,-16.807 -0.463,-7.816 4.945,-10.86 4.945,-10.86 z"
       id="path60"
       inkscape:connector-curvature="0" /></g><g
     id="Layer_6"
     transform="translate(-173.22821,-320.83281)"><path
       style="fill:#20566b;stroke:#20566b;stroke-miterlimit:10"
       d="m 272.893,404.666 -15.535,-28.333 c 0,0 -18.569,-7.434 -16.905,-29.833 1.083,-14.583 13.314,-25.219 30.117,-25.167 24.216,0.074 30.572,17.042 29.396,33.042 -1.179,16.04 -24.324,22.748 -24.324,22.748 z"
       id="path63"
       inkscape:connector-curvature="0" /><path
       style="fill:#2f9bb0;stroke:#2f9bb0;stroke-miterlimit:10"
       d="m 224.549,411.199 -20.706,-17 c 0,0 -25.138,1.047 -29.824,-24.125 -2.676,-14.375 13.606,-29.882 30.409,-29.831 24.216,0.074 29.061,11.887 28.92,29.831 -0.126,16.083 -13.982,21.69 -13.982,21.69 z"
       id="path65"
       inkscape:connector-curvature="0" /><path
       style="fill:#ffffff;stroke:#2f9bb0;stroke-width:0.5;stroke-miterlimit:10"
       d="M 386,404.666 409.5,380 c 0,0 19.914,1.238 26.875,-23.75 4.375,-15.705 -13.838,-32.939 -30.641,-32.888 -24.217,0.074 -30.572,17.042 -29.396,33.042 1.179,16.04 20.162,21.232 20.162,21.232 z"
       id="path67"
       inkscape:connector-curvature="0" /><path
       style="fill:#40b3ce;stroke:#40b3ce;stroke-miterlimit:10"
       d="m 323.5,409.199 1.48,-22.646 c 0,0 -18.568,-7.434 -16.904,-29.833 1.084,-14.583 13.314,-25.219 30.117,-25.167 24.217,0.074 30.572,17.042 29.396,33.042 -1.179,16.04 -24.324,22.748 -24.324,22.748 z"
       id="path69"
       inkscape:connector-curvature="0" /><g
       id="g83"><g
         id="g75"><path
           style="fill:#ffffff"
           d="m 194.085,378.933 v -4.208 h 2.816 v -14.244 h -2.816 v -4.176 h 12.075 c 2.698,0 4.694,0.48 5.989,1.441 1.295,0.96 1.942,2.326 1.942,4.095 0,0.691 -0.054,1.29 -0.162,1.796 -0.108,0.507 -0.281,0.96 -0.518,1.36 -0.238,0.399 -0.561,0.75 -0.971,1.052 -0.411,0.302 -1.388,0.572 -1.991,0.809 0.583,0.173 1.603,0.405 2.12,0.696 0.518,0.292 0.972,0.664 1.36,1.117 0.389,0.453 0.696,0.987 0.922,1.603 0.227,0.615 0.34,1.311 0.34,2.088 0,2.288 -0.685,3.955 -2.056,5.001 -1.371,1.047 -3.62,1.57 -6.75,1.57 z m 8.579,-18.355 v 4.855 h 1.975 c 0.862,0 1.445,-0.221 1.748,-0.664 0.302,-0.442 0.454,-1.052 0.454,-1.829 0,-0.755 -0.2,-1.338 -0.6,-1.748 -0.399,-0.41 -0.912,-0.615 -1.537,-0.615 h -2.04 z m 2.589,14.147 c 0.69,0 1.3,-0.243 1.829,-0.729 0.529,-0.485 0.793,-1.17 0.793,-2.056 0,-0.82 -0.227,-1.5 -0.68,-2.039 -0.453,-0.539 -1.133,-0.81 -2.04,-0.81 h -2.493 v 5.633 h 2.591 z"
           id="path71"
           inkscape:connector-curvature="0" /><rect
           x="200.207"
           y="358.38599"
           style="fill:#ffffff;stroke:#ffffff;stroke-width:0.5;stroke-miterlimit:10"
           width="9.3830004"
           height="18.201"
           id="rect73" /></g><g
         id="g81"><rect
           x="198.938"
           y="365.556"
           style="fill:#40b3ce;stroke:#40b3ce;stroke-miterlimit:10"
           width="10.721"
           height="3.3239999"
           id="rect77" /><rect
           x="198.91701"
           y="365.56299"
           transform="matrix(0.0022,1,-1,0.0022,571.0457,162.1292)"
           style="fill:#40b3ce;stroke:#40b3ce;stroke-miterlimit:10"
           width="10.721"
           height="3.3239999"
           id="rect79" /></g></g><g
       id="g97"><g
         id="g89"><path
           style="fill:#ffffff"
           d="m 255.669,363.81 v -5.804 h 3.884 V 338.36 h -3.884 v -5.76 h 16.653 c 3.722,0 6.476,0.663 8.262,1.987 1.786,1.324 2.679,3.208 2.679,5.648 0,0.953 -0.075,1.779 -0.224,2.478 -0.148,0.7 -0.387,1.325 -0.715,1.875 -0.328,0.551 -0.773,1.035 -1.339,1.451 -0.566,0.417 -1.914,0.789 -2.746,1.116 0.803,0.239 2.211,0.559 2.925,0.959 0.714,0.402 1.34,0.916 1.875,1.541 0.537,0.625 0.96,1.361 1.272,2.21 0.313,0.848 0.468,1.808 0.468,2.879 0,3.155 -0.944,5.455 -2.835,6.898 -1.89,1.444 -4.993,2.165 -9.309,2.165 h -16.966 z m 11.832,-25.316 v 6.697 h 2.724 c 1.189,0 1.994,-0.305 2.411,-0.915 0.416,-0.61 0.625,-1.451 0.625,-2.522 0,-1.042 -0.275,-1.845 -0.827,-2.411 -0.551,-0.565 -1.257,-0.849 -2.12,-0.849 z m 3.572,19.511 c 0.951,0 1.793,-0.334 2.521,-1.004 0.73,-0.669 1.095,-1.614 1.095,-2.835 0,-1.131 -0.312,-2.068 -0.938,-2.813 -0.625,-0.744 -1.562,-1.116 -2.812,-1.116 h -3.438 v 7.769 h 3.572 z"
           id="path85"
           inkscape:connector-curvature="0" /><rect
           x="264.11301"
           y="335.47101"
           style="fill:#ffffff;stroke:#ffffff;stroke-width:0.5;stroke-miterlimit:10"
           width="12.94"
           height="25.104"
           id="rect87" /></g><g
         id="g95"><rect
           x="262.36301"
           y="345.35999"
           style="fill:#40b3ce;stroke:#40b3ce;stroke-miterlimit:10"
           width="14.786"
           height="4.5840001"
           id="rect91" /><rect
           x="262.33301"
           y="345.36899"
           transform="matrix(0.0022,1,-1,0.0022,616.7823,77.1558)"
           style="fill:#40b3ce;stroke:#40b3ce;stroke-miterlimit:10"
           width="14.787"
           height="4.586"
           id="rect93" /></g></g><g
       id="g111"><g
         id="g103"><path
           style="fill:#ffffff"
           d="m 326.454,371.016 v -5.194 h 3.475 v -17.578 h -3.475 v -5.154 h 14.901 c 3.329,0 5.794,0.593 7.392,1.778 1.6,1.186 2.396,2.87 2.396,5.054 0,0.853 -0.066,1.592 -0.199,2.217 -0.133,0.626 -0.346,1.186 -0.64,1.678 -0.294,0.493 -0.691,0.926 -1.198,1.298 -0.506,0.373 -1.712,0.706 -2.457,0.999 0.719,0.214 1.979,0.5 2.617,0.858 0.639,0.36 1.199,0.82 1.678,1.378 0.48,0.56 0.858,1.219 1.139,1.978 0.279,0.759 0.418,1.618 0.418,2.577 0,2.823 -0.844,4.881 -2.536,6.172 -1.69,1.292 -4.468,1.938 -8.328,1.938 h -15.183 z m 10.588,-22.651 v 5.992 h 2.438 c 1.063,0 1.783,-0.272 2.157,-0.819 0.371,-0.545 0.56,-1.298 0.56,-2.257 0,-0.933 -0.248,-1.651 -0.742,-2.157 -0.492,-0.506 -1.123,-0.759 -1.896,-0.759 z m 3.195,17.457 c 0.851,0 1.604,-0.299 2.257,-0.898 0.653,-0.599 0.979,-1.444 0.979,-2.537 0,-1.012 -0.279,-1.851 -0.839,-2.517 -0.56,-0.666 -1.397,-0.999 -2.517,-0.999 h -3.076 v 6.951 z"
           id="path99"
           inkscape:connector-curvature="0" /><rect
           x="334.01099"
           y="345.659"
           style="fill:#ffffff;stroke:#ffffff;stroke-width:0.5;stroke-miterlimit:10"
           width="11.579"
           height="22.462"
           id="rect101" /></g><g
         id="g109"><rect
           x="332.444"
           y="354.508"
           style="fill:#40b3ce;stroke:#40b3ce;stroke-miterlimit:10"
           width="13.229"
           height="4.1020002"
           id="rect105" /><rect
           x="332.418"
           y="354.517"
           transform="matrix(0.0023,1,-1,0.0023,694.8243,16.7196)"
           style="fill:#40b3ce;stroke:#40b3ce;stroke-miterlimit:10"
           width="13.23"
           height="4.1030002"
           id="rect107" /></g></g><g
       id="g125"><g
         id="g117"><path
           style="fill:#40b3ce"
           d="m 388.894,370.906 v -7.366 h 4.93 v -24.933 h -4.93 v -7.312 h 21.138 c 4.724,0 8.218,0.841 10.483,2.521 2.268,1.682 3.399,4.072 3.399,7.17 0,1.21 -0.096,2.256 -0.282,3.145 -0.19,0.887 -0.491,1.68 -0.906,2.379 -0.416,0.699 -0.983,1.313 -1.7,1.842 -0.718,0.528 -2.428,1.001 -3.484,1.416 1.019,0.303 2.804,0.708 3.71,1.218 0.907,0.509 1.703,1.163 2.381,1.956 0.681,0.793 1.219,1.728 1.615,2.805 0.396,1.077 0.595,2.296 0.595,3.655 0,4.005 -1.199,6.924 -3.6,8.754 -2.398,1.832 -6.336,2.749 -11.814,2.749 h -21.535 z m 15.017,-32.13 v 8.5 h 3.458 c 1.508,0 2.529,-0.386 3.059,-1.161 0.528,-0.774 0.795,-1.843 0.795,-3.201 0,-1.322 -0.351,-2.342 -1.049,-3.061 -0.702,-0.717 -1.598,-1.077 -2.691,-1.077 z m 4.534,24.764 c 1.209,0 2.275,-0.426 3.201,-1.275 0.927,-0.85 1.389,-2.049 1.389,-3.599 0,-1.436 -0.397,-2.625 -1.191,-3.569 -0.793,-0.943 -1.982,-1.417 -3.567,-1.417 h -4.365 v 9.86 z"
           id="path113"
           inkscape:connector-curvature="0" /><rect
           x="399.61099"
           y="334.939"
           style="fill:#40b3ce;stroke:#40b3ce;stroke-width:0.5;stroke-miterlimit:10"
           width="16.424999"
           height="31.861"
           id="rect115" /></g><g
         id="g123"><rect
           x="397.38901"
           y="347.48901"
           style="fill:#ffffff;stroke:#ffffff;stroke-miterlimit:10"
           width="18.768"
           height="5.8189998"
           id="rect119" /><rect
           x="397.353"
           y="347.50101"
           transform="matrix(0.0023,1,-1,0.0023,756.1951,-57.1436)"
           style="fill:#ffffff;stroke:#ffffff;stroke-miterlimit:10"
           width="18.768"
           height="5.8210001"
           id="rect121" /></g></g></g></svg>