<?xml version="1.0" encoding="UTF-8" standalone="no"?>
<!-- Generator: Adobe Illustrator 16.0.0, SVG Export Plug-In . SVG Version: 6.00 Build 0)  -->

<svg
   xmlns:dc="http://purl.org/dc/elements/1.1/"
   xmlns:cc="http://creativecommons.org/ns#"
   xmlns:rdf="http://www.w3.org/1999/02/22-rdf-syntax-ns#"
   xmlns:svg="http://www.w3.org/2000/svg"
   xmlns="http://www.w3.org/2000/svg"
   xmlns:xlink="http://www.w3.org/1999/xlink"
   xmlns:sodipodi="http://sodipodi.sourceforge.net/DTD/sodipodi-0.dtd"
   xmlns:inkscape="http://www.inkscape.org/namespaces/inkscape"
   version="1.1"
   x="0px"
   y="0px"
   width="163.92796"
   height="159.19339"
   viewBox="0 0 163.92796 159.19339"
   xml:space="preserve"
   id="svg1016"
   sodipodi:docname="eyeSLASHicon03.svg"
   inkscape:version="0.92.2 (5c3e80d, 2017-08-06)"><metadata
     id="metadata1022"><rdf:RDF><cc:Work
         rdf:about=""><dc:format>image/svg+xml</dc:format><dc:type
           rdf:resource="http://purl.org/dc/dcmitype/StillImage" /><dc:title></dc:title></cc:Work></rdf:RDF></metadata><defs
     id="defs1020" /><sodipodi:namedview
     pagecolor="#ffffff"
     bordercolor="#666666"
     borderopacity="1"
     objecttolerance="10"
     gridtolerance="10"
     guidetolerance="10"
     inkscape:pageopacity="0"
     inkscape:pageshadow="2"
     inkscape:window-width="1600"
     inkscape:window-height="837"
     id="namedview1018"
     showgrid="false"
     fit-margin-top="0"
     fit-margin-left="0"
     fit-margin-right="0"
     fit-margin-bottom="0"
     inkscape:zoom="0.84281414"
     inkscape:cx="-226.60914"
     inkscape:cy="111.77465"
     inkscape:window-x="-8"
     inkscape:window-y="-8"
     inkscape:window-maximized="1"
     inkscape:current-layer="svg1016" /><g
     id="blue_eye"
     transform="translate(-213.21803,-219.06195)"><rect
       x="165.495"
       y="218.948"
       style="display:none;fill:none;stroke:#000000;stroke-miterlimit:10"
       width="270"
       height="160"
       id="rect878" /><g
       id="BALL"
       style="display:none"><circle
         style="fill:none;stroke:#000000;stroke-width:5;stroke-miterlimit:10"
         cx="326.74899"
         cy="423.16501"
         r="33"
         id="circle880" /><circle
         style="fill:none;stroke:#ffffff;stroke-width:5;stroke-miterlimit:10"
         cx="326.75"
         cy="423.164"
         r="33"
         id="circle882" /><path
         style="fill:none;stroke:#8cadaf;stroke-width:5;stroke-miterlimit:10"
         d="m 356.816,422.968 c 0,0 -0.446,-27.851 -29.491,-29.489 -16.309,-0.92 -30.082,13.863 -29.49,29.489 1.117,29.493 29.49,29.493 29.49,29.493"
         id="path884"
         inkscape:connector-curvature="0" /><circle
         style="opacity:0.5;fill:#d1d3d4"
         cx="312.85101"
         cy="429.45599"
         r="15"
         id="circle886" /><image
         sodipodi:absref="C:\Users\Scott\Downloads\visible.png"
         xlink:href="visible.png"
         id="image888"
         transform="matrix(0.7501,0,0,0.7501,201.9131,201.5205)"
         height="256"
         width="256"
         style="display:inline;overflow:visible" /></g><g
       style="display:none"
       id="g977"><g
         style="display:inline"
         id="g973"><defs
           id="defs892"><rect
             id="SVGID_1_"
             x="229.31599"
             y="247.23"
             width="151.028"
             height="107.556" /></defs><clipPath
           id="SVGID_2_"><use
             xlink:href="#SVGID_1_"
             style="overflow:visible"
             id="use894"
             x="0"
             y="0"
             width="100%"
             height="100%" /></clipPath><g
           clip-path="url(#SVGID_2_)"
           id="g971"><circle
             style="fill:#039597;stroke:#000000;stroke-width:3;stroke-miterlimit:10"
             cx="302.245"
             cy="289.064"
             r="57.659"
             id="circle897" /><path
             style="fill:none;stroke:#8cadaf;stroke-width:1.5;stroke-miterlimit:10"
             d="m 327.307,255.057 c 0,0 -31.486,-22.982 -57.265,8.833 -14.473,17.867 -9.312,46.078 8.636,58.578 33.875,23.599 57.268,-8.83 57.268,-8.83"
             id="path899"
             inkscape:connector-curvature="0" /><path
             style="fill:none;stroke:#8cadaf;stroke-width:1.5;stroke-miterlimit:10"
             d="m 335.37,326.465 c 0,0 34.477,-32.891 4.436,-71.127 -16.871,-21.471 -50.657,-21.543 -69.623,-2.666 -35.799,35.641 -4.444,71.136 -4.444,71.136"
             id="path901"
             inkscape:connector-curvature="0" /><path
             style="fill:#8cadaf;stroke:#000000;stroke-width:6;stroke-miterlimit:10"
             d="m 326.65,288.743 c 0,13.441 -10.645,24.331 -23.784,24.331 -13.137,0 -23.784,-10.89 -23.784,-24.331 0,-13.441 10.647,-24.332 23.784,-24.332 13.14,0 23.784,10.891 23.784,24.332 z"
             id="path903"
             inkscape:connector-curvature="0" /><g
             id="g927"><line
               style="fill:#ffffff;stroke:#000000;stroke-miterlimit:10"
               x1="308.33301"
               y1="261.77701"
               x2="275.14499"
               y2="288.85901"
               id="line905" /><line
               style="fill:#ffffff;stroke:#000000;stroke-miterlimit:10"
               x1="311.79999"
               y1="262.892"
               x2="280.78799"
               y2="288.198"
               id="line907" /><line
               style="fill:#ffffff;stroke:#000000;stroke-miterlimit:10"
               x1="311.51099"
               y1="267.15201"
               x2="278.32501"
               y2="294.23199"
               id="line909" /><line
               style="fill:#ffffff;stroke:#000000;stroke-miterlimit:10"
               x1="315.396"
               y1="267.33701"
               x2="282.20999"
               y2="294.41699"
               id="line911" /><line
               style="fill:#ffffff;stroke:#000000;stroke-miterlimit:10"
               x1="318.01999"
               y1="269.147"
               x2="284.83099"
               y2="296.228"
               id="line913" /><line
               style="fill:#ffffff;stroke:#000000;stroke-miterlimit:10"
               x1="323.45401"
               y1="274.40399"
               x2="285.51099"
               y2="305.36801"
               id="line915" /><line
               style="fill:#ffffff;stroke:#000000;stroke-miterlimit:10"
               x1="318.72"
               y1="272.64899"
               x2="285.53201"
               y2="299.73001"
               id="line917" /><line
               style="fill:#ffffff;stroke:#000000;stroke-miterlimit:10"
               x1="326.271"
               y1="277.13599"
               x2="288.142"
               y2="308.25"
               id="line919" /><line
               style="fill:#ffffff;stroke:#000000;stroke-miterlimit:10"
               x1="329.065"
               y1="279.96301"
               x2="295.87701"
               y2="307.047"
               id="line921" /><line
               style="fill:#ffffff;stroke:#000000;stroke-miterlimit:10"
               x1="328.57199"
               y1="286.19"
               x2="298.80301"
               y2="310.48199"
               id="line923" /><line
               style="fill:#ffffff;stroke:#000000;stroke-miterlimit:10"
               x1="328.401"
               y1="291.07901"
               x2="299.056"
               y2="315.02399"
               id="line925" /></g><ellipse
             style="opacity:0.5"
             cx="301.42499"
             cy="288.198"
             rx="25.052999"
             ry="25.629"
             id="ellipse929" /><path
             style="opacity:0.7;fill:#d1d3d4"
             d="m 333.766,298.337 c 0,12.212 -9.683,22.118 -21.622,22.118 -11.941,0 -21.622,-9.906 -21.622,-22.118 0,-12.216 9.681,-22.12 21.622,-22.12 11.939,0 21.622,9.904 21.622,22.12 z"
             id="path931"
             inkscape:connector-curvature="0" /><path
             style="fill:none;stroke:#000000;stroke-width:6;stroke-miterlimit:10"
             d="m 349.079,289.059 c 0,0 -0.71,-45.246 -46.834,-47.908 -25.898,-1.493 -47.773,22.522 -46.832,47.908 1.772,47.911 46.832,47.911 46.832,47.911"
             id="path933"
             inkscape:connector-curvature="0" /><g
             id="g957"><line
               style="fill:#ffffff;stroke:#000000;stroke-miterlimit:10"
               x1="308.33301"
               y1="261.77701"
               x2="275.14499"
               y2="288.85901"
               id="line935" /><line
               style="fill:#ffffff;stroke:#000000;stroke-miterlimit:10"
               x1="311.79999"
               y1="262.892"
               x2="280.78799"
               y2="288.198"
               id="line937" /><line
               style="fill:#ffffff;stroke:#000000;stroke-miterlimit:10"
               x1="311.51099"
               y1="267.15201"
               x2="278.32501"
               y2="294.23199"
               id="line939" /><line
               style="fill:#ffffff;stroke:#000000;stroke-miterlimit:10"
               x1="315.396"
               y1="267.33701"
               x2="282.20999"
               y2="294.41699"
               id="line941" /><line
               style="fill:#ffffff;stroke:#000000;stroke-miterlimit:10"
               x1="318.01999"
               y1="269.147"
               x2="284.83099"
               y2="296.228"
               id="line943" /><line
               style="fill:#ffffff;stroke:#000000;stroke-miterlimit:10"
               x1="323.45401"
               y1="274.40399"
               x2="285.51099"
               y2="305.36801"
               id="line945" /><line
               style="fill:#ffffff;stroke:#000000;stroke-miterlimit:10"
               x1="318.72"
               y1="272.64899"
               x2="285.53201"
               y2="299.73001"
               id="line947" /><line
               style="fill:#ffffff;stroke:#000000;stroke-miterlimit:10"
               x1="326.271"
               y1="277.13599"
               x2="288.142"
               y2="308.25"
               id="line949" /><line
               style="fill:#ffffff;stroke:#000000;stroke-miterlimit:10"
               x1="329.065"
               y1="279.96301"
               x2="295.87701"
               y2="307.047"
               id="line951" /><line
               style="fill:#ffffff;stroke:#000000;stroke-miterlimit:10"
               x1="328.57199"
               y1="286.19"
               x2="298.80301"
               y2="310.48199"
               id="line953" /><line
               style="fill:#ffffff;stroke:#000000;stroke-miterlimit:10"
               x1="328.401"
               y1="291.07901"
               x2="299.056"
               y2="315.02399"
               id="line955" /></g><ellipse
             style="fill:none;stroke:#000000;stroke-width:3;stroke-miterlimit:10"
             cx="302.866"
             cy="288.198"
             rx="32.613998"
             ry="33.362"
             id="ellipse959" /><path
             style="fill:none;stroke:#8cadaf;stroke-width:3;stroke-miterlimit:10"
             d="m 286.029,259.624 c 27.702,-14.307 49.452,7.528 49.868,28.574"
             id="path961"
             inkscape:connector-curvature="0" /><path
             style="fill:none;stroke:#000000;stroke-width:6;stroke-miterlimit:10"
             d="m 326.65,288.743 c 0,13.441 -10.645,24.331 -23.784,24.331 -13.137,0 -23.784,-10.89 -23.784,-24.331 0,-13.441 10.647,-24.332 23.784,-24.332 13.14,0 23.784,10.891 23.784,24.332 z"
             id="path963"
             inkscape:connector-curvature="0" /><path
             style="fill:none;stroke:#000000;stroke-width:1.5;stroke-miterlimit:10"
             d="m 284.545,258.434 c 28.786,-14.868 51.389,7.822 51.822,29.694"
             id="path965"
             inkscape:connector-curvature="0" /><path
             style="fill:none;stroke:#8cadaf;stroke-width:2;stroke-miterlimit:10"
             d="m 280.311,263.008 c 2.837,-4.406 10.452,-8.986 15.663,-8.043"
             id="path967"
             inkscape:connector-curvature="0" /><path
             style="fill:#ffffff;stroke:#000000;stroke-width:5;stroke-miterlimit:10"
             d="m 303.239,272.712 c 0,6.921 -5.486,12.533 -12.252,12.533 -6.764,0 -12.252,-5.612 -12.252,-12.533 0,-6.922 5.488,-12.536 12.252,-12.536 6.765,0 12.252,5.614 12.252,12.536 z"
             id="path969"
             inkscape:connector-curvature="0" /></g></g><path
         style="display:inline;fill:none;stroke:#21566b;stroke-width:7;stroke-linecap:round;stroke-miterlimit:10"
         d="m 196.75,297.833 c 0,0 39.208,-55.867 104.058,-54.092 64.852,1.775 103.442,54.092 103.442,54.092 0,0 -40.357,56.623 -103.442,56.952 -63.084,0.329 -102.367,-55.522 -102.367,-55.522"
         id="path975"
         inkscape:connector-curvature="0" /></g><g
       id="slash"
       style="display:none"><line
         style="display:inline;fill:none;stroke:#da1c5c;stroke-width:16;stroke-linecap:round;stroke-miterlimit:10"
         x1="361.56699"
         y1="226.567"
         x2="217.422"
         y2="370.909"
         id="line979" /></g><g
       id="Layer_6"><path
         style="clip-rule:evenodd;fill:#ffffff;fill-rule:evenodd"
         d="m 336.25,259 c 0,0 -69.204,82.906 -68.899,82.554 0.305,-0.352 15.149,5.495 23.655,5.347 13.243,-0.229 27.422,-0.936 48.833,-13.668 21.411,-12.732 37.307,-35.034 37.307,-35.034 0,0 -8.744,-12.494 -19.451,-21.387 C 346.988,267.919 336.25,259 336.25,259 Z"
         id="path982"
         inkscape:connector-curvature="0" /></g><g
       id="g993"><path
         style="clip-rule:evenodd;fill:#2e9bb0;fill-rule:evenodd;stroke:#2e9bb0;stroke-miterlimit:10"
         d="m 357.166,220.765 c 3.015,2.629 5.59,4.882 8.471,7.397 -43.051,49.667 -85.947,99.158 -129.109,148.952 -2.956,-2.539 -5.624,-4.83 -8.533,-7.328 9.509,-10.976 18.814,-21.717 28.445,-32.833 -16.974,-9.723 -30.27,-23.169 -42.58,-38.513 22.143,-27.393 47.835,-48.366 85.276,-48.127 7.795,0.049 15.641,2.542 23.328,4.449 2.946,0.731 4.638,0.755 6.744,-1.741 9.071,-10.75 18.401,-21.279 27.958,-32.256 z m -82.801,95.48 c -5.474,-9.25 -6.934,-15.51 -5.467,-22.695 3.513,-17.225 21.223,-26.619 37.591,-20.069 1.416,0.566 3.843,0.773 4.769,-0.035 2.627,-2.291 4.721,-5.196 7.119,-7.969 -28.528,-12.259 -65.008,3.246 -89.846,33.262 10.103,11.708 21.301,22.109 35.331,29.479 3.627,-4.135 7.014,-7.996 10.503,-11.973 z m 27.952,-32.478 c -9.091,-2.722 -16.537,-0.121 -20.432,6.482 -3.241,5.496 -2.875,12.333 1.015,16.231 6.338,-7.413 12.662,-14.811 19.417,-22.713 z"
         id="path985"
         inkscape:connector-curvature="0" /><path
         style="clip-rule:evenodd;fill:#2e9bb0;fill-rule:evenodd"
         d="m 345.759,267.207 c 12.384,8.814 22.513,19.308 31.387,30.992 -23.164,32.889 -64.085,56.41 -98.281,46.603 2.835,-3.881 8.303,-9.718 8.303,-9.718 0.396,-0.521 4.592,0.33 6.64,0.506 13.264,1.14 25.536,-3.557 37.011,-10.103 12.217,-6.97 22.665,-16.032 32.365,-27.385 -8.039,-7.65 -15.925,-15.156 -24.158,-22.991 1.991,-2.339 4.272,-5.016 6.733,-7.904 z"
         id="path987"
         inkscape:connector-curvature="0" /><path
         style="clip-rule:evenodd;fill:#ffffff;fill-rule:evenodd"
         d="m 274.365,316.245 c -3.489,3.977 -6.876,7.837 -10.503,11.974 -14.03,-7.37 -25.229,-17.772 -35.331,-29.479 24.838,-30.017 61.317,-45.521 89.846,-33.262 -2.398,2.773 -4.492,5.678 -7.119,7.969 -0.926,0.808 -3.354,0.601 -4.769,0.035 -16.368,-6.549 -34.078,2.845 -37.591,20.069 -1.466,7.184 -0.006,13.445 5.467,22.694 z"
         id="path989"
         inkscape:connector-curvature="0" /><path
         style="clip-rule:evenodd;fill:#ffffff;fill-rule:evenodd"
         d="m 302.317,283.767 c -6.755,7.902 -13.08,15.3 -19.417,22.713 -3.891,-3.897 -4.256,-10.735 -1.015,-16.231 3.896,-6.603 11.342,-9.204 20.432,-6.482 z"
         id="path991"
         inkscape:connector-curvature="0" /></g><g
       id="g1007"><defs
         id="defs996"><path
           id="SVGID_3_"
           d="m 319.472,281.761 -32.066,38.296 c -13.079,0 -19.293,-6.935 -19.293,-22.027 0,-15.092 12.239,-27.331 27.331,-27.331 15.089,10e-4 24.028,11.062 24.028,11.062 z"
           inkscape:connector-curvature="0" /></defs><clipPath
         id="SVGID_4_"><use
           xlink:href="#SVGID_3_"
           style="overflow:visible"
           id="use998"
           x="0"
           y="0"
           width="100%"
           height="100%" /></clipPath><g
         clip-path="url(#SVGID_4_)"
         id="g1005"><circle
           style="clip-rule:evenodd;fill:#3fb3cd;fill-rule:evenodd"
           cx="295.44199"
           cy="298.03"
           r="27.330999"
           id="circle1001" /><circle
           style="clip-rule:evenodd;fill:#21566b;fill-rule:evenodd"
           cx="295.44199"
           cy="298.03"
           r="17.532"
           id="circle1003" /></g></g><rect
       x="302.689"
       y="244.69501"
       transform="matrix(0.7551,0.6556,-0.6556,0.7551,273.1329,-127.5993)"
       style="clip-rule:evenodd;display:none;fill:#ffffff;fill-rule:evenodd"
       width="9.3249998"
       height="114.159"
       id="rect1009" /><rect
       x="290.491"
       y="199.021"
       transform="matrix(0.7551,0.6556,-0.6556,0.7551,268.5826,-121.6647)"
       style="clip-rule:evenodd;fill:#ed1c24;fill-rule:evenodd"
       width="13.294"
       height="199.282"
       id="rect1011" /><circle
       style="clip-rule:evenodd;fill:#ffffff;fill-rule:evenodd"
       cx="286.53101"
       cy="284.75"
       r="5.302"
       id="circle1013" /></g></svg>