<?xml version="1.0" encoding="UTF-8" standalone="no"?>
<!-- Generator: Adobe Illustrator 16.0.0, SVG Export Plug-In . SVG Version: 6.00 Build 0)  -->

<svg
   xmlns:dc="http://purl.org/dc/elements/1.1/"
   xmlns:cc="http://creativecommons.org/ns#"
   xmlns:rdf="http://www.w3.org/1999/02/22-rdf-syntax-ns#"
   xmlns:svg="http://www.w3.org/2000/svg"
   xmlns="http://www.w3.org/2000/svg"
   xmlns:sodipodi="http://sodipodi.sourceforge.net/DTD/sodipodi-0.dtd"
   xmlns:inkscape="http://www.inkscape.org/namespaces/inkscape"
   version="1.1"
   x="0px"
   y="0px"
   width="184.9646"
   height="156.71718"
   viewBox="0 0 184.9646 156.71718"
   xml:space="preserve"
   id="svg39"
   sodipodi:docname="versatile_Icon.svg"
   inkscape:version="0.92.2 (5c3e80d, 2017-08-06)"><metadata
     id="metadata45"><rdf:RDF><cc:Work
         rdf:about=""><dc:format>image/svg+xml</dc:format><dc:type
           rdf:resource="http://purl.org/dc/dcmitype/StillImage" /><dc:title></dc:title></cc:Work></rdf:RDF></metadata><defs
     id="defs43" /><sodipodi:namedview
     pagecolor="#ffffff"
     bordercolor="#666666"
     borderopacity="1"
     objecttolerance="10"
     gridtolerance="10"
     guidetolerance="10"
     inkscape:pageopacity="0"
     inkscape:pageshadow="2"
     inkscape:window-width="1600"
     inkscape:window-height="837"
     id="namedview41"
     showgrid="false"
     fit-margin-top="0"
     fit-margin-left="0"
     fit-margin-right="0"
     fit-margin-bottom="0"
     inkscape:zoom="0.2979798"
     inkscape:cx="91.48225"
     inkscape:cy="-22.670241"
     inkscape:window-x="-8"
     inkscape:window-y="-8"
     inkscape:window-maximized="1"
     inkscape:current-layer="svg39" /><g
     id="Layer_2"
     transform="translate(-214.51775,-216.61258)"><g
       id="g17"><path
         style="fill:#2f9bb0;stroke:#20566b;stroke-width:2;stroke-miterlimit:10"
         d="m 234.212,321.796 c -4.514,-0.596 -7.678,-1.649 -11.403,-5.284 -4.4,-4.292 -7.251,-11.125 -7.283,-18.162 l -0.008,-1.959 c -0.024,-5.287 1.718,-13.482 7.258,-19.507 2.106,-2.291 6.44,-4.068 11.216,-4.103 0,0 7.938,-0.042 11.907,-0.06 9.869,-0.043 19.739,-0.098 29.608,-0.121 12.521,-0.03 25.046,-0.071 37.567,-0.164 11.862,-0.087 23.726,-0.142 35.588,-0.202 9.434,-0.048 18.923,-0.338 28.346,0.111 6.218,0.296 10.165,1.362 14.743,5.66 4.7,4.419 6.694,11.36 6.723,17.567 0,10e-4 0.008,1.962 0.008,1.962 0.036,7.963 -2.741,15.005 -7.205,19.149 -3.447,3.202 -7.769,4.446 -14.263,4.397 z"
         id="path7"
         inkscape:connector-curvature="0" /><path
         style="fill:#40b3ce;stroke:#2f9bb0;stroke-miterlimit:10"
         d="m 242.496,324.652 c -1.205,-0.891 33.254,-0.252 33.254,-0.252 0,0 -12.526,20.668 -16.481,21.396 -4.418,0.815 -7.624,0.059 -7.624,0.059 l 0.083,-2.098 c 0,0 5.604,1.519 5.658,-4.574 0.054,-6.092 -5.028,-7.717 -6.249,-7.506 -1.513,0.263 -12.112,9.379 -12.197,11.478 -0.084,2.097 8.562,9.622 8.562,9.622 0,0 -7.683,1.057 -12.877,0.797 -5.194,-0.26 -9.792,-0.625 -10.975,-5.11 -1.183,-4.486 9.918,-15.655 9.918,-15.655 z"
         id="path9"
         inkscape:connector-curvature="0" /><path
         style="fill:#40b3ce;stroke:#2f9bb0;stroke-miterlimit:10"
         d="m 241.086,270.533 c -0.601,-0.196 46.337,-0.352 46.337,-0.352 0,0 12.325,-7.684 23.405,-21.55 11.08,-13.865 12.348,-31.053 12.348,-31.053 0,0 -12.817,8.284 -19.884,11.736 -7.067,3.453 -18.325,6.931 -18.325,6.931 z"
         id="path11"
         inkscape:connector-curvature="0" /><path
         style="fill:#40b3ce;stroke:#2f9bb0;stroke-miterlimit:10"
         d="m 329.774,323.591 29.958,-0.228 -48.38,47.105 c 0,0 -7.944,5.258 -13.181,0.101 -6.238,-6.145 -2.104,-14.166 -2.104,-14.166 0,0 2.803,0.978 4.385,-1.232 1.581,-2.208 0.956,-5.599 0.956,-5.599 0,0 4.192,0.167 5.98,-1.244 1.79,-1.413 1.155,-5.801 1.155,-5.801 0,0 3.399,0.173 5.587,-1.042 2.188,-1.215 0.755,-5.798 0.755,-5.798 0,0 4.795,0.165 7.177,-1.852 2.381,-2.015 0.954,-5.8 0.954,-5.8 0,0 2.606,1.179 4.79,-0.435 2.186,-1.615 1.968,-4.009 1.968,-4.009 z"
         id="path13"
         inkscape:connector-curvature="0" /><path
         style="fill:#40b3ce;stroke:#2f9bb0;stroke-miterlimit:10"
         d="m 307.995,270.026 c 0,0 4.87,-6.852 6.764,-6.867 1.892,-0.014 2.188,5.703 5.324,3.368 3.138,-2.336 5.604,-10.012 8.249,-10.663 2.645,-0.651 5.985,7.147 12.289,5.721 3.936,-0.891 -0.068,-8.465 4.724,-8.879 4.792,-0.415 7.643,9.28 11.043,8.435 3.402,-0.846 5.468,-11.278 8.647,-11.767 5.014,-0.767 6.053,8.059 9.498,8.033 3.66,-0.028 8.604,-12.179 11.644,-12.205 4.921,-0.039 5.029,13.971 5.029,13.971 0,0 -0.024,-3.154 -4.189,-3.123 -4.163,0.032 -6.007,6.607 -10.789,8.411 -3.73,1.405 -6.599,-4.745 -10.755,-3.579 -4.156,1.168 -2.605,5.952 -9.074,6.279 -5.329,0.27 -7.032,-4.085 -9.001,-3.088 -2.15,1.091 -4.488,5.689 -4.488,5.689 l -7.278,0.055 c 0,0 -3.614,-2.351 -5.185,-2.232 -1.573,0.118 0.017,2.271 0.017,2.271 z"
         id="path15"
         inkscape:connector-curvature="0" /></g><g
       id="g31"><g
         id="g23"><path
           style="fill:#ffffff"
           d="m 291.107,313.79 v -6.734 h 4.506 v -22.794 h -4.506 v -6.683 h 19.323 c 4.317,0 7.511,0.769 9.584,2.306 2.072,1.537 3.108,3.722 3.108,6.553 0,1.106 -0.088,2.064 -0.26,2.875 -0.172,0.812 -0.449,1.538 -0.828,2.176 -0.381,0.639 -0.898,1.2 -1.555,1.683 -0.656,0.484 -2.22,0.916 -3.186,1.295 0.932,0.277 2.564,0.648 3.393,1.114 0.828,0.466 1.555,1.062 2.176,1.788 0.622,0.725 1.113,1.58 1.477,2.564 0.363,0.984 0.544,2.098 0.544,3.341 0,3.661 -1.097,6.329 -3.29,8.003 -2.193,1.675 -5.793,2.513 -10.801,2.513 z m 13.728,-29.373 v 7.771 h 3.161 c 1.38,0 2.312,-0.354 2.797,-1.062 0.483,-0.708 0.726,-1.683 0.726,-2.927 0,-1.208 -0.319,-2.141 -0.959,-2.797 -0.64,-0.656 -1.459,-0.985 -2.46,-0.985 z m 4.145,22.639 c 1.104,0 2.08,-0.389 2.927,-1.166 0.847,-0.777 1.269,-1.873 1.269,-3.29 0,-1.312 -0.362,-2.4 -1.088,-3.264 -0.725,-0.863 -1.812,-1.294 -3.264,-1.294 h -3.989 v 9.014 z"
           id="path19"
           inkscape:connector-curvature="0" /><rect
           x="300.90399"
           y="280.91"
           style="fill:#ffffff;stroke:#ffffff;stroke-width:0.5;stroke-miterlimit:10"
           width="15.016"
           height="29.125999"
           id="rect21" /></g><g
         id="g29"><rect
           x="298.87399"
           y="292.383"
           style="fill:#40b3ce;stroke:#40b3ce;stroke-miterlimit:10"
           width="17.157"
           height="5.3200002"
           id="rect25" /><rect
           x="298.83899"
           y="292.39499"
           transform="matrix(0.0022,1,-1,0.0022,601.7895,-13.017)"
           style="fill:#40b3ce;stroke:#40b3ce;stroke-miterlimit:10"
           width="17.157"
           height="5.3200002"
           id="rect27" /></g></g></g></svg>