<?xml version="1.0" encoding="iso-8859-1"?>
<!-- Generator: Adobe Illustrator 19.0.0, SVG Export Plug-In . SVG Version: 6.00 Build 0)  -->
<svg version="1.1" id="Capa_1" xmlns="http://www.w3.org/2000/svg" xmlns:xlink="http://www.w3.org/1999/xlink" x="0px" y="0px"
	 viewBox="0 0 468.293 468.293" style="enable-background:new 0 0 468.293 468.293;" xml:space="preserve">
<g>
	<path style="fill:#3A556A;" d="M234.146,408.263c-2.769,0-5.009-2.243-5.009-5.009V68.632c0-2.766,2.24-5.009,5.009-5.009
		s5.009,2.243,5.009,5.009v334.622C239.155,406.02,236.915,408.263,234.146,408.263z"/>
	<path style="fill:#3A556A;" d="M324.31,190.52c-1.678,0-3.311-0.839-4.26-2.367c-1.458-2.35-0.734-5.439,1.614-6.897l69.982-43.416
		c2.358-1.467,5.439-0.736,6.897,1.614c1.458,2.35,0.734,5.439-1.614,6.897l-69.982,43.417
		C326.125,190.278,325.21,190.52,324.31,190.52z"/>
	<path style="fill:#3A556A;" d="M143.982,190.52c-0.9,0-1.815-0.242-2.636-0.753L71.364,146.35
		c-2.348-1.458-3.072-4.547-1.614-6.897c1.458-2.35,4.544-3.082,6.897-1.614l69.982,43.416c2.348,1.458,3.072,4.547,1.614,6.897
		C147.293,189.681,145.66,190.52,143.982,190.52z"/>
	<path style="fill:#3A556A;" d="M394.282,334.803c-0.9,0-1.815-0.242-2.637-0.753l-69.982-43.419
		c-2.348-1.458-3.072-4.547-1.614-6.897c1.463-2.348,4.539-3.074,6.897-1.614l69.982,43.419c2.348,1.458,3.072,4.547,1.614,6.897
		C397.594,333.964,395.96,334.803,394.282,334.803z"/>
	<path style="fill:#3A556A;" d="M74.01,334.803c-1.678,0-3.312-0.839-4.26-2.367c-1.458-2.35-0.734-5.439,1.614-6.897l69.982-43.419
		c2.353-1.46,5.439-0.734,6.897,1.614c1.458,2.35,0.734,5.439-1.614,6.897L76.646,334.05
		C75.825,334.561,74.91,334.803,74.01,334.803z"/>
</g>
<polygon style="fill:#44C4A1;" points="234.147,165.938 143.987,185.512 234.147,205.087 324.306,185.512 "/>
<polyline style="fill:#27A2DB;" points="143.987,286.375 143.987,185.512 234.146,205.087 234.146,305.949 "/>
<polyline style="fill:#2D93BA;" points="324.306,286.375 324.306,185.512 234.146,205.087 234.146,305.949 "/>
<path style="fill:#44C4A1;" d="M269.051,77.236h-69.809c-3.448,0-6.244-2.795-6.244-6.244V21.041c0-3.448,2.795-6.244,6.244-6.244
	h69.809c3.448,0,6.244,2.795,6.244,6.244v49.951C275.294,74.441,272.499,77.236,269.051,77.236z"/>
<path style="fill:#F6C358;" d="M76.053,148.801H6.244c-3.448,0-6.244-2.795-6.244-6.244V92.606c0-3.448,2.795-6.244,6.244-6.244
	h69.809c3.448,0,6.244,2.795,6.244,6.244v49.951C82.297,146.006,79.501,148.801,76.053,148.801z"/>
<g>
	<path style="fill:#E56353;" d="M462.049,148.801H392.24c-3.448,0-6.244-2.795-6.244-6.244V92.606c0-3.448,2.796-6.244,6.244-6.244
		h69.809c3.448,0,6.244,2.795,6.244,6.244v49.951C468.293,146.006,465.497,148.801,462.049,148.801z"/>
	<path style="fill:#E56353;" d="M76.053,385.525H6.244c-3.448,0-6.244-2.796-6.244-6.244V329.33c0-3.448,2.795-6.244,6.244-6.244
		h69.809c3.448,0,6.244,2.795,6.244,6.244v49.951C82.297,382.73,79.501,385.525,76.053,385.525z"/>
</g>
<path style="fill:#F6C358;" d="M462.049,385.525H392.24c-3.448,0-6.244-2.796-6.244-6.244V329.33c0-3.448,2.796-6.244,6.244-6.244
	h69.809c3.448,0,6.244,2.795,6.244,6.244v49.951C468.293,382.73,465.497,385.525,462.049,385.525z"/>
<path style="fill:#44C4A1;" d="M269.051,453.496h-69.809c-3.448,0-6.244-2.796-6.244-6.244V404.49c0-3.448,2.795-6.244,6.244-6.244
	h69.809c3.448,0,6.244,2.795,6.244,6.244v42.761C275.294,450.7,272.499,453.496,269.051,453.496z"/>
<g>
</g>
<g>
</g>
<g>
</g>
<g>
</g>
<g>
</g>
<g>
</g>
<g>
</g>
<g>
</g>
<g>
</g>
<g>
</g>
<g>
</g>
<g>
</g>
<g>
</g>
<g>
</g>
<g>
</g>
</svg>
