<?xml version="1.0" encoding="iso-8859-1"?>
<!-- Generator: Adobe Illustrator 19.0.0, SVG Export Plug-In . SVG Version: 6.00 Build 0)  -->
<svg version="1.1" id="Capa_1" xmlns="http://www.w3.org/2000/svg" xmlns:xlink="http://www.w3.org/1999/xlink" x="0px" y="0px"
	 viewBox="0 0 511.999 511.999" style="enable-background:new 0 0 511.999 511.999;" xml:space="preserve">
<g>
	<g>
		<g>
			<path d="M373.378,162.671l-21.738-7.911c-4.123-1.502-8.671,0.625-10.169,4.741c-1.499,4.118,0.625,8.67,4.741,10.169
				l21.738,7.911c0.897,0.327,1.812,0.48,2.712,0.48c3.241,0,6.283-2.001,7.456-5.221
				C379.619,168.722,377.495,164.17,373.378,162.671z"/>
			<path d="M329.13,14.092c-99.397-36.18-211.065-0.951-271.554,85.666c-9.735,13.939-12.379,31.234-7.254,47.452
				c5.128,16.231,17.241,28.877,33.233,34.698l12.337,4.49c-7.281,23.034-4.754,48.058,7.12,69.232
				c4.783,8.529,5.609,18.692,2.264,27.884c-3.346,9.192-10.511,16.447-19.659,19.906c-23.885,9.033-42.594,27.977-51.329,51.974
				c-8.734,23.999-6.578,50.536,5.913,72.807c3.161,5.639,8.247,9.963,14.319,12.174c3.003,1.093,6.134,1.634,9.255,1.634
				c4.576,0,9.129-1.165,13.214-3.456c6.296-3.531,10.84-9.302,12.796-16.251c1.955-6.949,1.086-14.243-2.446-20.539
				c-4.782-8.53-5.608-18.692-2.263-27.883c3.345-9.192,10.511-16.447,19.659-19.906c23.885-9.033,42.594-27.977,51.328-51.975
				c8.735-23.998,6.581-50.535-5.913-72.809c-4.164-7.423-5.325-16.083-3.351-24.264l64.682,23.542
				c-17.188,10.248-30.487,26.135-37.444,45.248c-8.734,23.997-6.58,50.534,5.912,72.81c4.783,8.53,5.609,18.692,2.265,27.883
				c-3.345,9.191-10.51,16.446-19.659,19.905c-13.937,5.271-20.988,20.899-15.717,34.838c2.787,7.369,8.634,13.142,16.042,15.838
				c2.981,1.084,6.107,1.627,9.234,1.627c3.241,0,6.482-0.583,9.56-1.746c23.887-9.034,42.596-27.977,51.33-51.974
				c8.735-23.998,6.58-50.535-5.913-72.81c-4.784-8.529-5.608-18.692-2.264-27.881c3.346-9.192,10.511-16.449,19.657-19.906
				c11.769-4.45,22.509-11.456,31.35-20.408l51.653,18.8c-3.747,7.535-10.203,13.421-18.164,16.432
				c-23.886,9.033-42.595,27.977-51.331,51.975c-8.734,23.999-6.58,50.535,5.914,72.808c4.783,8.529,5.609,18.693,2.264,27.886
				c-3.344,9.19-10.509,16.445-19.658,19.904c-13.937,5.27-20.989,20.898-15.718,34.839c2.788,7.369,8.636,13.141,16.043,15.837
				c2.98,1.084,6.106,1.627,9.231,1.627c3.241,0,6.482-0.583,9.56-1.746c23.886-9.033,42.596-27.977,51.331-51.975
				c8.734-23.997,6.58-50.534-5.913-72.809c-4.783-8.529-5.609-18.693-2.265-27.884c3.345-9.191,10.509-16.446,19.658-19.905
				c22.707-8.587,40.716-26.139,49.943-48.463l31,11.284c6.101,2.22,12.406,3.317,18.671,3.317c10.158,0,20.206-2.884,29.088-8.534
				c14.35-9.13,23.443-24.08,24.946-41.014C491.423,149.034,428.525,50.27,329.13,14.092z M234.358,16.386
				c-4.195,11.094-12.395,19.952-23.166,24.974c-10.946,5.104-23.222,5.638-34.568,1.509c-5.462-1.988-10.415-4.971-14.668-8.778
				C184.833,24.124,209.338,18.105,234.358,16.386z M91.4,167.878l-2.419-0.881c-11.323-4.121-19.9-13.075-23.531-24.568
				c-3.627-11.48-1.756-23.722,5.133-33.587c4.916-7.039,10.202-13.705,15.804-20.003c9.575,4.484,17.209,12.1,21.732,21.799
				c5.103,10.944,5.639,23.221,1.508,34.568C106.204,154.612,99.79,162.548,91.4,167.878z M141.152,296.572
				c-7.153,19.652-22.472,35.164-42.03,42.561c-13.475,5.094-24.03,15.781-28.957,29.32c-4.927,13.538-3.713,28.508,3.333,41.072
				c1.459,2.599,1.817,5.612,1.01,8.48c-0.808,2.869-2.683,5.251-5.283,6.71c-2.838,1.59-6.219,1.866-9.28,0.75
				c-2.505-0.911-4.602-2.695-5.908-5.023c-10.229-18.237-11.994-39.969-4.842-59.62c7.153-19.651,22.473-35.163,42.031-42.56
				c13.474-5.094,24.029-15.781,28.957-29.32c4.927-13.54,3.712-28.51-3.334-41.072c-9.611-17.14-11.746-37.359-6.037-56.04
				l21.024,7.652c-3.513,12.552-1.955,26.01,4.474,37.47C146.541,255.191,148.305,276.922,141.152,296.572z M238.872,257.458
				c-13.474,5.094-24.028,15.781-28.956,29.321c-4.927,13.537-3.712,28.506,3.335,41.071c10.229,18.239,11.993,39.97,4.84,59.621
				c-7.152,19.651-22.471,35.162-42.032,42.558c-2.497,0.946-5.252,0.964-7.754,0.052c-3.062-1.115-5.478-3.499-6.628-6.54
				c-2.177-5.754,0.735-12.208,6.489-14.384c13.475-5.094,24.03-15.781,28.957-29.319c4.927-13.538,3.712-28.508-3.335-41.071
				c-10.229-18.241-11.993-39.972-4.841-59.622c7.152-19.65,22.472-35.162,42.03-42.559c0.436-0.165,0.879-0.357,1.32-0.539
				l26.723,9.726C252.995,250.724,246.177,254.696,238.872,257.458z M322.826,322.838c-13.474,5.095-24.029,15.782-28.956,29.319
				c-4.927,13.539-3.712,28.509,3.335,41.073c10.23,18.24,11.994,39.97,4.842,59.62c-7.153,19.652-22.473,35.163-42.033,42.561
				c-2.495,0.943-5.25,0.962-7.754,0.051c-3.061-1.114-5.477-3.499-6.628-6.54c-2.177-5.754,0.735-12.208,6.49-14.384
				c13.475-5.095,24.03-15.782,28.956-29.319c4.927-13.54,3.712-28.511-3.335-41.074c-10.229-18.238-11.994-39.968-4.842-59.619
				c7.153-19.652,22.473-35.163,42.033-42.561c12.289-4.648,22.135-13.956,27.513-25.828l21.024,7.652
				C355.839,301.771,341.207,315.888,322.826,322.838z M448.625,281.895c-10.168,6.467-22.494,7.817-33.816,3.694L108.945,174.263
				c6.923-6.494,12.291-14.554,15.594-23.63c5.58-15.33,4.856-31.915-2.039-46.701c-5.354-11.48-13.94-20.794-24.682-27.001
				c14.735-14.219,31.257-26.129,48.994-35.541c6.64,7.35,14.961,12.958,24.386,16.391c6.818,2.482,13.88,3.716,20.925,3.716
				c8.797,0,17.566-1.926,25.775-5.754c14.786-6.895,26.001-19.135,31.58-34.463c0.643-1.767,1.193-3.57,1.672-5.393
				c24.271,0.207,48.788,4.468,72.552,13.118c56.24,20.469,99.94,62.435,123.66,114.195c-14.938,6.717-26.757,19.229-32.425,34.799
				c-5.579,15.33-4.855,31.916,2.039,46.701s19.135,26.001,34.464,31.58c4.449,1.62,9.02,2.697,13.663,3.25
				C462.637,268.724,456.853,276.66,448.625,281.895z M466.898,243.763c-3.407-0.411-6.763-1.205-10.03-2.395
				c-23.426-8.526-35.546-34.519-27.02-57.943c4.141-11.379,12.725-20.552,23.591-25.57
				C463.482,184.781,468.292,213.913,466.898,243.763z"/>
			<path d="M319.357,120.321c-4.117-1.498-8.67,0.625-10.169,4.741c-0.515,1.416-1.551,2.546-2.916,3.183
				c-1.365,0.637-2.895,0.704-4.312,0.188c-2.923-1.063-4.434-4.305-3.371-7.227c0.327-0.897,0.48-1.814,0.48-2.715
				c-0.001-3.24-2.001-6.281-5.221-7.453c-4.119-1.497-8.671,0.625-10.169,4.741c-1.063,2.924-4.307,4.435-7.227,3.371
				c-2.923-1.063-4.434-4.305-3.371-7.228c1.499-4.118-0.624-8.67-4.741-10.169c-4.119-1.497-8.671,0.625-10.169,4.741
				c-1.964,5.399-1.709,11.238,0.718,16.446c2.428,5.206,6.738,9.155,12.137,11.121c4.828,1.756,9.885,1.669,14.396,0.102
				c2.526,4.248,6.405,7.469,11.111,9.183c2.401,0.874,4.888,1.307,7.369,1.307c3.098,0,6.186-0.678,9.077-2.026
				c5.206-2.428,9.155-6.738,11.121-12.136C325.598,126.372,323.475,121.82,319.357,120.321z"/>
			<path d="M214.49,92.746c0.896,0.326,1.812,0.48,2.712,0.48c3.241,0,6.283-2.001,7.456-5.222l1.298-3.565
				c1.499-4.118-0.625-8.67-4.741-10.169c-4.118-1.497-8.671,0.626-10.169,4.741l-1.298,3.565
				C208.25,86.694,210.374,91.247,214.49,92.746z"/>
			<path d="M221.472,107.382l-21.738-7.911c-4.123-1.5-8.671,0.625-10.169,4.741c-1.499,4.118,0.625,8.67,4.741,10.169l21.738,7.911
				c0.897,0.326,1.812,0.48,2.712,0.48c3.24,0,6.283-2.001,7.456-5.222C227.712,113.433,225.589,108.881,221.472,107.382z"/>
			<path d="M366.397,148.035c0.896,0.326,1.812,0.48,2.712,0.48c3.241,0,6.282-2,7.456-5.221l1.298-3.564
				c1.499-4.117-0.624-8.67-4.741-10.169c-4.119-1.497-8.669,0.623-10.169,4.742l-1.298,3.564
				C360.156,141.982,362.279,146.536,366.397,148.035z"/>
		</g>
	</g>
</g>
<g>
</g>
<g>
</g>
<g>
</g>
<g>
</g>
<g>
</g>
<g>
</g>
<g>
</g>
<g>
</g>
<g>
</g>
<g>
</g>
<g>
</g>
<g>
</g>
<g>
</g>
<g>
</g>
<g>
</g>
</svg>
