<?xml version="1.0" encoding="iso-8859-1"?>
<!-- Generator: Adobe Illustrator 19.0.0, SVG Export Plug-In . SVG Version: 6.00 Build 0)  -->
<svg version="1.1" id="Capa_1" xmlns="http://www.w3.org/2000/svg" xmlns:xlink="http://www.w3.org/1999/xlink" x="0px" y="0px"
	 viewBox="0 0 497.894 497.894" style="enable-background:new 0 0 497.894 497.894;" xml:space="preserve">
<g>
	<path style="fill:#4DCFE0;" d="M247.902,216.816c-37.616,0-67.918,30.302-67.918,67.918v1.567
		c0,37.616,30.302,67.918,67.918,67.918h1.567c37.616,0,67.918-30.302,67.918-67.918v-1.567c0-37.616-30.302-67.918-67.918-67.918
		C249.469,216.816,247.902,216.816,247.902,216.816z"/>
	<path style="fill:#4DCFE0;" d="M301.714,360.49c-4.18,0-8.882,1.045-12.016,4.18c-11.494,10.971-25.6,16.718-40.751,16.718
		c-15.673,0-29.78-5.747-40.751-16.718c-3.135-3.135-7.837-4.702-12.016-4.18c-41.273,3.135-74.188,38.139-74.188,79.935v41.796
		c0,8.882,6.792,15.673,15.673,15.673h222.563c8.882,0,15.673-6.792,15.673-15.673v-41.796
		C375.902,398.106,343.51,363.102,301.714,360.49z"/>
	<path style="fill:#4DCFE0;" d="M444.865,307.2v-1.045c0-31.869-25.6-57.469-57.469-57.469h-1.045
		c-31.869,0-57.469,25.6-57.469,57.469v1.567c0,31.869,25.6,57.469,57.469,57.469h1.045
		C419.265,365.192,444.865,339.069,444.865,307.2z"/>
</g>
<path style="fill:#3A2C51;" d="M429.192,370.939h-5.224c-4.18,0-8.359,1.567-10.971,4.702c-7.314,7.314-15.673,10.971-26.122,10.971
	v89.861h84.637c8.882,0,15.673-6.792,15.673-15.673v-31.869C487.184,397.061,461.061,370.939,429.192,370.939z"/>
<path style="fill:#4DCFE0;" d="M169.012,307.722v-1.567c0-31.869-25.6-57.469-57.469-57.469h-1.045
	c-31.869,0-57.469,25.6-57.469,57.469v1.045c0,31.869,25.6,57.992,57.469,57.992h1.045
	C143.412,365.192,169.012,339.592,169.012,307.722z"/>
<path style="fill:#3A2C51;" d="M84.898,375.641c-3.135-3.135-6.792-4.702-10.971-4.702h-5.224
	c-31.869,0-57.992,26.122-57.992,57.992V460.8c0,8.882,6.792,15.673,15.673,15.673h84.637v-89.861
	C101.616,386.612,92.735,382.955,84.898,375.641z"/>
<path style="fill:#D4E1F4;" d="M70.269,184.424h40.229l32.392,41.796c3.135,3.657,7.314,6.269,12.539,6.269h0.522
	c5.224,0,9.927-2.612,12.539-7.314l26.645-40.751h123.82c8.882,0,15.673-6.792,15.673-15.673V15.673
	C334.629,6.792,327.837,0,318.955,0H70.269c-8.882,0-15.673,6.792-15.673,15.673v153.078
	C54.596,177.633,61.388,184.424,70.269,184.424z"/>
<g>
	<path style="fill:#3A2C51;" d="M128.784,84.114h106.057c8.882,0,15.673-6.792,15.673-15.673s-6.792-15.673-15.673-15.673H128.784
		c-8.882,0-15.673,6.792-15.673,15.673S119.902,84.114,128.784,84.114z"/>
	<path style="fill:#3A2C51;" d="M202.971,115.984c0-8.882-6.792-15.673-15.673-15.673h-58.514c-8.882,0-15.673,6.792-15.673,15.673
		s6.792,15.673,15.673,15.673h58.514C196.18,131.657,202.971,124.865,202.971,115.984z"/>
</g>
<g>
</g>
<g>
</g>
<g>
</g>
<g>
</g>
<g>
</g>
<g>
</g>
<g>
</g>
<g>
</g>
<g>
</g>
<g>
</g>
<g>
</g>
<g>
</g>
<g>
</g>
<g>
</g>
<g>
</g>
</svg>
