<?xml version="1.0" encoding="iso-8859-1"?>
<!-- Generator: Adobe Illustrator 19.0.0, SVG Export Plug-In . SVG Version: 6.00 Build 0)  -->
<svg version="1.1" id="Capa_1" xmlns="http://www.w3.org/2000/svg" xmlns:xlink="http://www.w3.org/1999/xlink" x="0px" y="0px"
	 viewBox="0 0 512 512" style="enable-background:new 0 0 512 512;" xml:space="preserve">
<g>
	<circle style="fill:#FFFFFF;" cx="256" cy="41.6" r="33.6"/>
	<circle style="fill:#FFFFFF;" cx="470.4" cy="41.6" r="33.6"/>
	<circle style="fill:#FFFFFF;" cx="470.4" cy="256" r="33.6"/>
	<circle style="fill:#FFFFFF;" cx="256" cy="470.4" r="33.6"/>
	<circle style="fill:#FFFFFF;" cx="41.6" cy="470.4" r="33.6"/>
	<circle style="fill:#FFFFFF;" cx="470.4" cy="470.4" r="33.6"/>
	<circle style="fill:#FFFFFF;" cx="41.6" cy="41.6" r="33.6"/>
	<circle style="fill:#FFFFFF;" cx="41.6" cy="256" r="33.6"/>
</g>
<g>
	<rect x="139.2" y="462.4" style="fill:#193651;" width="16" height="16"/>
	<rect x="356.8" y="462.4" style="fill:#193651;" width="16" height="16"/>
	<rect x="139.2" y="33.6" style="fill:#193651;" width="16" height="16"/>
	<rect x="356.8" y="33.6" style="fill:#193651;" width="16" height="16"/>
	<rect x="33.6" y="139.2" style="fill:#193651;" width="16" height="16"/>
	<rect x="33.6" y="356.8" style="fill:#193651;" width="16" height="16"/>
	<rect x="462.4" y="139.2" style="fill:#193651;" width="16" height="16"/>
	<rect x="462.4" y="356.8" style="fill:#193651;" width="16" height="16"/>
</g>
<path style="fill:#2EA2DB;" d="M356.8,395.2H155.2c-4.8,0-8-3.2-8-8v-136c0-4.8,3.2-8,8-8H356c4.8,0,8,3.2,8,8V388
	C364.8,392,360.8,395.2,356.8,395.2z"/>
<path style="fill:#193651;" d="M428.8,264c1.6,8,5.6,16,11.2,21.6c8,8,18.4,12,29.6,12s21.6-4,29.6-12s12-18.4,12-29.6
	c0-11.2-4-21.6-12-29.6s-18.4-12-29.6-12s-21.6,4-29.6,12c-5.6,5.6-9.6,13.6-11.2,21.6H372c-1.6-7.2-8-12.8-16-12.8h-10.4v-24.8
	c0-9.6-1.6-19.2-4.8-28L446.4,76.8c7.2,4.8,15.2,7.2,23.2,7.2c11.2,0,21.6-4,29.6-12S512,52.8,512,41.6S508,20,500,12
	S481.6,0,470.4,0s-21.6,4-29.6,12s-12,18.4-12,29.6c0,8.8,2.4,16.8,7.2,23.2L334.4,166.4c-14.4-25.6-40-43.2-70.4-45.6V83.2
	c8-1.6,16-5.6,21.6-11.2c16-16,16-43.2,0-59.2c-8-8-18.4-12-29.6-12c-11.2,0-21.6,4-29.6,12c-16,16-16,43.2,0,59.2
	c5.6,5.6,13.6,9.6,21.6,11.2v37.6c-30.4,2.4-56,20-70.4,45.6L76.8,65.6c11.2-16,9.6-38.4-4.8-52.8C63.2,4,52.8,0,41.6,0S20,4,12,12
	C-4,28-4,55.2,12,71.2c8,8,18.4,12,29.6,12c8.8,0,16.8-2.4,23.2-7.2l105.6,105.6c-3.2,8.8-4.8,18.4-4.8,28v24.8h-10.4
	c-8,0-14.4,5.6-16,12.8H82.4c-1.6-8-5.6-15.2-11.2-21.6c-8-8-18.4-12-29.6-12s-21.6,4-29.6,12c-16,16-16,43.2,0,59.2
	c8,8,18.4,12,29.6,12s21.6-4,29.6-12c6.4-6.4,9.6-13.6,11.2-21.6h56.8v97.6l-74.4,74.4c-7.2-4.8-15.2-7.2-23.2-7.2
	c-11.2,0-21.6,4-29.6,12S0,458.4,0,469.6s4,21.6,12,29.6s18.4,12,29.6,12s21.6-4,29.6-12c14.4-14.4,16-36.8,4.8-52.8l63.2-63.2v3.2
	c0,8.8,7.2,16,16,16H248V428c-8,1.6-16,5.6-21.6,11.2c-16,16-16,43.2,0,59.2c8,8,18.4,12,29.6,12s21.6-4,29.6-12s12-18.4,12-29.6
	s-4-21.6-12-29.6c-5.6-4.8-13.6-8.8-21.6-10.4v-25.6h92.8c8.8,0,16-7.2,16-16V384l63.2,63.2c-4.8,7.2-7.2,15.2-7.2,23.2
	c0,11.2,4,21.6,12,29.6s18.4,12,29.6,12s21.6-4,29.6-12s12-18.4,12-29.6s-4-21.6-12-29.6s-18.4-12-29.6-12c-8.8,0-16.8,2.4-23.2,7.2
	l-74.4-74.4V264H428.8z M452,237.6c4.8-4.8,11.2-7.2,18.4-7.2c7.2,0,13.6,2.4,18.4,7.2s7.2,11.2,7.2,18.4c0,7.2-2.4,13.6-7.2,18.4
	c-9.6,9.6-27.2,9.6-36.8,0c-4.8-4.8-7.2-11.2-7.2-18.4C444,248.8,447.2,242.4,452,237.6z M452,23.2c4.8-4.8,11.2-7.2,18.4-7.2
	c7.2,0,13.6,2.4,18.4,7.2c4.8,5.6,7.2,12,7.2,18.4c0,7.2-2.4,13.6-7.2,18.4c-9.6,9.6-27.2,9.6-36.8,0c-4.8-4.8-7.2-11.2-7.2-18.4
	C444,35.2,447.2,28.8,452,23.2z M23.2,60c-10.4-10.4-10.4-26.4,0-36.8c5.6-4.8,12-7.2,18.4-7.2c7.2,0,13.6,2.4,18.4,7.2
	C70.4,33.6,70.4,49.6,60,60C50.4,69.6,33.6,69.6,23.2,60z M60,274.4c-9.6,9.6-27.2,9.6-36.8,0c-10.4-10.4-10.4-26.4,0-36.8
	c4.8-4.8,11.2-7.2,18.4-7.2s13.6,2.4,18.4,7.2C70.4,248,70.4,264,60,274.4z M60,488.8c-9.6,9.6-27.2,9.6-36.8,0
	c-4.8-5.6-7.2-12-7.2-18.4c0-7.2,2.4-13.6,7.2-18.4s11.2-7.2,18.4-7.2s13.6,2.4,18.4,7.2C70.4,461.6,70.4,478.4,60,488.8z
	 M281.6,470.4c0,7.2-2.4,13.6-7.2,18.4c-9.6,9.6-27.2,9.6-36.8,0c-10.4-10.4-10.4-26.4,0-36.8c4.8-4.8,11.2-7.2,18.4-7.2
	s13.6,2.4,18.4,7.2C279.2,456.8,281.6,463.2,281.6,470.4z M237.6,23.2c4.8-4.8,11.2-7.2,18.4-7.2c7.2,0,13.6,2.4,18.4,7.2
	c10.4,10.4,10.4,26.4,0,36.8c-9.6,9.6-27.2,9.6-36.8,0C228,50.4,228,33.6,237.6,23.2z M182.4,210.4c0-40.8,32.8-73.6,73.6-73.6
	s73.6,32.8,73.6,73.6v24.8H182.4V210.4z M155.2,387.2v-136H356V388H155.2V387.2z M470.4,444c7.2,0,13.6,2.4,18.4,7.2
	c4.8,4.8,7.2,11.2,7.2,18.4c0,7.2-2.4,13.6-7.2,18.4c-9.6,9.6-26.4,9.6-36.8,0c-4.8-4.8-7.2-11.2-7.2-18.4c0-7.2,2.4-13.6,7.2-18.4
	C456.8,447.2,463.2,444,470.4,444z"/>
<rect x="179.2" y="275.2" style="fill:#FFFFFF;" width="152.8" height="88.8"/>
<path style="fill:#193651;" d="M256,289.6c-10.4,0-19.2,8.8-19.2,19.2c0,8,4.8,14.4,11.2,17.6v23.2h16v-23.2
	c6.4-3.2,11.2-9.6,11.2-17.6C275.2,297.6,266.4,289.6,256,289.6z"/>
<g>
</g>
<g>
</g>
<g>
</g>
<g>
</g>
<g>
</g>
<g>
</g>
<g>
</g>
<g>
</g>
<g>
</g>
<g>
</g>
<g>
</g>
<g>
</g>
<g>
</g>
<g>
</g>
<g>
</g>
</svg>
